<svg width="1012" height="500" viewBox="0 0 1012 500" fill="none" xmlns="http://www.w3.org/2000/svg">
<g clip-path="url(#clip0_2044_19314)">
<path d="M1012 0H0V500H1012V0Z" fill="#9E9E9E"/>
<g opacity="0.34">
<mask id="mask0_2044_19314" style="mask-type:luminance" maskUnits="userSpaceOnUse" x="0" y="-256" width="1012" height="1013">
<path d="M0.500012 755.5L1011.5 755.5L1011.5 -255.5L0.5 -255.5L0.500012 755.5Z" fill="white" stroke="white"/>
</mask>
<g mask="url(#mask0_2044_19314)">
<path d="M-373.597 443.241L699.084 -629.44L669.975 -658.549L-402.706 414.132L-373.597 443.241Z" fill="#C7C9C7" stroke="#919391"/>
<path d="M-462.549 353.997L610.132 -718.684L581.023 -747.793L-491.658 324.888L-462.549 353.997Z" fill="#C7C9C7" stroke="#919391"/>
<path d="M-284.648 532.51L788.033 -540.171L758.923 -569.281L-313.758 503.4L-284.648 532.51Z" fill="#C7C9C7" stroke="#919391"/>
<path d="M-193.928 622.444L878.753 -450.237L849.643 -479.347L-223.038 593.334L-193.928 622.444Z" fill="#C7C9C7" stroke="#919391"/>
<path d="M-104.976 711.701L967.705 -360.979L938.596 -390.089L-134.085 682.592L-104.976 711.701Z" fill="#C7C9C7" stroke="#919391"/>
<path d="M-16.0234 800.95L1056.66 -271.731L1027.55 -300.841L-45.1329 771.84L-16.0234 800.95Z" fill="#C7C9C7" stroke="#919391"/>
<path d="M73.0718 890.211L1145.75 -182.47L1116.64 -211.58L43.9624 861.101L73.0718 890.211Z" fill="#C7C9C7" stroke="#919391"/>
<path d="M163.653 980.148L1236.33 -92.5327L1207.22 -121.642L134.544 951.039L163.653 980.148Z" fill="#C7C9C7" stroke="#919391"/>
<path d="M252.606 1069.41L1325.29 -3.27378L1296.18 -32.3832L223.497 1040.3L252.606 1069.41Z" fill="#C7C9C7" stroke="#919391"/>
<path d="M341.668 1158.66L1414.35 85.9765L1385.24 56.867L312.558 1129.55L341.668 1158.66Z" fill="#C7C9C7" stroke="#919391"/>
<path d="M432.275 1248.64L1504.96 175.956L1475.85 146.846L403.165 1219.53L432.275 1248.64Z" fill="#C7C9C7" stroke="#919391"/>
<path d="M312.682 -629.65L1385.36 443.031L1414.47 413.922L341.791 -658.759L312.682 -629.65Z" fill="#C7C9C7" stroke="#919391"/>
<path d="M402.848 -718.402L1475.53 354.279L1504.64 325.17L431.957 -747.511L402.848 -718.402Z" fill="#C7C9C7" stroke="#919391"/>
<path d="M223.733 -540.387L1296.41 532.294L1325.52 503.185L252.843 -569.496L223.733 -540.387Z" fill="#C7C9C7" stroke="#919391"/>
<path d="M134.248 -449.929L1206.93 622.752L1236.04 593.642L163.357 -479.038L134.248 -449.929Z" fill="#C7C9C7" stroke="#919391"/>
<path d="M44.7325 -361.175L1117.41 711.506L1146.52 682.397L73.8419 -390.284L44.7325 -361.175Z" fill="#C7C9C7" stroke="#919391"/>
<path d="M-44.8916 -271.93L1027.79 800.751L1056.9 771.642L-15.7821 -301.039L-44.8916 -271.93Z" fill="#C7C9C7" stroke="#919391"/>
<path d="M-133.84 -182.671L938.841 890.01L967.95 860.901L-104.731 -211.78L-133.84 -182.671Z" fill="#C7C9C7" stroke="#919391"/>
<path d="M-223.33 -92.2317L849.351 980.449L878.461 951.34L-194.22 -121.341L-223.33 -92.2317Z" fill="#C7C9C7" stroke="#919391"/>
<path d="M-313.517 -3.46945L759.164 1069.21L788.274 1040.1L-284.407 -32.5789L-313.517 -3.46945Z" fill="#C7C9C7" stroke="#919391"/>
<path d="M-402.444 85.7748L670.237 1158.46L699.346 1129.35L-373.335 56.6654L-402.444 85.7748Z" fill="#C7C9C7" stroke="#919391"/>
<path d="M-491.955 176.228L580.726 1248.91L609.836 1219.8L-462.845 147.119L-491.955 176.228Z" fill="#C7C9C7" stroke="#919391"/>
</g>
</g>
<rect x="252" y="206" width="508" height="88" rx="44" fill="white" fill-opacity="0.12"/>
<rect x="253" y="207" width="86" height="86" rx="43" fill="#CDFFDC" fill-opacity="0.67"/>
<rect x="253" y="207" width="86" height="86" rx="43" stroke="#505050" stroke-width="2"/>
<path d="M304.343 248L293.615 237.272L296.444 234.443L312 250L296.444 265.556L293.615 262.728L304.343 252H280V248H304.343Z" fill="#505050"/>
<path d="M375.566 262.334C372.953 262.334 370.768 261.742 369.01 260.559C367.252 259.375 366.162 257.734 365.74 255.637L369.309 254.793C369.59 256.223 370.305 257.342 371.453 258.15C372.602 258.959 374.014 259.363 375.689 259.363C376.381 259.363 377.025 259.293 377.623 259.152C378.221 259 378.766 258.771 379.258 258.467C379.762 258.15 380.154 257.723 380.436 257.184C380.717 256.633 380.852 256 380.84 255.285C380.828 254.723 380.682 254.219 380.4 253.773C380.131 253.316 379.861 252.959 379.592 252.701C379.322 252.432 378.807 252.145 378.045 251.84C377.295 251.523 376.756 251.318 376.428 251.225C376.111 251.131 375.449 250.943 374.441 250.662C374.336 250.627 374.26 250.604 374.213 250.592C373.545 250.404 372.994 250.246 372.561 250.117C372.127 249.988 371.611 249.812 371.014 249.59C370.416 249.355 369.924 249.127 369.537 248.904C369.162 248.67 368.764 248.383 368.342 248.043C367.92 247.691 367.586 247.322 367.34 246.936C367.105 246.537 366.906 246.068 366.742 245.529C366.59 244.979 366.514 244.387 366.514 243.754C366.514 242.852 366.654 242.02 366.936 241.258C367.229 240.496 367.627 239.846 368.131 239.307C368.646 238.768 369.256 238.311 369.959 237.936C370.662 237.549 371.424 237.268 372.244 237.092C373.064 236.904 373.932 236.811 374.846 236.811C375.971 236.811 377.025 236.934 378.01 237.18C379.006 237.414 379.92 237.777 380.752 238.27C381.584 238.75 382.293 239.389 382.879 240.186C383.465 240.971 383.869 241.885 384.092 242.928L380.699 243.789C380.406 242.465 379.744 241.469 378.713 240.801C377.693 240.133 376.457 239.799 375.004 239.799C374.125 239.799 373.322 239.922 372.596 240.168C371.881 240.414 371.271 240.842 370.768 241.451C370.275 242.061 370.029 242.816 370.029 243.719C370.029 244.082 370.088 244.416 370.205 244.721C370.322 245.025 370.463 245.289 370.627 245.512C370.803 245.734 371.055 245.957 371.383 246.18C371.723 246.391 372.021 246.566 372.279 246.707C372.549 246.836 372.93 246.982 373.422 247.146C373.914 247.311 374.312 247.439 374.617 247.533C374.922 247.615 375.367 247.732 375.953 247.885C377.02 248.178 377.834 248.412 378.396 248.588C378.971 248.764 379.703 249.057 380.594 249.467C381.496 249.877 382.176 250.311 382.633 250.768C383.102 251.225 383.518 251.834 383.881 252.596C384.256 253.357 384.443 254.219 384.443 255.18C384.443 256.152 384.285 257.043 383.969 257.852C383.652 258.648 383.219 259.322 382.668 259.873C382.117 260.424 381.461 260.887 380.699 261.262C379.949 261.637 379.141 261.906 378.273 262.07C377.418 262.246 376.516 262.334 375.566 262.334ZM389.453 262V235H392.846V262H389.453ZM400.633 240.748C400.035 240.748 399.514 240.531 399.068 240.098C398.635 239.664 398.418 239.148 398.418 238.551C398.418 237.953 398.635 237.443 399.068 237.021C399.514 236.588 400.035 236.371 400.633 236.371C401.23 236.371 401.74 236.588 402.162 237.021C402.596 237.443 402.812 237.953 402.812 238.551C402.812 239.16 402.596 239.682 402.162 240.115C401.729 240.537 401.219 240.748 400.633 240.748ZM398.91 262V244.598H402.303V262H398.91ZM421.129 235H424.504V262H421.252L421.164 258.836C420.625 259.926 419.816 260.787 418.738 261.42C417.66 262.053 416.459 262.369 415.135 262.369C414.021 262.369 412.967 262.158 411.971 261.736C410.975 261.303 410.102 260.699 409.352 259.926C408.613 259.152 408.027 258.197 407.594 257.061C407.16 255.912 406.943 254.658 406.943 253.299C406.943 251.506 407.312 249.918 408.051 248.535C408.801 247.141 409.797 246.08 411.039 245.354C412.281 244.615 413.646 244.246 415.135 244.246C416.447 244.246 417.637 244.557 418.703 245.178C419.77 245.787 420.578 246.625 421.129 247.691V235ZM415.855 259.486C417.414 259.486 418.721 258.9 419.775 257.729C420.83 256.545 421.357 255.068 421.357 253.299C421.357 251.529 420.824 250.059 419.758 248.887C418.703 247.715 417.402 247.129 415.855 247.129C414.285 247.129 412.967 247.697 411.9 248.834C410.846 249.971 410.318 251.459 410.318 253.299C410.318 255.139 410.846 256.633 411.9 257.781C412.967 258.918 414.285 259.486 415.855 259.486ZM445.984 252.965L445.932 253.861H432.449C432.508 255.701 433.047 257.113 434.066 258.098C435.086 259.082 436.357 259.574 437.881 259.574C438.912 259.574 439.838 259.311 440.658 258.783C441.479 258.256 442.111 257.518 442.557 256.568L445.615 257.166C445.006 258.771 444.01 260.037 442.627 260.963C441.256 261.877 439.686 262.334 437.916 262.334C435.291 262.334 433.17 261.531 431.553 259.926C429.947 258.309 429.145 256.1 429.145 253.299C429.145 250.51 429.953 248.307 431.57 246.689C433.188 245.061 435.268 244.246 437.811 244.246C440.271 244.246 442.246 244.99 443.734 246.479C445.223 247.967 445.973 250.129 445.984 252.965ZM437.828 246.812C436.445 246.812 435.291 247.193 434.365 247.955C433.439 248.705 432.848 249.818 432.59 251.295H442.592C442.451 249.83 441.953 248.717 441.098 247.955C440.242 247.193 439.152 246.812 437.828 246.812ZM465.654 262C464.178 262 463.018 261.578 462.174 260.734C461.33 259.879 460.908 258.684 460.908 257.148V247.252H457.357V244.598H458.641C459.555 244.598 460.205 244.387 460.592 243.965C460.99 243.543 461.189 242.828 461.189 241.82V238.814H464.301V244.598H468.238V247.252H464.301V256.797C464.301 257.605 464.512 258.232 464.934 258.678C465.367 259.123 465.936 259.346 466.639 259.346H468.238V262H465.654ZM479.857 262.334C477.268 262.334 475.135 261.514 473.459 259.873C471.783 258.221 470.945 256.023 470.945 253.281C470.945 250.539 471.777 248.348 473.441 246.707C475.117 245.066 477.256 244.246 479.857 244.246C482.459 244.246 484.592 245.066 486.256 246.707C487.92 248.348 488.752 250.539 488.752 253.281C488.752 256.023 487.92 258.221 486.256 259.873C484.592 261.514 482.459 262.334 479.857 262.334ZM479.822 259.557C481.439 259.557 482.775 258.982 483.83 257.834C484.885 256.674 485.412 255.156 485.412 253.281C485.412 251.406 484.885 249.895 483.83 248.746C482.775 247.598 481.439 247.023 479.822 247.023C478.229 247.023 476.91 247.598 475.867 248.746C474.824 249.895 474.303 251.406 474.303 253.281C474.303 255.156 474.824 256.674 475.867 257.834C476.91 258.982 478.229 259.557 479.822 259.557ZM508.334 262.334C506.424 262.334 504.836 261.918 503.57 261.086C502.305 260.254 501.537 259.059 501.268 257.5L504.168 256.674C504.379 257.693 504.848 258.479 505.574 259.029C506.312 259.568 507.227 259.838 508.316 259.838C509.254 259.838 510.045 259.639 510.689 259.24C511.334 258.83 511.645 258.186 511.621 257.307C511.609 257.025 511.562 256.768 511.48 256.533C511.398 256.299 511.252 256.094 511.041 255.918C510.83 255.73 510.631 255.572 510.443 255.443C510.256 255.314 509.975 255.186 509.6 255.057C509.225 254.916 508.914 254.805 508.668 254.723C508.434 254.641 508.064 254.529 507.561 254.389C507.068 254.248 506.688 254.137 506.418 254.055C505.715 253.844 505.129 253.633 504.66 253.422C504.191 253.211 503.711 252.924 503.219 252.561C502.727 252.197 502.357 251.74 502.111 251.189C501.865 250.639 501.742 249.994 501.742 249.256C501.742 247.615 502.328 246.379 503.5 245.547C504.672 244.703 506.172 244.281 508 244.281C509.699 244.281 511.129 244.662 512.289 245.424C513.461 246.174 514.182 247.311 514.451 248.834L511.727 249.502C511.527 248.553 511.088 247.85 510.408 247.393C509.74 246.924 508.943 246.689 508.018 246.689C507.15 246.689 506.406 246.883 505.785 247.27C505.176 247.645 504.871 248.225 504.871 249.01C504.871 249.42 504.971 249.777 505.17 250.082C505.369 250.387 505.668 250.639 506.066 250.838C506.465 251.037 506.869 251.201 507.279 251.33C507.689 251.459 508.193 251.6 508.791 251.752C508.955 251.787 509.078 251.816 509.16 251.84C509.828 252.004 510.385 252.162 510.83 252.314C511.275 252.455 511.773 252.672 512.324 252.965C512.887 253.246 513.338 253.562 513.678 253.914C514.018 254.254 514.305 254.705 514.539 255.268C514.773 255.83 514.891 256.463 514.891 257.166C514.891 257.893 514.773 258.549 514.539 259.135C514.305 259.721 513.982 260.213 513.572 260.611C513.174 260.998 512.693 261.326 512.131 261.596C511.568 261.854 510.971 262.041 510.338 262.158C509.717 262.275 509.049 262.334 508.334 262.334ZM525.209 262C523.732 262 522.572 261.578 521.729 260.734C520.885 259.879 520.463 258.684 520.463 257.148V247.252H516.912V244.598H518.195C519.109 244.598 519.76 244.387 520.146 243.965C520.545 243.543 520.744 242.828 520.744 241.82V238.814H523.855V244.598H527.793V247.252H523.855V256.797C523.855 257.605 524.066 258.232 524.488 258.678C524.922 259.123 525.49 259.346 526.193 259.346H527.793V262H525.209ZM535.984 262.334C534.988 262.334 534.098 262.176 533.312 261.859C532.539 261.543 531.9 261.021 531.396 260.295C530.904 259.557 530.658 258.648 530.658 257.57C530.658 256.691 530.816 255.93 531.133 255.285C531.461 254.641 531.941 254.113 532.574 253.703C533.219 253.293 533.904 252.965 534.631 252.719C535.369 252.473 536.248 252.262 537.268 252.086L540.01 251.611C541.064 251.412 541.592 250.879 541.592 250.012C541.592 248.898 541.24 248.084 540.537 247.568C539.834 247.041 538.955 246.777 537.9 246.777C536.822 246.777 535.932 247.035 535.229 247.551C534.525 248.066 534.109 248.869 533.98 249.959L530.939 249.344C531.221 247.656 531.965 246.391 533.172 245.547C534.391 244.703 536.02 244.281 538.059 244.281C538.797 244.281 539.482 244.34 540.115 244.457C540.748 244.574 541.357 244.779 541.943 245.072C542.541 245.365 543.045 245.74 543.455 246.197C543.877 246.643 544.211 247.223 544.457 247.938C544.715 248.641 544.844 249.443 544.844 250.346V257.395C544.844 258.262 544.973 258.854 545.23 259.17C545.5 259.475 545.951 259.627 546.584 259.627H546.848V262H545.213C543.303 262 542.178 261.221 541.838 259.662H541.68C541.023 260.576 540.191 261.25 539.184 261.684C538.188 262.117 537.121 262.334 535.984 262.334ZM536.758 259.645C538.258 259.645 539.477 259.111 540.414 258.045C541.363 256.967 541.838 255.52 541.838 253.703L537.285 254.635C536.16 254.822 535.322 255.127 534.771 255.549C534.221 255.959 533.945 256.545 533.945 257.307C533.945 258.092 534.203 258.678 534.719 259.064C535.246 259.451 535.926 259.645 536.758 259.645ZM554.301 247.621C554.723 246.684 555.443 245.916 556.463 245.318C557.482 244.721 558.607 244.416 559.838 244.404V247.533C558.045 247.533 556.691 247.949 555.777 248.781C554.863 249.613 554.406 250.967 554.406 252.842V262H551.031V244.598H554.301V247.621ZM570.068 262C568.592 262 567.432 261.578 566.588 260.734C565.744 259.879 565.322 258.684 565.322 257.148V247.252H561.771V244.598H563.055C563.969 244.598 564.619 244.387 565.006 243.965C565.404 243.543 565.604 242.828 565.604 241.82V238.814H568.715V244.598H572.652V247.252H568.715V256.797C568.715 257.605 568.926 258.232 569.348 258.678C569.781 259.123 570.35 259.346 571.053 259.346H572.652V262H570.068ZM597.174 244.598H600.725L590.512 270.191H587.031L590.617 261.561L583.779 244.598H587.506L592.305 257.781L597.174 244.598ZM611.025 262.334C608.436 262.334 606.303 261.514 604.627 259.873C602.951 258.221 602.113 256.023 602.113 253.281C602.113 250.539 602.945 248.348 604.609 246.707C606.285 245.066 608.424 244.246 611.025 244.246C613.627 244.246 615.76 245.066 617.424 246.707C619.088 248.348 619.92 250.539 619.92 253.281C619.92 256.023 619.088 258.221 617.424 259.873C615.76 261.514 613.627 262.334 611.025 262.334ZM610.99 259.557C612.607 259.557 613.943 258.982 614.998 257.834C616.053 256.674 616.58 255.156 616.58 253.281C616.58 251.406 616.053 249.895 614.998 248.746C613.943 247.598 612.607 247.023 610.99 247.023C609.396 247.023 608.078 247.598 607.035 248.746C605.992 249.895 605.471 251.406 605.471 253.281C605.471 255.156 605.992 256.674 607.035 257.834C608.078 258.982 609.396 259.557 610.99 259.557ZM635.494 244.598H638.869V262H635.652L635.564 259.75C635.002 260.57 634.264 261.209 633.35 261.666C632.447 262.111 631.428 262.334 630.291 262.334C628.416 262.334 626.928 261.812 625.826 260.77C624.736 259.715 624.191 258.227 624.191 256.305V244.598H627.584V255.566C627.584 256.902 627.93 257.898 628.621 258.555C629.312 259.199 630.197 259.521 631.275 259.521C632.518 259.521 633.525 259.135 634.299 258.361C635.084 257.588 635.482 256.422 635.494 254.863V244.598ZM648.203 247.621C648.625 246.684 649.346 245.916 650.365 245.318C651.385 244.721 652.51 244.416 653.74 244.404V247.533C651.947 247.533 650.594 247.949 649.68 248.781C648.766 249.613 648.309 250.967 648.309 252.842V262H644.934V244.598H648.203V247.621ZM669.859 247.621C670.281 246.684 671.002 245.916 672.021 245.318C673.041 244.721 674.166 244.416 675.396 244.404V247.533C673.604 247.533 672.25 247.949 671.336 248.781C670.422 249.613 669.965 250.967 669.965 252.842V262H666.59V244.598H669.859V247.621ZM680.617 240.748C680.02 240.748 679.498 240.531 679.053 240.098C678.619 239.664 678.402 239.148 678.402 238.551C678.402 237.953 678.619 237.443 679.053 237.021C679.498 236.588 680.02 236.371 680.617 236.371C681.215 236.371 681.725 236.588 682.146 237.021C682.58 237.443 682.797 237.953 682.797 238.551C682.797 239.16 682.58 239.682 682.146 240.115C681.713 240.537 681.203 240.748 680.617 240.748ZM678.895 262V244.598H682.287V262H678.895ZM701.113 235H704.488V262H701.236L701.148 258.836C700.609 259.926 699.801 260.787 698.723 261.42C697.645 262.053 696.443 262.369 695.119 262.369C694.006 262.369 692.951 262.158 691.955 261.736C690.959 261.303 690.086 260.699 689.336 259.926C688.598 259.152 688.012 258.197 687.578 257.061C687.145 255.912 686.928 254.658 686.928 253.299C686.928 251.506 687.297 249.918 688.035 248.535C688.785 247.141 689.781 246.08 691.023 245.354C692.266 244.615 693.631 244.246 695.119 244.246C696.432 244.246 697.621 244.557 698.688 245.178C699.754 245.787 700.562 246.625 701.113 247.691V235ZM695.84 259.486C697.398 259.486 698.705 258.9 699.76 257.729C700.814 256.545 701.342 255.068 701.342 253.299C701.342 251.529 700.809 250.059 699.742 248.887C698.688 247.715 697.387 247.129 695.84 247.129C694.27 247.129 692.951 247.697 691.885 248.834C690.83 249.971 690.303 251.459 690.303 253.299C690.303 255.139 690.83 256.633 691.885 257.781C692.951 258.918 694.27 259.486 695.84 259.486ZM725.969 252.965L725.916 253.861H712.434C712.492 255.701 713.031 257.113 714.051 258.098C715.07 259.082 716.342 259.574 717.865 259.574C718.896 259.574 719.822 259.311 720.643 258.783C721.463 258.256 722.096 257.518 722.541 256.568L725.6 257.166C724.99 258.771 723.994 260.037 722.611 260.963C721.24 261.877 719.67 262.334 717.9 262.334C715.275 262.334 713.154 261.531 711.537 259.926C709.932 258.309 709.129 256.1 709.129 253.299C709.129 250.51 709.938 248.307 711.555 246.689C713.172 245.061 715.252 244.246 717.795 244.246C720.256 244.246 722.23 244.99 723.719 246.479C725.207 247.967 725.957 250.129 725.969 252.965ZM717.812 246.812C716.43 246.812 715.275 247.193 714.35 247.955C713.424 248.705 712.832 249.818 712.574 251.295H722.576C722.436 249.83 721.938 248.717 721.082 247.955C720.227 247.193 719.137 246.812 717.812 246.812Z" fill="#373A32"/>
</g>
<defs>
<clipPath id="clip0_2044_19314">
<rect width="1012" height="500" fill="white"/>
</clipPath>
</defs>
</svg>
