<svg width="288" height="105" viewBox="0 0 288 105" fill="none" xmlns="http://www.w3.org/2000/svg">
<path d="M243.98 104.885H221.392L233.481 75.8077L201.708 0.0109609H226.433L244.86 49.215L263.286 0H288L243.934 104.874L243.98 104.885ZM170.822 29.1498L153.519 75.8077H141.231H128.942L160.625 0.0109609H181.041L212.885 75.8077H200.942H188.308L170.833 29.1279L170.822 29.1498Z" fill="black" style="fill:black;fill-opacity:1;"/>
<path d="M0 75.7394L33.2685 0H53.8897L74.6839 47.3424L95.4667 0H116.088L130.639 33.1281L118.523 60.7207L105.783 28.143L87.1582 75.75H62.1981L43.5733 28.143L24.9231 75.8077L0 75.75" fill="black" style="fill:black;fill-opacity:1;"/>
</svg>
