<svg width="1012" height="500" viewBox="0 0 1012 500" fill="none" xmlns="http://www.w3.org/2000/svg">
<rect width="1012" height="500" fill="#FFFFFF"/>

<!-- CEILING / HEADLINER -->
<path d="M0,0 L1012,0 L1012,62 Q820,76 506,80 Q192,76 0,62 Z" fill="#FFFFFF" stroke="#1A1A1A" stroke-width="1.4" stroke-linejoin="round"/>
<path d="M0,62 Q45,70 88,86 Q105,94 118,118" fill="none" stroke="#1A1A1A" stroke-width="1.1" stroke-linecap="round"/>
<path d="M1012,62 Q967,70 924,86 Q907,94 894,118" fill="none" stroke="#1A1A1A" stroke-width="1.1" stroke-linecap="round"/>

<!-- SPEAKER GRILL -->
<rect x="460" y="2" width="92" height="15" rx="4" fill="#FFFFFF" stroke="#1A1A1A" stroke-width="0.9"/>
<line x1="468" y1="6" x2="544" y2="6" stroke="#1A1A1A" stroke-width="0.4"/>
<line x1="468" y1="9" x2="544" y2="9" stroke="#1A1A1A" stroke-width="0.4"/>
<line x1="468" y1="12" x2="544" y2="12" stroke="#1A1A1A" stroke-width="0.4"/>

<!-- SUN VISOR -->
<path d="M182,22 Q182,16 205,15 L636,15 Q656,16 656,24 L656,108 Q656,116 634,116 L204,116 Q182,116 182,107 Z" fill="#FFFFFF" stroke="#1A1A1A" stroke-width="1.3" stroke-linejoin="round"/>
<!-- Warning label inset -->
<rect x="215" y="28" width="380" height="80" rx="2" fill="#FFFFFF" stroke="#1A1A1A" stroke-width="0.8"/>
<!-- Warning triangle left -->
<path d="M228,42 L248,42 L238,62 Z" fill="none" stroke="#1A1A1A" stroke-width="0.8" stroke-linejoin="round"/>
<line x1="238" y1="48" x2="238" y2="56" stroke="#1A1A1A" stroke-width="0.8"/>
<circle cx="238" cy="59" r="1.8" fill="#1A1A1A"/>
<!-- Second warning graphic -->
<path d="M255,38 L285,38 L285,70 L255,70 Z" fill="none" stroke="#1A1A1A" stroke-width="0.6"/>
<circle cx="263" cy="46" r="4" fill="none" stroke="#1A1A1A" stroke-width="0.6"/>
<path d="M263,50 L263,58 M260,53 L266,53 M260,65 L263,58 M266,65 L263,58" fill="none" stroke="#1A1A1A" stroke-width="0.6" stroke-linecap="round"/>
<!-- WARNING text -->
<text x="302" y="43" font-family="Arial, sans-serif" font-size="5.5" fill="#1A1A1A" font-weight="700" letter-spacing="0.8">WARNING — AVERTISSEMENT — ADVERTENCIA</text>
<!-- Fine text lines -->
<line x1="298" y1="50" x2="590" y2="50" stroke="#1A1A1A" stroke-width="0.35"/>
<line x1="298" y1="55" x2="590" y2="55" stroke="#1A1A1A" stroke-width="0.35"/>
<line x1="298" y1="60" x2="590" y2="60" stroke="#1A1A1A" stroke-width="0.35"/>
<line x1="298" y1="65" x2="590" y2="65" stroke="#1A1A1A" stroke-width="0.35"/>
<line x1="298" y1="70" x2="590" y2="70" stroke="#1A1A1A" stroke-width="0.35"/>
<line x1="298" y1="75" x2="590" y2="75" stroke="#1A1A1A" stroke-width="0.35"/>
<line x1="298" y1="80" x2="590" y2="80" stroke="#1A1A1A" stroke-width="0.35"/>
<line x1="298" y1="85" x2="510" y2="85" stroke="#1A1A1A" stroke-width="0.35"/>
<line x1="298" y1="90" x2="545" y2="90" stroke="#1A1A1A" stroke-width="0.35"/>
<line x1="298" y1="95" x2="520" y2="95" stroke="#1A1A1A" stroke-width="0.35"/>
<line x1="298" y1="100" x2="590" y2="100" stroke="#1A1A1A" stroke-width="0.35"/>

<!-- Visor clip / latch right of visor -->
<path d="M660,60 Q672,54 680,58 Q692,62 688,74 Q684,84 674,83 Q663,82 660,73 Z" fill="#FFFFFF" stroke="#1A1A1A" stroke-width="0.9" stroke-linejoin="round"/>
<path d="M680,58 L695,50 Q702,46 704,54 L704,68 Q704,74 698,74 L688,74" fill="none" stroke="#1A1A1A" stroke-width="0.8" stroke-linecap="round"/>

<!-- LEFT A-PILLAR + DOOR PANEL -->
<path d="M0,0 L0,500 L22,500 L22,300 Q32,265 55,238 L118,118 Q124,100 122,76 L105,62 Q62,50 0,62 Z" fill="#FFFFFF" stroke="#1A1A1A" stroke-width="1.5" stroke-linejoin="round"/>
<path d="M118,118 Q112,148 112,210 L114,285" fill="none" stroke="#1A1A1A" stroke-width="1.1" stroke-linecap="round"/>
<path d="M22,300 Q35,295 40,305 L40,480 Q35,490 22,490" fill="none" stroke="#1A1A1A" stroke-width="0.7" stroke-linecap="round"/>
<path d="M10,240 Q22,236 22,240" fill="none" stroke="#1A1A1A" stroke-width="0.4" stroke-linecap="round" stroke-dasharray="2,3"/>
<path d="M10,260 Q22,256 22,260" fill="none" stroke="#1A1A1A" stroke-width="0.4" stroke-linecap="round" stroke-dasharray="2,3"/>
<path d="M10,280 Q22,276 22,280" fill="none" stroke="#1A1A1A" stroke-width="0.4" stroke-linecap="round" stroke-dasharray="2,3"/>
<path d="M10,300 Q22,296 22,300" fill="none" stroke="#1A1A1A" stroke-width="0.4" stroke-linecap="round" stroke-dasharray="2,3"/>
<path d="M10,320 Q22,316 22,320" fill="none" stroke="#1A1A1A" stroke-width="0.4" stroke-linecap="round" stroke-dasharray="2,3"/>
<path d="M10,340 Q22,336 22,340" fill="none" stroke="#1A1A1A" stroke-width="0.4" stroke-linecap="round" stroke-dasharray="2,3"/>

<!-- RIGHT A-PILLAR + DOOR PANEL -->
<path d="M1012,0 L1012,500 L990,500 L990,300 Q980,265 957,238 L894,118 Q888,100 890,76 L907,62 Q950,50 1012,62 Z" fill="#FFFFFF" stroke="#1A1A1A" stroke-width="1.5" stroke-linejoin="round"/>
<path d="M894,118 Q900,148 900,210 L898,285" fill="none" stroke="#1A1A1A" stroke-width="1.1" stroke-linecap="round"/>
<path d="M990,300 Q977,295 972,305 L972,480 Q977,490 990,490" fill="none" stroke="#1A1A1A" stroke-width="0.7" stroke-linecap="round"/>
<path d="M1002,240 Q990,236 990,240" fill="none" stroke="#1A1A1A" stroke-width="0.4" stroke-linecap="round" stroke-dasharray="2,3"/>
<path d="M1002,260 Q990,256 990,260" fill="none" stroke="#1A1A1A" stroke-width="0.4" stroke-linecap="round" stroke-dasharray="2,3"/>
<path d="M1002,280 Q990,276 990,280" fill="none" stroke="#1A1A1A" stroke-width="0.4" stroke-linecap="round" stroke-dasharray="2,3"/>
<path d="M1002,300 Q990,296 990,300" fill="none" stroke="#1A1A1A" stroke-width="0.4" stroke-linecap="round" stroke-dasharray="2,3"/>

<!-- WINDSHIELD OPENING -->
<path d="M114,285 Q114,295 130,298 L882,298 Q898,295 898,285 L898,118 Q895,105 878,98 L134,98 Q117,105 114,118 Z" fill="#FFFFFF" stroke="#1A1A1A" stroke-width="1.2" stroke-linejoin="round"/>

<!-- DASHCAM MODULE (center-right, suspended from ceiling) -->
<!-- Mount arm -->
<rect x="634" y="125" width="28" height="24" rx="2" fill="#FFFFFF" stroke="#1A1A1A" stroke-width="0.8"/>
<line x1="634" y1="130" x2="662" y2="130" stroke="#1A1A1A" stroke-width="0.4"/>
<!-- Device body - two sections -->
<rect x="608" y="149" width="82" height="60" rx="4" fill="#FFFFFF" stroke="#1A1A1A" stroke-width="1.1" stroke-linejoin="round"/>
<!-- Left display section -->
<rect x="613" y="154" width="40" height="50" rx="2" fill="#FFFFFF" stroke="#1A1A1A" stroke-width="0.6"/>
<!-- Car icon on screen -->
<path d="M625,174 L638,174 Q642,174 642,178 L642,186 Q642,190 638,190 L625,190 Q621,190 621,186 L621,178 Q621,174 625,174 Z" fill="none" stroke="#1A1A1A" stroke-width="0.8" stroke-linejoin="round"/>
<line x1="621" y1="183" x2="642" y2="183" stroke="#1A1A1A" stroke-width="0.5"/>
<ellipse cx="624" cy="192" rx="3" ry="2" fill="none" stroke="#1A1A1A" stroke-width="0.6"/>
<ellipse cx="639" cy="192" rx="3" ry="2" fill="none" stroke="#1A1A1A" stroke-width="0.6"/>
<!-- Divider between sections -->
<line x1="655" y1="154" x2="655" y2="204" stroke="#1A1A1A" stroke-width="0.6"/>
<!-- Right button section -->
<circle cx="668" cy="167" r="7" fill="none" stroke="#1A1A1A" stroke-width="0.7"/>
<circle cx="668" cy="167" r="3.5" fill="none" stroke="#1A1A1A" stroke-width="0.6"/>
<circle cx="668" cy="188" r="7" fill="none" stroke="#1A1A1A" stroke-width="0.7"/>
<circle cx="668" cy="188" r="3.5" fill="none" stroke="#1A1A1A" stroke-width="0.6"/>

<!-- REARVIEW MIRROR -->
<path d="M758,120 Q758,112 770,111 L982,111 Q994,112 994,120 L994,184 Q994,192 982,193 L770,193 Q758,192 758,184 Z" fill="#FFFFFF" stroke="#1A1A1A" stroke-width="1.3" stroke-linejoin="round"/>
<path d="M764,124 Q764,118 774,117 L978,117 Q988,118 988,124 L988,180 Q988,186 978,187 L774,187 Q764,186 764,180 Z" fill="#FFFFFF" stroke="#1A1A1A" stroke-width="0.5"/>
<!-- Mirror mount -->
<path d="M868,111 L868,102 L880,102 L880,111" fill="none" stroke="#1A1A1A" stroke-width="0.9" stroke-linecap="round"/>
<line x1="860" y1="102" x2="888" y2="102" stroke="#1A1A1A" stroke-width="0.9"/>

<!-- DASHBOARD SURFACE -->
<path d="M114,285 Q340,278 506,276 Q672,278 898,285 L898,305 Q672,298 506,296 Q340,298 114,305 Z" fill="#FFFFFF" stroke="#1A1A1A" stroke-width="1.3" stroke-linejoin="round"/>
<path d="M114,305 Q340,298 506,296 Q672,298 898,305 L898,380 Q700,390 506,392 Q312,390 114,380 Z" fill="#FFFFFF" stroke="#1A1A1A" stroke-width="1.3" stroke-linejoin="round"/>
<line x1="200" y1="290" x2="812" y2="290" stroke="#1A1A1A" stroke-width="0.4" stroke-dasharray="3,4"/>

<!-- GAUGE CLUSTER COWL / BEZEL -->
<path d="M338,308 Q420,300 506,299 Q592,300 666,308 L670,320 Q592,316 506,315 Q420,316 338,320 Z" fill="#FFFFFF" stroke="#1A1A1A" stroke-width="0.9" stroke-linejoin="round"/>

<!-- LEFT GAUGE (Tachometer) -->
<circle cx="412" cy="395" r="62" fill="#FFFFFF" stroke="#1A1A1A" stroke-width="1.2"/>
<circle cx="412" cy="395" r="55" fill="#FFFFFF" stroke="#1A1A1A" stroke-width="0.5"/>
<circle cx="412" cy="395" r="10" fill="#FFFFFF" stroke="#1A1A1A" stroke-width="0.8"/>
<!-- Tick marks -->
<line x1="412" y1="337" x2="412" y2="345" stroke="#1A1A1A" stroke-width="1"/>
<line x1="435" y1="340" x2="431" y2="348" stroke="#1A1A1A" stroke-width="0.7"/>
<line x1="455" y1="353" x2="449" y2="359" stroke="#1A1A1A" stroke-width="0.7"/>
<line x1="467" y1="374" x2="460" y2="377" stroke="#1A1A1A" stroke-width="0.7"/>
<line x1="469" y1="395" x2="461" y2="395" stroke="#1A1A1A" stroke-width="0.7"/>
<line x1="389" y1="340" x2="393" y2="348" stroke="#1A1A1A" stroke-width="0.7"/>
<line x1="369" y1="353" x2="375" y2="359" stroke="#1A1A1A" stroke-width="0.7"/>
<line x1="357" y1="374" x2="364" y2="377" stroke="#1A1A1A" stroke-width="0.7"/>
<line x1="355" y1="395" x2="363" y2="395" stroke="#1A1A1A" stroke-width="0.7"/>
<line x1="359" y1="418" x2="366" y2="415" stroke="#1A1A1A" stroke-width="0.7"/>
<line x1="467" y1="418" x2="460" y2="415" stroke="#1A1A1A" stroke-width="0.7"/>
<!-- Needle -->
<line x1="412" y1="395" x2="383" y2="362" stroke="#1A1A1A" stroke-width="1.2" stroke-linecap="round"/>
<!-- Battery indicator inside gauge -->
<rect x="400" y="412" width="24" height="9" rx="1.5" fill="none" stroke="#1A1A1A" stroke-width="0.6"/>
<line x1="424" y1="415" x2="428" y2="418" stroke="#1A1A1A" stroke-width="0.6"/>

<!-- RIGHT GAUGE (Speedometer) -->
<circle cx="600" cy="395" r="62" fill="#FFFFFF" stroke="#1A1A1A" stroke-width="1.2"/>
<circle cx="600" cy="395" r="55" fill="#FFFFFF" stroke="#1A1A1A" stroke-width="0.5"/>
<circle cx="600" cy="395" r="10" fill="#FFFFFF" stroke="#1A1A1A" stroke-width="0.8"/>
<!-- Tick marks -->
<line x1="600" y1="337" x2="600" y2="345" stroke="#1A1A1A" stroke-width="1"/>
<line x1="623" y1="340" x2="619" y2="348" stroke="#1A1A1A" stroke-width="0.7"/>
<line x1="643" y1="353" x2="637" y2="359" stroke="#1A1A1A" stroke-width="0.7"/>
<line x1="655" y1="374" x2="648" y2="377" stroke="#1A1A1A" stroke-width="0.7"/>
<line x1="657" y1="395" x2="649" y2="395" stroke="#1A1A1A" stroke-width="0.7"/>
<line x1="577" y1="340" x2="581" y2="348" stroke="#1A1A1A" stroke-width="0.7"/>
<line x1="557" y1="353" x2="563" y2="359" stroke="#1A1A1A" stroke-width="0.7"/>
<line x1="545" y1="374" x2="552" y2="377" stroke="#1A1A1A" stroke-width="0.7"/>
<line x1="543" y1="395" x2="551" y2="395" stroke="#1A1A1A" stroke-width="0.7"/>
<line x1="547" y1="418" x2="554" y2="415" stroke="#1A1A1A" stroke-width="0.7"/>
<line x1="655" y1="418" x2="648" y2="415" stroke="#1A1A1A" stroke-width="0.7"/>
<!-- Speed labels -->
<text x="648" y="376" font-family="Arial, sans-serif" font-size="6" fill="#1A1A1A" text-anchor="middle">40</text>
<text x="658" y="397" font-family="Arial, sans-serif" font-size="6" fill="#1A1A1A" text-anchor="middle">60</text>
<text x="647" y="418" font-family="Arial, sans-serif" font-size="6" fill="#1A1A1A" text-anchor="middle">80</text>
<text x="627" y="435" font-family="Arial, sans-serif" font-size="6" fill="#1A1A1A" text-anchor="middle">100</text>
<text x="600" y="452" font-family="Arial, sans-serif" font-size="6" fill="#1A1A1A" text-anchor="middle">120</text>
<text x="573" y="435" font-family="Arial, sans-serif" font-size="6" fill="#1A1A1A" text-anchor="middle">140</text>
<text x="553" y="418" font-family="Arial, sans-serif" font-size="6" fill="#1A1A1A" text-anchor="middle">160</text>
<!-- Needle pointing ~36 mph -->
<line x1="600" y1="395" x2="573" y2="357" stroke="#1A1A1A" stroke-width="1.2" stroke-linecap="round"/>

<!-- CENTER DIGITAL DISPLAY -->
<rect x="448" y="330" width="112" height="82" rx="2" fill="#FFFFFF" stroke="#1A1A1A" stroke-width="0.9"/>
<!-- Speedo icon line -->
<path d="M455,345 L462,340 L466,345" fill="none" stroke="#1A1A1A" stroke-width="0.6" stroke-linecap="round"/>
<text x="472" y="346" font-family="Arial, sans-serif" font-size="7" fill="#1A1A1A">11:00</text>
<text x="453" y="368" font-family="Arial, sans-serif" font-size="20" fill="#1A1A1A" font-weight="600">36</text>
<text x="477" y="378" font-family="Arial, sans-serif" font-size="6" fill="#1A1A1A">MPH</text>
<text x="496" y="398" font-family="Arial, sans-serif" font-size="11" fill="#1A1A1A">D</text>
<line x1="452" y1="406" x2="556" y2="406" stroke="#1A1A1A" stroke-width="0.4"/>

<!-- STEERING WHEEL -->
<circle cx="492" cy="425" r="86" fill="#FFFFFF" stroke="#1A1A1A" stroke-width="2.8"/>
<circle cx="492" cy="425" r="78" fill="#FFFFFF" stroke="#1A1A1A" stroke-width="0.7"/>
<circle cx="492" cy="425" r="24" fill="#FFFFFF" stroke="#1A1A1A" stroke-width="1.3"/>
<circle cx="492" cy="425" r="18" fill="#FFFFFF" stroke="#1A1A1A" stroke-width="0.6"/>
<!-- Top spoke -->
<path d="M484,401 L484,339 L500,339 L500,401" fill="#FFFFFF" stroke="#1A1A1A" stroke-width="1" stroke-linejoin="round"/>
<!-- Bottom-left spoke -->
<path d="M475,440 L428,497 L442,500 L492,449" fill="#FFFFFF" stroke="#1A1A1A" stroke-width="1" stroke-linejoin="round"/>
<!-- Bottom-right spoke -->
<path d="M509,440 L556,497 L542,500 L492,449" fill="#FFFFFF" stroke="#1A1A1A" stroke-width="1" stroke-linejoin="round"/>
<!-- Paddle shifters -->
<path d="M406,415 L390,406 L385,420 L385,436 L392,442 L408,436 Z" fill="#FFFFFF" stroke="#1A1A1A" stroke-width="1.1" stroke-linejoin="round"/>
<path d="M578,415 L594,406 L599,420 L599,436 L592,442 L576,436 Z" fill="#FFFFFF" stroke="#1A1A1A" stroke-width="1.1" stroke-linejoin="round"/>

<!-- LEFT TABLET (May Mobility Engineer App) -->
<rect x="78" y="330" width="152" height="168" rx="7" fill="#FFFFFF" stroke="#1A1A1A" stroke-width="1.4" stroke-linejoin="round"/>
<rect x="88" y="340" width="134" height="150" rx="3" fill="#FFFFFF" stroke="#1A1A1A" stroke-width="0.6"/>
<!-- Left icon strip divider -->
<line x1="100" y1="340" x2="100" y2="490" stroke="#1A1A1A" stroke-width="0.5"/>
<!-- Icons on left strip -->
<circle cx="94" cy="358" r="3.5" fill="none" stroke="#1A1A1A" stroke-width="0.6"/>
<path d="M92,372 L94,367 L96,372 Z" fill="none" stroke="#1A1A1A" stroke-width="0.6" stroke-linejoin="round"/>
<rect x="91" y="382" width="6" height="6" rx="1" fill="none" stroke="#1A1A1A" stroke-width="0.5"/>
<path d="M91,394 L97,400 L91,406 L85,400 Z" fill="none" stroke="#1A1A1A" stroke-width="0.5" stroke-linejoin="round"/>
<path d="M91,412 L97,418 M91,418 L97,412" fill="none" stroke="#1A1A1A" stroke-width="0.5" stroke-linecap="round"/>
<!-- MAY logo circle -->
<circle cx="130" cy="366" r="15" fill="#FFFFFF" stroke="#1A1A1A" stroke-width="0.9"/>
<circle cx="130" cy="366" r="11" fill="#FFFFFF" stroke="#1A1A1A" stroke-width="0.5"/>
<text x="124" y="371" font-family="Arial, sans-serif" font-size="10" fill="#1A1A1A" font-weight="700">M</text>
<!-- MAY Mobility text -->
<text x="150" y="362" font-family="Arial, sans-serif" font-size="8" fill="#1A1A1A" font-weight="700">MAY</text>
<text x="148" y="373" font-family="Arial, sans-serif" font-size="7.5" fill="#1A1A1A">Mobility</text>
<!-- Divider -->
<line x1="104" y1="388" x2="222" y2="388" stroke="#1A1A1A" stroke-width="0.5"/>
<!-- AUTONOMOUS pill -->
<rect x="112" y="432" width="96" height="20" rx="10" fill="#FFFFFF" stroke="#1A1A1A" stroke-width="1.1"/>
<text x="160" y="446" font-family="Arial, sans-serif" font-size="7" fill="#1A1A1A" text-anchor="middle" letter-spacing="0.5">AUTONOMOUS</text>

<!-- Left wireless charger pad -->
<ellipse cx="154" cy="496" rx="68" ry="8" fill="#FFFFFF" stroke="#1A1A1A" stroke-width="1.1"/>
<ellipse cx="154" cy="494" rx="58" ry="6.5" fill="#FFFFFF" stroke="#1A1A1A" stroke-width="0.6"/>
<ellipse cx="154" cy="492" rx="46" ry="5" fill="#FFFFFF" stroke="#1A1A1A" stroke-width="0.5"/>
<ellipse cx="154" cy="490" rx="32" ry="3.5" fill="#FFFFFF" stroke="#1A1A1A" stroke-width="0.4"/>

<!-- RIGHT NAVIGATION SCREEN -->
<rect x="798" y="326" width="186" height="168" rx="6" fill="#FFFFFF" stroke="#1A1A1A" stroke-width="1.4" stroke-linejoin="round"/>
<rect x="808" y="336" width="168" height="150" rx="2" fill="#FFFFFF" stroke="#1A1A1A" stroke-width="0.6"/>
<!-- Menu items -->
<text x="826" y="362" font-family="Arial, sans-serif" font-size="9" fill="#1A1A1A" letter-spacing="0.3">HOME</text>
<line x1="818" y1="368" x2="970" y2="368" stroke="#1A1A1A" stroke-width="0.35"/>
<text x="826" y="385" font-family="Arial, sans-serif" font-size="9" fill="#1A1A1A" letter-spacing="0.3">MEDIA</text>
<line x1="818" y1="391" x2="970" y2="391" stroke="#1A1A1A" stroke-width="0.35"/>
<text x="826" y="408" font-family="Arial, sans-serif" font-size="9" fill="#1A1A1A" letter-spacing="0.3">PHONE</text>
<line x1="818" y1="414" x2="970" y2="414" stroke="#1A1A1A" stroke-width="0.35"/>
<text x="826" y="431" font-family="Arial, sans-serif" font-size="9" fill="#1A1A1A" letter-spacing="0.3">NAV</text>
<line x1="818" y1="437" x2="970" y2="437" stroke="#1A1A1A" stroke-width="0.35"/>
<text x="826" y="454" font-family="Arial, sans-serif" font-size="9" fill="#1A1A1A" letter-spacing="0.3">DRIVE MODES</text>
<line x1="818" y1="460" x2="970" y2="460" stroke="#1A1A1A" stroke-width="0.35"/>
<!-- Controls / sliders -->
<rect x="826" y="464" width="60" height="5" rx="2.5" fill="#FFFFFF" stroke="#1A1A1A" stroke-width="0.6"/>
<rect x="826" y="474" width="85" height="5" rx="2.5" fill="#FFFFFF" stroke="#1A1A1A" stroke-width="0.6"/>
<rect x="826" y="484" width="70" height="5" rx="2.5" fill="#FFFFFF" stroke="#1A1A1A" stroke-width="0.6"/>

<!-- Right wireless charger pad -->
<ellipse cx="891" cy="496" rx="68" ry="8" fill="#FFFFFF" stroke="#1A1A1A" stroke-width="1.1"/>
<ellipse cx="891" cy="494" rx="58" ry="6.5" fill="#FFFFFF" stroke="#1A1A1A" stroke-width="0.6"/>
<ellipse cx="891" cy="492" rx="46" ry="5" fill="#FFFFFF" stroke="#1A1A1A" stroke-width="0.5"/>
<ellipse cx="891" cy="490" rx="32" ry="3.5" fill="#FFFFFF" stroke="#1A1A1A" stroke-width="0.4"/>

</svg>
