<svg width="1012" height="500" viewBox="0 0 1012 500" fill="none" xmlns="http://www.w3.org/2000/svg">
<g clip-path="url(#clip0_2044_19310)">
<g clip-path="url(#clip1_2044_19310)">
<path d="M1012 0H0V500H1012V0Z" fill="#151518"/>
<path d="M1022.1 -1457.4V-1455.3L1021.4 -1446.6L1021.7 -1431.6V-1408.9L1020.7 -1341.6L1020.3 -1312.3L1018.9 -1194L1018.2 -1144.1L1017.9 -1107.2L1017.2 -1054.8L1016.9 -1032.2L1016.5 -1011.2L1015.8 -935.9L1014.8 -869.6L1012.3 -656.8L1012 -637L1011.6 -612.5L1010.9 -544.9L1009.9 -452.1L1007.4 -258.1L1007.1 -234.8L1006.7 -213.1L1006.4 -187.7L1005 -69.4L1003.9 22.7L1003.6 35.2L1003.2 60.7" stroke="#0D0B08" stroke-width="12" stroke-linecap="round" stroke-linejoin="round"/>
<path d="M1004.6 -28.6L1003.9 22.7L1003.6 35.2L1002.9 102.5L1002.2 163.9L1001.5 226L1001.2 231.6V245.2L1000.8 253.2V271L998.4 448.9L998 479.2V493.2L997.7 512L995.6 565.4L994.5 573.8L990 587.7" stroke="#0D0B08" stroke-width="12" stroke-linecap="round" stroke-linejoin="round"/>
<path d="M520.5 60.7L520.8 43.9V27.5L521.2 15L521.9 -56.5L524 -217.7L524.7 -241.1L524.3 -265.1L525.7 -356.5" stroke="#0D0B08" stroke-width="10" stroke-linecap="round" stroke-linejoin="round"/>
<path d="M122.1 60.7L125.3 42.2L133 -216.3V-226.8L133.7 -245.9" stroke="#0D0B08" stroke-width="10" stroke-linecap="round" stroke-linejoin="round"/>
<path d="M65.2998 202.6L78.1998 211.4L99.0998 224.3L138.2 238.2L176.9 244.8L493.6 250.8L509 251.1H519.4L539.3 250.8L599.3 251.1" stroke="#0D0B08" stroke-width="10" stroke-linecap="round" stroke-linejoin="round"/>
<path d="M436.1 583.9L457 556.3L494.7 505.1L505.8 482.4L512.5 461.1L516 438.8L516.7 433.9L517 413.7L519.4 264V243.1L519.1 232.3L520.5 71.1L520.8 43.9V27.5L521.2 15L521.5 -28.6" stroke="#0D0B08" stroke-width="10" stroke-linecap="round" stroke-linejoin="round"/>
<path d="M65.2999 202.6L56.5999 223.6L42.9999 254.6L41.5999 257.8L-16.0001 386.1L-21.9001 398.7L-83.3001 535.8L-94.5001 561.2L-104.6 583.5" stroke="#0D0B08" stroke-width="10" stroke-linecap="round" stroke-linejoin="round"/>
<path d="M-102.5 37L-79.1 60.7L-50.2 94.2L-35.2 108.5L-20.9 122.1L-9.4 133.6L36 175.4L41.2 180.3L56.2 195L65.3 202.6" stroke="#0D0B08" stroke-width="10" stroke-linecap="round" stroke-linejoin="round"/>
<path d="M907.7 252.5L975 253.2H1000.8" stroke="#0D0B08" stroke-width="10" stroke-linecap="round" stroke-linejoin="round"/>
<path d="M1000.8 253.2L1026.6 253.6L1215.7 254.3H1504.8L1525.1 254.6L1546 255L1587.5 255.7L1914.4 259.1L2021.4 260.2H2028.1" stroke="#0D0B08" stroke-width="10" stroke-linecap="round" stroke-linejoin="round"/>
<path d="M510 251.1H519.4L539.3 250.8L907.7 252.5" stroke="#0D0B08" stroke-width="10" stroke-linecap="round" stroke-linejoin="round"/>
<path d="M125.3 42.2H140.6L331.8 42.9L497.5 43.9H520.8" stroke="#0D0B08" stroke-width="7" stroke-linecap="round" stroke-linejoin="round"/>
<path d="M132.6 582.8L132.3 560.5L137.8 262.3L138.2 238.2" stroke="#0D0B08" stroke-width="7" stroke-linecap="round" stroke-linejoin="round"/>
<path d="M521.2 15L541.4 15.3H555.7" stroke="#0D0B08" stroke-width="5" stroke-linecap="round" stroke-linejoin="round"/>
<path d="M557.1 1L555.7 15.3L555.4 28.9" stroke="#0D0B08" stroke-width="5" stroke-linecap="round" stroke-linejoin="round"/>
<path d="M753.1 4.5L557.1 1" stroke="#0D0B08" stroke-width="5" stroke-linecap="round" stroke-linejoin="round"/>
<path d="M555.4 28.9L752.4 29.6" stroke="#0D0B08" stroke-width="5" stroke-linecap="round" stroke-linejoin="round"/>
<path d="M752.4 29.6L753.1 4.5" stroke="#0D0B08" stroke-width="5" stroke-linecap="round" stroke-linejoin="round"/>
<path d="M753.1 4.49998L752.8 -56.9L617.8 -55.8" stroke="#0D0B08" stroke-width="5" stroke-linecap="round" stroke-linejoin="round"/>
<path d="M557.1 1L555.7 15.3L555.4 28.9" stroke="#0D0B08" stroke-width="5" stroke-linecap="round" stroke-linejoin="round"/>
<path d="M521.2 15L541.4 15.3H555.7" stroke="#0D0B08" stroke-width="5" stroke-linecap="round" stroke-linejoin="round"/>
<path d="M516 438.8L535.8 439.1L599.3 440.5" stroke="#0D0B08" stroke-width="5" stroke-linecap="round" stroke-linejoin="round"/>
<path d="M1003.6 35.2001L1029.1 35.6L1089.1 36.6L1136.1 37.3L1148.4 36.6L1152.5 31L1145.2 23.3L1135.4 22.7001L1076.1 21.3H1072L1040.9 22.7001H1003.9" stroke="#0D0B08" stroke-width="5" stroke-linecap="round" stroke-linejoin="round"/>
<path d="M753.1 4.5L557.1 1" stroke="#0D0B08" stroke-width="5" stroke-linecap="round" stroke-linejoin="round"/>
<path d="M555.4 28.9L752.4 29.6" stroke="#0D0B08" stroke-width="5" stroke-linecap="round" stroke-linejoin="round"/>
<path d="M866.2 482.4H822.6L821.9 533.3L941.9 536.1L948.5 525.6L948.8 484.1L884.7 482.7" stroke="#0D0B08" stroke-width="5" stroke-linecap="round" stroke-linejoin="round"/>
<path d="M752.4 29.6L753.1 4.5" stroke="#0D0B08" stroke-width="5" stroke-linecap="round" stroke-linejoin="round"/>
<path d="M884.7 482.7L885 446.5" stroke="#0D0B08" stroke-width="5" stroke-linecap="round" stroke-linejoin="round"/>
<path d="M867.6 446.1L866.2 482.4" stroke="#0D0B08" stroke-width="5" stroke-linecap="round" stroke-linejoin="round"/>
<path d="M753.1 4.50002L752.8 -28.6" stroke="#0D0B08" stroke-width="5" stroke-linecap="round" stroke-linejoin="round"/>
<path d="M806.5 114L890.2 114.4" stroke="#0D0B08" stroke-width="5" stroke-linecap="round" stroke-linejoin="round"/>
<path d="M884.7 482.7L866.2 482.4" stroke="#0D0B08" stroke-width="5" stroke-linecap="round" stroke-linejoin="round"/>
<path d="M956.5 126.2L890.2 125.9" stroke="#0D0B08" stroke-width="5" stroke-linecap="round" stroke-linejoin="round"/>
<path d="M521.2 15L541.4 15.3H555.7" stroke="#0D0B08" stroke-width="5" stroke-linecap="round" stroke-linejoin="round"/>
<path d="M557.1 1L555.7 15.3L555.4 28.9" stroke="#0D0B08" stroke-width="5" stroke-linecap="round" stroke-linejoin="round"/>
<path d="M890.2 114.4V125.9L889.2 186.9L881.9 190.4" stroke="#0D0B08" stroke-width="5" stroke-linecap="round" stroke-linejoin="round"/>
<path d="M768.5 190.1L881.9 190.4" stroke="#0D0B08" stroke-width="5" stroke-linecap="round" stroke-linejoin="round"/>
<path d="M773 113.7L806.5 114" stroke="#0D0B08" stroke-width="5" stroke-linecap="round" stroke-linejoin="round"/>
<path d="M998 479.2H1033.6" stroke="#0D0B08" stroke-width="5" stroke-linecap="round" stroke-linejoin="round"/>
<path d="M889.2 186.9L931.4 184.9L937.3 171.2" stroke="#0D0B08" stroke-width="5" stroke-linecap="round" stroke-linejoin="round"/>
<path d="M890.2 114.4L902.1 105L926.5 99.4L937 104.3" stroke="#0D0B08" stroke-width="5" stroke-linecap="round" stroke-linejoin="round"/>
<path d="M1002.9 102.5L975.3 103.2L937 104.3" stroke="#0D0B08" stroke-width="5" stroke-linecap="round" stroke-linejoin="round"/>
<path d="M512.1 60.7V43.9L513.2 -56.5L514.6 -217.3L514.9 -241.4L515.3 -265.1L517.3 -413L512.5 -550.8" stroke="#504352" stroke-linecap="round" stroke-linejoin="round"/>
<path d="M541.4 60.7V15.3L543.5 -109.9L547.7 -218.4L570.7 -220.1L599.3 -219.8" stroke="#504352" stroke-linecap="round" stroke-linejoin="round"/>
<path d="M103.7 60.7L107.5 39.7L109.6 20.8999L111.7 -35.6L114.1 -88.6L117.6 -229.9L111 -230.6L57.6002 -232L51.3002 -232.3L47.5002 -229.9L-33.3998 -55.1L-48.7998 -22L-61.9998 8.99995L-63.7998 30.9999L-60.2998 47.0999L-52.2998 59.5999L-51.1998 60.7" stroke="#504352" stroke-linecap="round" stroke-linejoin="round"/>
<path d="M140.3 60.7L140.6 42.2L141.7 0.300034L143.8 -109.5L148.3 -223.6H221.9L378.9 -221.5L502 -216.6L498.5 -56.5L497.8 41.1" stroke="#504352" stroke-linecap="round" stroke-linejoin="round"/>
<path d="M497.5 49.9V60.7" stroke="#504352" stroke-linecap="round" stroke-linejoin="round"/>
<path d="M541.4 60.7V15.3L543.5 -109.9L547.7 -218.4L570.7 -220.1L678.5 -218.7L875.6 -215.6H885L979.5 -213.1V-187.3L978.8 -139.5L978.1 -69.8L976 60.7" stroke="#504352" stroke-linecap="round" stroke-linejoin="round"/>
<path d="M-103.9 583.5L-92.6999 575.5L-87.7999 571.3L-85.7999 567.2L-82.2999 559.5L60.7001 216.6L65.3001 202.6" stroke="#504352" stroke-linecap="round" stroke-linejoin="round"/>
<path d="M-116.1 129.4L-90.3001 118.6L-62.0001 121.7L-32.0001 136.4L3.1999 171.6L19.5999 190.8L25.1999 200.5" stroke="#504352" stroke-linecap="round" stroke-linejoin="round"/>
<path d="M-49.8 212.1L-50.5 223.9L-47.4 235.4L-41.1 245.9L-32 253.6L-21.2 258.5L-9.7 259.8L1.5 257.8L11.9 252.9L19.6 245.5" stroke="#504352" stroke-linecap="round" stroke-linejoin="round"/>
<path d="M498.2 -28.6L497.8 41.1" stroke="#504352" stroke-linecap="round" stroke-linejoin="round"/>
<path d="M-45.5998 -28.6L-48.7998 -22L-61.9998 9.00002L-63.7998 31L-60.2998 47.1L-52.2998 59.6L-44.5998 68.7L-34.0998 83.7L39.5002 149.6L61.4002 156.2L97.7002 81.3L103.7 60.7L107.5 39.7L109.6 20.9L111.3 -28.6" stroke="#504352" stroke-linecap="round" stroke-linejoin="round"/>
<path d="M25.2002 200.5L27.3002 211.7L29.0002 222.5L19.6002 245.5L10.9002 265.8L-11.7998 317.4L-46.6998 384.4L-51.8998 399.4L-96.1998 497L-123.1 566.1H-129.7L-167.4 566.8L-222.5 565.4H-274.5L-357.8 560.2" stroke="#504352" stroke-linecap="round" stroke-linejoin="round"/>
<path d="M131.6 261.6L129.1 260.2L128.1 258.5L127.7 250.4L127.4 248L125.3 245.5L72.6 222.2L-71.1 537.5L-71.5 539.2V541.3L-68 557" stroke="#504352" stroke-linecap="round" stroke-linejoin="round"/>
<path d="M89.3999 190.8L107.5 146.8L126.3 102.5L140.3 67.6L140.6 42.2L141.7 0.300024L142.4 -28.6" stroke="#504352" stroke-linecap="round" stroke-linejoin="round"/>
<path d="M539.7 231.9L541.4 48.1V15.3L542.1 -28.6" stroke="#504352" stroke-linecap="round" stroke-linejoin="round"/>
<path d="M497.5 49.9L494.7 232.3" stroke="#504352" stroke-linecap="round" stroke-linejoin="round"/>
<path d="M535.8 425.9L539 274.1V261.9" stroke="#504352" stroke-linecap="round" stroke-linejoin="round"/>
<path d="M492.2 267.2L491.9 402.9L490.8 432.9L484.6 460.8L471.7 490.8L453.9 520.1L424.2 559.1L147.3 562.6L142.4 562.3" stroke="#504352" stroke-linecap="round" stroke-linejoin="round"/>
<path d="M494.7 232.3L482.1 223.2L468.2 221.5L264.1 218.7H252.9L197.8 215.9L143.1 207.9L109.6 198.1L89.3999 190.8" stroke="#504352" stroke-linecap="round" stroke-linejoin="round"/>
<path d="M492.2 267.2L310.8 264.7L148 263" stroke="#504352" stroke-linecap="round" stroke-linejoin="round"/>
<path d="M599.3 563L509.3 561.6L502.3 558.1L491.2 553.2L492.2 543.4L497.8 535.1L506.2 522.9L521.5 501.2L533 483.1L534.8 476.1L535.1 468.1L535.5 451.3" stroke="#504352" stroke-linecap="round" stroke-linejoin="round"/>
<path d="M539 261.9L599.3 263.3" stroke="#504352" stroke-linecap="round" stroke-linejoin="round"/>
<path d="M599.3 228.5L539.7 231.9" stroke="#504352" stroke-linecap="round" stroke-linejoin="round"/>
<path d="M25.2002 200.5L49.6002 211.7L57.3002 215.2L60.7002 216.6L72.6002 222.2L78.2002 211.4L89.4002 190.8L77.5002 175.8L61.4002 156.2" stroke="#504352" stroke-linecap="round" stroke-linejoin="round"/>
<path d="M148 263L137.8 262.3L131.6 261.6" stroke="#504352" stroke-linecap="round" stroke-linejoin="round"/>
<path d="M61.4002 156.2L41.2002 180.3L25.2002 200.5" stroke="#504352" stroke-linecap="round" stroke-linejoin="round"/>
<path d="M497.8 41.1L497.5 43.9V49.9" stroke="#504352" stroke-linecap="round" stroke-linejoin="round"/>
<path d="M492.2 267.2L493.6 250.8L494 242.8L494.7 232.3H519.1L539.7 231.9V243.1L539.3 250.8L539 261.9L519.4 264L508.6 265.4L492.2 267.2Z" stroke="#504352" stroke-linecap="round" stroke-linejoin="round"/>
<path d="M535.5 451.3L535.8 439.1V425.9" stroke="#504352" stroke-linecap="round" stroke-linejoin="round"/>
<path d="M539 261.9L974.6 271" stroke="#504352" stroke-linecap="round" stroke-linejoin="round"/>
<path d="M974.6 271L973.9 277.6L969.8 448.2L969.1 503.7L967 522.5L961 538.2L952 551.1L941.2 562.6L928.9 565.1L913.6 567.8H891.6L510 561.6" stroke="#504352" stroke-linecap="round" stroke-linejoin="round"/>
<path d="M977.4 -28.6L975.3 103.2L973.2 162.9L970.5 183.1L963.5 198.1L956.2 209.3L943.3 218.7L927.2 225L911.5 227.4H898.3L819.1 226.4L675 224.3L539.7 231.9" stroke="#504352" stroke-linecap="round" stroke-linejoin="round"/>
<path d="M510 517.3L521.5 501.2L533 483.1L534.8 476.1L535.1 468.1L535.5 451.3" stroke="#504352" stroke-linecap="round" stroke-linejoin="round"/>
<path d="M535.8 425.9L539 274.1V261.9" stroke="#504352" stroke-linecap="round" stroke-linejoin="round"/>
<path d="M539.7 231.9L541.4 48.1V15.3L542.1 -28.6" stroke="#504352" stroke-linecap="round" stroke-linejoin="round"/>
<path d="M973.9 225L969.1 221.1" stroke="#504352" stroke-linecap="round" stroke-linejoin="round"/>
<path d="M974.6 271H1026.3" stroke="#504352" stroke-linecap="round" stroke-linejoin="round"/>
<path d="M973.9 225L975.3 245.2L975 253.2L974.6 271" stroke="#504352" stroke-linecap="round" stroke-linejoin="round"/>
<path d="M969.1 221.1L964.5 216.9L960.3 213.5L956.2 209.3" stroke="#504352" stroke-linecap="round" stroke-linejoin="round"/>
<path d="M1028 227.8L1001.5 226L973.9 225" stroke="#504352" stroke-linecap="round" stroke-linejoin="round"/>
<path d="M535.5 451.3L535.8 439.1V425.9" stroke="#504352" stroke-linecap="round" stroke-linejoin="round"/>
<path d="M510 232.3H519.1L539.7 231.9V243.1L539.3 250.8L539 261.9L519.4 264L510 265.1" stroke="#504352" stroke-linecap="round" stroke-linejoin="round"/>
<path d="M521.2 15L541.4 15.3H555.7" stroke="#504352" stroke-linecap="round" stroke-linejoin="round"/>
<path d="M557.1 1L555.7 15.3L555.4 28.9" stroke="#504352" stroke-linecap="round" stroke-linejoin="round"/>
<path d="M753.1 4.5L557.1 1" stroke="#504352" stroke-linecap="round" stroke-linejoin="round"/>
<path d="M555.4 28.9L752.4 29.6" stroke="#504352" stroke-linecap="round" stroke-linejoin="round"/>
<path d="M752.4 29.6L753.1 4.5" stroke="#504352" stroke-linecap="round" stroke-linejoin="round"/>
<path d="M753.1 4.49998L752.8 -56.9L617.8 -55.8" stroke="#504352" stroke-linecap="round" stroke-linejoin="round"/>
<path d="M557.1 1L555.7 15.3L555.4 28.9" stroke="#504352" stroke-linecap="round" stroke-linejoin="round"/>
<path d="M521.2 15L541.4 15.3H555.7" stroke="#504352" stroke-linecap="round" stroke-linejoin="round"/>
<path d="M516 438.8L535.8 439.1L599.3 440.5" stroke="#504352" stroke-linecap="round" stroke-linejoin="round"/>
<path d="M1003.6 35.2001L1029.1 35.6L1089.1 36.6L1136.1 37.3L1148.4 36.6L1152.5 31L1145.2 23.3L1135.4 22.7001L1076.1 21.3H1072L1040.9 22.7001H1003.9" stroke="#504352" stroke-linecap="round" stroke-linejoin="round"/>
<path d="M753.1 4.5L557.1 1" stroke="#504352" stroke-linecap="round" stroke-linejoin="round"/>
<path d="M555.4 28.9L752.4 29.6" stroke="#504352" stroke-linecap="round" stroke-linejoin="round"/>
<path d="M866.2 482.4H822.6L821.9 533.3L941.9 536.1L948.5 525.6L948.8 484.1L884.7 482.7" stroke="#504352" stroke-linecap="round" stroke-linejoin="round"/>
<path d="M752.4 29.6L753.1 4.5" stroke="#504352" stroke-linecap="round" stroke-linejoin="round"/>
<path d="M884.7 482.7L885 446.5" stroke="#504352" stroke-linecap="round" stroke-linejoin="round"/>
<path d="M867.6 446.1L866.2 482.4" stroke="#504352" stroke-linecap="round" stroke-linejoin="round"/>
<path d="M753.1 4.50002L752.8 -28.6" stroke="#504352" stroke-linecap="round" stroke-linejoin="round"/>
<path d="M806.5 114L890.2 114.4" stroke="#504352" stroke-linecap="round" stroke-linejoin="round"/>
<path d="M884.7 482.7L866.2 482.4" stroke="#504352" stroke-linecap="round" stroke-linejoin="round"/>
<path d="M956.5 126.2L890.2 125.9" stroke="#504352" stroke-linecap="round" stroke-linejoin="round"/>
<path d="M521.2 15L541.4 15.3H555.7" stroke="#504352" stroke-linecap="round" stroke-linejoin="round"/>
<path d="M557.1 1L555.7 15.3L555.4 28.9" stroke="#504352" stroke-linecap="round" stroke-linejoin="round"/>
<path d="M890.2 114.4V125.9L889.2 186.9L881.9 190.4" stroke="#504352" stroke-linecap="round" stroke-linejoin="round"/>
<path d="M768.5 190.1L881.9 190.4" stroke="#504352" stroke-linecap="round" stroke-linejoin="round"/>
<path d="M773 113.7L806.5 114" stroke="#504352" stroke-linecap="round" stroke-linejoin="round"/>
<path d="M998 479.2H1033.6" stroke="#504352" stroke-linecap="round" stroke-linejoin="round"/>
<path d="M889.2 186.9L931.4 184.9L937.3 171.2" stroke="#504352" stroke-linecap="round" stroke-linejoin="round"/>
<path d="M890.2 114.4L902.1 105L926.5 99.4L937 104.3" stroke="#504352" stroke-linecap="round" stroke-linejoin="round"/>
<path d="M1002.9 102.5L975.3 103.2L937 104.3" stroke="#504352" stroke-linecap="round" stroke-linejoin="round"/>
<path d="M125.3 42.2H140.6L331.8 42.9L497.5 43.9H520.8" stroke="#504352" stroke-linecap="round" stroke-linejoin="round"/>
<path d="M132.6 582.8L132.3 560.5L137.8 262.3L138.2 238.2" stroke="#504352" stroke-linecap="round" stroke-linejoin="round"/>
<path d="M520.5 60.7L520.8 43.9V27.5L521.2 15L521.9 -56.5L524 -217.7L524.7 -241.1L524.3 -265.1L525.7 -356.5" stroke="#303D39" stroke-width="7" stroke-linecap="round" stroke-linejoin="round"/>
<path d="M122.1 60.7L125.3 42.2L133 -216.3V-226.8L133.7 -245.9" stroke="#303D39" stroke-width="7" stroke-linecap="round" stroke-linejoin="round"/>
<path d="M65.2998 202.6L78.1998 211.4L99.0998 224.3L138.2 238.2L176.9 244.8L493.6 250.8L509 251.1H519.4L539.3 250.8L599.3 251.1" stroke="#303D39" stroke-width="7" stroke-linecap="round" stroke-linejoin="round"/>
<path d="M436.1 583.9L457 556.3L494.7 505.1L505.8 482.4L512.5 461.1L516 438.8L516.7 433.9L517 413.7L519.4 264V243.1L519.1 232.3L520.5 71.1L520.8 43.9V27.5L521.2 15L521.5 -28.6" stroke="#303D39" stroke-width="7" stroke-linecap="round" stroke-linejoin="round"/>
<path d="M65.2999 202.6L56.5999 223.6L42.9999 254.6L41.5999 257.8L-16.0001 386.1L-21.9001 398.7L-83.3001 535.8L-94.5001 561.2L-104.6 583.5" stroke="#303D39" stroke-width="7" stroke-linecap="round" stroke-linejoin="round"/>
<path d="M-102.5 37L-79.1 60.7L-50.2 94.2L-35.2 108.5L-20.9 122.1L-9.4 133.6L36 175.4L41.2 180.3L56.2 195L65.3 202.6" stroke="#303D39" stroke-width="7" stroke-linecap="round" stroke-linejoin="round"/>
<path d="M907.7 252.5L975 253.2H1000.8" stroke="#303D39" stroke-width="7" stroke-linecap="round" stroke-linejoin="round"/>
<path d="M1000.8 253.2L1026.6 253.6L1215.7 254.3H1504.8L1525.1 254.6L1546 255L1587.5 255.7L1914.4 259.1L2021.4 260.2H2028.1" stroke="#303D39" stroke-width="7" stroke-linecap="round" stroke-linejoin="round"/>
<path d="M510 251.1H519.4L539.3 250.8L907.7 252.5" stroke="#303D39" stroke-width="7" stroke-linecap="round" stroke-linejoin="round"/>
<path d="M1022.1 -1457.4V-1455.3L1021.4 -1446.6L1021.7 -1431.6V-1408.9L1020.7 -1341.6L1020.3 -1312.3L1018.9 -1194L1018.2 -1144.1L1017.9 -1107.2L1017.2 -1054.8L1016.9 -1032.2L1016.5 -1011.2L1015.8 -935.9L1014.8 -869.6L1012.3 -656.8L1012 -637L1011.6 -612.5L1010.9 -544.9L1009.9 -452.1L1007.4 -258.1L1007.1 -234.8L1006.7 -213.1L1006.4 -187.7L1005 -69.4L1003.9 22.7L1003.6 35.2L1003.2 60.7" stroke="#303D39" stroke-width="9" stroke-linecap="round" stroke-linejoin="round"/>
<path d="M1004.6 -28.6L1003.9 22.7L1003.6 35.2L1002.9 102.5L1002.2 163.9L1001.5 226L1001.2 231.6V245.2L1000.8 253.2V271L998.4 448.9L998 479.2V493.2L997.7 512L995.6 565.4L994.5 573.8L990 587.7" stroke="#303D39" stroke-width="9" stroke-linecap="round" stroke-linejoin="round"/>
<path d="M136.897 417.5L125.022 436.5H114.702L126.577 417.5H136.897ZM125.409 417.48L113.525 436.494L67.8892 435.519L79.7729 416.505L125.409 417.48ZM78.5972 416.5L66.7222 435.5H56.8013L68.6763 416.5H78.5972ZM67.8989 415.857L56.3921 434.268L55.6997 277.742L67.2065 259.33L67.8989 415.857Z" fill="#1B1E26" stroke="#29314E"/>
<path d="M14.0981 530.2L2.22314 549.2H-16.7974L-4.92236 530.2H14.0981ZM120.42 548.501L3.40576 549.194L15.2788 530.198L132.293 529.505L120.42 548.501ZM-5.70068 529.556L-17.2095 547.969L-17.6001 474.141L-6.09131 455.728L-5.70068 529.556ZM79.0073 453.543L67.6099 471.779L67.8911 466.856L79.2886 448.62L79.0073 453.543ZM79.397 446.561L67.8687 465.006L67.5015 445.24L79.0298 426.794L79.397 446.561ZM78.9995 424.956L67.4995 443.357V436.144L78.9995 417.745V424.956ZM136.897 417.5L125.022 436.5H114.702L126.577 417.5H136.897ZM78.5972 416.5L66.7222 435.5H56.8013L68.6763 416.5H78.5972ZM67.8989 415.857L56.3921 434.268L55.6997 277.742L67.2065 259.33L67.8989 415.857Z" fill="#1B1E26" stroke="#29314E"/>
<path d="M307.519 191.065L306.976 191.935L306.509 192.682L307.39 192.7L315.986 192.876L306.727 207.692L153.388 203.922L163.635 187.526L307.519 191.065ZM162.864 186.872L153.034 202.601L153.997 152.547L163.827 136.818L162.864 186.872ZM331.971 175.602L321.727 191.994L317.769 191.912L318.286 191.085L318.751 190.342L317.875 190.32L309.296 190.108L318.535 175.325L331.971 175.602ZM316.974 191.297L316.604 191.889L308.29 191.718L308.681 191.094L316.974 191.297ZM186.565 135.571L176.74 151.292L177.796 103.748L187.622 88.0274L186.565 135.571ZM187.276 86.6925L177.027 103.091L155.485 102.427L165.734 86.0284L187.276 86.6925ZM164.966 85.3692L155.146 101.08L156.496 48.9473L166.314 33.2384L164.966 85.3692Z" fill="#1B1E26" stroke="#29314E"/>
<path d="M740.621 219.2L551.003 219.598L560.126 204.999L749.746 204.601L740.621 219.2ZM559.352 204.353L550.635 218.299L553.396 78.2471L562.113 64.2998L559.352 204.353ZM873.22 180.502L833.907 180.891L843.028 166.297L882.341 165.909L873.22 180.502ZM842.25 165.655L833.5 179.654V178.043L842.25 164.043V165.655ZM841.854 162.789L832.724 177.396L741.795 176.31L750.924 161.703L841.854 162.789Z" fill="#1B1E26" stroke="#29314E"/>
<path d="M740.621 219.2L551.003 219.598L560.126 204.999L749.746 204.601L740.621 219.2ZM559.352 204.353L550.635 218.299L553.396 78.2471L562.113 64.2998L559.352 204.353Z" fill="#1B1E26" stroke="#29314E"/>
<path d="M750.134 543.46L742.426 555.794L579.29 552.019L586.998 539.685L750.134 543.46ZM586.227 539.032L578.931 550.706L580.597 456.747L587.893 445.073L586.227 539.032Z" fill="#1B1E26" stroke="#29314E"/>
<path d="M420.82 555.503L317.009 556.887L319.479 552.936L423.29 551.552L420.82 555.503ZM318.701 552.294L316.62 555.624L317.998 430.947L320.08 427.615L318.701 552.294ZM317.221 430.301L245.803 430.596L248.278 426.638L319.695 426.343L317.221 430.301ZM247.503 425.99L245.445 429.285L249.295 273.249L251.354 269.954L247.503 425.99Z" fill="#1B1E26" stroke="#29314E"/>
<path d="M818.118 421.347L816.025 424.695L739.694 423.612L741.786 420.264L818.118 421.347ZM740.829 419.908L738.647 423.4L730.082 417.751L732.264 414.259L740.829 419.908ZM584.72 419.102L544.107 419.491L546.191 416.157L586.804 415.768L584.72 419.102ZM596.866 414.689L586.199 418.624L588.045 415.67L598.712 411.735L596.866 414.689ZM545.413 415.515L543.7 418.256V376.843L545.413 374.102V415.515ZM731.368 413.806L729.195 417.283L718.343 413.053L720.516 409.576L731.368 413.806ZM675.818 411.247L673.724 414.595L648.393 414.213L650.486 410.864L675.818 411.247ZM609.07 410.484L598.372 414.168L600.242 411.174L610.939 407.492L609.07 410.484ZM649.716 410.21L648.063 412.854L648.294 406.152L649.948 403.506L649.716 410.21ZM719.55 409.235L717.383 412.701L706.861 409.224L709.028 405.757L719.55 409.235ZM621.289 407.953L610.442 410.175L612.422 407.006L623.27 404.783L621.289 407.953ZM708.001 405.513L705.856 408.944L688.709 405.646L690.855 402.215L708.001 405.513ZM635.595 405.544L622.612 407.722L624.616 404.515L637.599 402.337L635.595 405.544ZM689.71 402.16L687.624 405.5H675.203L677.29 402.16H689.71ZM649.611 402.16L647.523 405.5H636.802L638.89 402.16H649.611ZM545.416 372.21L543.743 374.887L546.095 275.35L547.768 272.672L545.416 372.21Z" fill="#1B1E26" stroke="#29314E"/>
<path d="M150.887 448.916L149.186 451.638L125.949 431.402L127.65 428.682L150.887 448.916ZM127.037 427.776L125.8 429.757V421.843L127.037 419.862V427.776Z" fill="#1B1E26" stroke="#29314E"/>
<path d="M312.835 555.02L311.223 557.6H150.201L151.813 555.02H312.835ZM151.037 554.376L149.8 556.356V441.043L151.037 439.062V554.376Z" fill="#1B1E26" stroke="#29314E"/>
<path d="M227.444 429.403L225.825 431.994L150.191 430.615L151.811 428.025L227.444 429.403ZM151.039 427.372L149.83 429.307L152.597 267.647L153.806 265.713L151.039 427.372Z" fill="#1B1E26" stroke="#29314E"/>
<path d="M799.649 101.116L798.227 103.392L772.188 102.722L773.609 100.447L799.649 101.116ZM772.84 99.7908L771.83 101.406L773.497 4.64723L774.506 3.03297L772.84 99.7908ZM959.745 87.5222L958.325 89.7947L799.69 86.7166L801.11 84.4451L959.745 87.5222Z" fill="#1B1E26" stroke="#29314E"/>
<path d="M962.075 424.174L961.123 425.698L817.197 424.706L818.15 423.181L962.075 424.174ZM817.378 422.53L816.848 423.38L820.596 280.249L821.126 279.399L817.378 422.53ZM863.39 278.412L863.039 278.973L863.484 274.968L863.835 274.406L863.39 278.412Z" fill="#1B1E26" stroke="#29314E"/>
<path d="M3.09717 547.8L2.22314 549.2H-16.7974L-15.9233 547.8H3.09717ZM120.42 548.501L3.40576 549.194L4.27783 547.798L121.294 547.105L120.42 548.501ZM-16.7007 547.156L-17.2095 547.969L-17.6001 474.141L-17.0913 473.328L-16.7007 547.156ZM68.0073 471.143L67.6099 471.778L67.8911 466.856L68.2886 466.219L68.0073 471.143ZM68.397 464.161L67.8687 465.006L67.5015 445.24L68.0298 444.394L68.397 464.161ZM67.9995 442.556L67.4995 443.357V436.144L67.9995 435.344V442.556Z" fill="#1B1E26" stroke="#29314E"/>
<path d="M496.003 37.7904L495.124 39.1957L149.195 35.4086L150.074 34.0033L496.003 37.7904ZM149.301 33.3529L148.822 34.1195L149.198 4.6459L149.677 3.8793L149.301 33.3529Z" fill="#1B1E26" stroke="#29314E"/>
<path d="M492.11 216.779L491.227 218.193L401.389 216.12L402.272 214.706L492.11 216.779ZM401.503 214.051L401.038 214.795L404.496 53.4469L404.961 52.7047L401.503 214.051Z" fill="#1B1E26" stroke="#29314E"/>
<path d="M554.198 487.1L553.322 488.5H545.501L546.376 487.1H554.198ZM545.601 486.454L545.115 487.231L545.397 455.645L545.883 454.868L545.601 486.454Z" fill="#1B1E26" stroke="#29314E"/>
<path d="M873.22 180.502L833.908 180.89L834.779 179.497L874.091 179.109L873.22 180.502ZM834 178.856L833.5 179.657V178.044L834 177.244V178.856ZM833.604 175.989L832.724 177.396L741.794 176.31L742.674 174.903L833.604 175.989ZM741.9 174.256L741.4 175.056V128.443L741.9 127.642V174.256Z" fill="#1B1E26" stroke="#29314E"/>
<path d="M695.815 65.0697L694.928 66.4896L655.982 65.1293L656.87 63.7094L695.815 65.0697ZM656.106 63.0443L655.693 63.7064L655.992 57.6547L656.405 56.9936L656.106 63.0443Z" fill="#1B1E26" stroke="#29314E"/>
<path d="M744.314 65.6723L743.428 67.0902L702.785 65.8266L703.671 64.4086L744.314 65.6723ZM702.904 63.7494L702.462 64.4545L702.695 57.6498L703.136 56.9437L702.904 63.7494Z" fill="#1B1E26" stroke="#29314E"/>
<path d="M67.998 464.8L67.123 466.2H31.7012L32.5771 464.8H67.998ZM31.7998 464.156L31.2998 464.957V445.243L31.7998 444.442V464.156Z" fill="#1B1E26" stroke="#29314E"/>
<path d="M137.4 257.3L137.8 401.7V417H126.3L79.4997 416H68.3997L67.6997 257.6L137.4 257.3Z" fill="#2E313C" stroke="#505F97" stroke-width="0.5"/>
<path d="M137.4 257.3L137.8 401.7V417H126.3V455.4H133.2V529L14.9999 529.7H-5.2001L-5.6001 454L79.4999 453.7L79.8999 446.7L79.4999 425.1V416H68.3999L67.6999 257.6L137.4 257.3Z" fill="#2E313C" stroke="#505F97" stroke-width="0.5"/>
<path d="M166.862 31.42L321.062 35.22L320.662 52.72L333.262 53.02H336.062L332.862 175.12L318.262 174.82L317.862 190.82L163.362 187.02L164.362 135.02L187.062 135.72L188.162 86.22L165.462 85.52L166.862 31.42Z" fill="#2E313C" stroke="#505F97" stroke-width="0.5"/>
<path d="M562.65 62.5L751.05 64.6L750.65 112.7L837.85 114.5V144.5L883.95 144.8L883.25 165.4L842.75 165.8V162.3L750.65 161.2V204.1L559.85 204.5L562.65 62.5Z" fill="#2E313C" stroke="#505F97" stroke-width="0.5"/>
<path d="M562.65 62.5L751.05 64.6L750.65 112.7V204.1L559.85 204.5L562.65 62.5Z" fill="#2E313C" stroke="#505F97" stroke-width="0.5"/>
<path d="M588.425 443.28L752.725 445.38L751.025 542.98L586.725 539.18L588.425 443.28Z" fill="#2E313C" stroke="#505F97" stroke-width="0.5"/>
<path d="M251.9 268.14L484.2 270.94L485.2 271.24H485.9L487 271.64L487.7 272.34L488.7 273.04L489.1 273.74L489.8 274.44L490.1 275.14L490.8 276.14V277.24L491.1 278.24L487.3 449.14L454.5 512.34L424.2 551.04L319.2 552.44L320.6 425.84L248 426.14L251.9 268.14Z" fill="#2E313C" stroke="#505F97" stroke-width="0.5"/>
<path d="M548.312 270.86L822.812 275.76L819.012 420.86L741.512 419.76L732.112 413.56L720.312 408.96L708.812 405.16L690.612 401.66H677.012L676.712 410.76L650.212 410.36L650.512 401.66H638.612L624.312 404.06L612.112 406.56L599.912 410.76L587.712 415.26L545.912 415.66V372.36L548.312 270.86Z" fill="#2E313C" stroke="#505F97" stroke-width="0.5"/>
<path d="M127.538 418.12L151.538 440.82V448.82L127.538 427.92V418.12Z" fill="#2E313C" stroke="#505F97" stroke-width="0.5"/>
<path d="M313.738 437.32V554.52H151.538V437.32H313.738Z" fill="#2E313C" stroke="#505F97" stroke-width="0.5"/>
<path d="M154.338 263.92L231.438 265.32L228.338 428.92L151.538 427.52L154.338 263.92Z" fill="#2E313C" stroke="#505F97" stroke-width="0.5"/>
<path d="M962.337 1.24L960.637 87.04L800.837 83.94L800.537 100.64L773.337 99.94L775.037 1.24H962.337Z" fill="#2E313C" stroke="#505F97" stroke-width="0.5"/>
<path d="M864.575 272.28L965.075 273.68L962.975 423.68L817.875 422.68L821.675 277.58L863.875 278.58L864.575 272.28Z" fill="#2E313C" stroke="#505F97" stroke-width="0.5"/>
<path d="M68.4999 433.6L115.3 434.6V473H122.2V546.6L3.9999 547.3H-16.2001L-16.6001 471.6L68.4999 471.3L68.8999 464.3L68.4999 442.7V433.6Z" fill="#2E313C" stroke="#505F97" stroke-width="0.5"/>
<path d="M497.2 2.1L496.9 37.3L149.8 33.5L150.2 2.1H497.2Z" fill="#2E313C" stroke="#505F97" stroke-width="0.5"/>
<path d="M405.5 50.9L496.5 52.7L493 216.3L402 214.2L405.5 50.9Z" fill="#2E313C" stroke="#505F97" stroke-width="0.5"/>
<path d="M555.5 453.1L555.1 486.6H546.1L546.4 453.1H555.5Z" fill="#2E313C" stroke="#505F97" stroke-width="0.5"/>
<path d="M742.4 125.9L829.6 127.7V157.7L875.7 158L875 178.6L834.5 179V175.5L742.4 174.4V125.9Z" fill="#2E313C" stroke="#505F97" stroke-width="0.5"/>
<path d="M657 55.1L697.1 56.5L696.7 64.6L656.6 63.2L657 55.1Z" fill="#2E313C" stroke="#505F97" stroke-width="0.5"/>
<path d="M703.7 55.1L745.6 56.9L745.2 65.2L703.4 63.9L703.7 55.1Z" fill="#2E313C" stroke="#505F97" stroke-width="0.5"/>
<path d="M68.4998 442.7L68.8998 464.3H32.2998V442.7H68.4998Z" fill="#2E313C" stroke="#505F97" stroke-width="0.5"/>
</g>
<path d="M-11.5002 126C-11.5002 126 55.5176 203.718 112.5 230.5C128.414 237.98 140.394 242.591 179 244.5C261.687 248.588 394.35 250 445.5 250C533.795 250 622.283 247.894 710.5 250C718.894 250.2 732 250 732 250" stroke="#3D5AFE" stroke-opacity="0.8" stroke-width="10"/>
<circle cx="519" cy="250" r="5" fill="#FFD336" stroke="black" stroke-width="2"/>
<circle cx="66" cy="201" r="5" fill="#FFD336" stroke="black" stroke-width="2"/>
<circle cx="157" cy="243" r="5" fill="#FFD336" stroke="black" stroke-width="2"/>
<circle cx="732" cy="250" r="22" fill="white" fill-opacity="0.24"/>
<mask id="mask0_2044_19310" style="mask-type:alpha" maskUnits="userSpaceOnUse" x="710" y="228" width="44" height="44">
<circle cx="732" cy="250" r="22" fill="white"/>
</mask>
<g mask="url(#mask0_2044_19310)">
<mask id="path-176-inside-1_2044_19310" fill="white">
<path d="M694.551 270.928C689.001 260.995 687.623 249.265 690.721 238.317L732 250L694.551 270.928Z"/>
</mask>
<path d="M694.551 270.928C689.001 260.995 687.623 249.265 690.721 238.317L732 250L694.551 270.928Z" stroke="white" stroke-width="1.2" mask="url(#path-176-inside-1_2044_19310)"/>
</g>
<mask id="path-177-inside-2_2044_19310" fill="white">
<path d="M769.552 229.257C775.053 239.217 776.373 250.954 773.221 261.886L732 250L769.552 229.257Z"/>
</mask>
<path d="M769.552 229.257C775.053 239.217 776.373 250.954 773.221 261.886L732 250L769.552 229.257Z" fill="white" fill-opacity="0.12" stroke="white" stroke-width="1.2" mask="url(#path-177-inside-2_2044_19310)"/>
<circle cx="732" cy="229" r="3" fill="#ECEFF1" stroke="black" stroke-width="2"/>
<path d="M776.295 244.5C776.295 247.446 778.682 249.833 781.628 249.833C784.574 249.833 786.961 247.446 786.961 244.5C786.961 241.554 784.574 239.167 781.628 239.167C778.682 239.167 776.295 241.554 776.295 244.5ZM732.275 250L732.386 250.994L781.739 245.494L781.628 244.5L781.517 243.506L732.164 249.006L732.275 250Z" fill="white"/>
<circle cx="732" cy="250" r="5" fill="#FFD336" stroke="black" stroke-width="2"/>
</g>
<defs>
<clipPath id="clip0_2044_19310">
<rect width="1012" height="500" fill="white"/>
</clipPath>
<clipPath id="clip1_2044_19310">
<rect width="1012" height="500" fill="white"/>
</clipPath>
</defs>
</svg>
