<svg width="1012" height="500" viewBox="0 0 1012 500" fill="none" xmlns="http://www.w3.org/2000/svg">
<g clip-path="url(#clip0_2002_7)">
<rect width="1012" height="500" fill="#D9D9D9"/>
<path d="M750.104 380.627C750.098 380.631 750.089 380.626 750.089 380.618V119.018C750.089 119.01 750.098 119.005 750.104 119.009C793.036 145.13 821.988 193.909 821.988 249.818C821.988 305.727 793.036 354.506 750.104 380.627Z" fill="#919391" fill-opacity="0.2"/>
<path d="M822.004 380.607C821.999 380.616 821.986 380.612 821.986 380.602V119.034C821.986 119.024 821.999 119.02 822.004 119.029C844.362 153.886 857.935 199.663 857.935 249.818C857.935 299.973 844.362 345.75 822.004 380.607Z" fill="#919391" fill-opacity="0.2"/>
<path d="M606.299 380.636C685.738 380.636 750.098 322.085 750.098 249.818C750.097 177.55 685.737 119 606.299 119H-5.99C-5.99552 119 -6 119.005 -6 119.01V380.626C-6 380.631 -5.99552 380.636 -5.99 380.636H606.299Z" fill="#919391" fill-opacity="0.2"/>
<path d="M606.299 118.3L608.165 118.311C680.219 119.14 739.62 167.958 749.389 231.37V119.018C749.389 118.499 749.921 118.166 750.378 118.364L750.468 118.411L751.477 119.03C788.562 142.016 815.06 181.902 821.286 228.616V119.034C821.286 118.388 822.089 118.077 822.514 118.546L822.594 118.65L823.639 120.298C845.452 155.065 858.636 200.327 858.636 249.818C858.636 300.095 845.03 346.006 822.594 380.985C822.199 381.601 821.286 381.289 821.286 380.602V271.019C815.004 318.156 788.081 358.34 750.468 381.225C749.995 381.512 749.389 381.173 749.389 380.618V268.264C739.537 332.224 679.192 381.336 606.299 381.336H-5.99023C-6.38328 381.336 -6.70013 381.017 -6.7002 380.626V119.01C-6.7 118.618 -6.38214 118.3 -5.99023 118.3H606.299Z" stroke="#505050" stroke-opacity="0.77" stroke-width="1.4"/>
<path d="M750.089 380.636V119C793.029 145.118 821.988 193.902 821.988 249.818C821.988 305.734 793.029 354.518 750.089 380.636Z" fill="#919391" fill-opacity="0.2"/>
<path d="M821.986 380.636V119C844.354 153.861 857.935 199.649 857.935 249.818C857.935 299.987 844.354 345.775 821.986 380.636Z" fill="#919391" fill-opacity="0.2"/>
<path d="M606.299 380.636C685.738 380.636 750.098 322.085 750.098 249.818C750.097 177.55 685.737 119 606.299 119H-6V380.636H606.299Z" fill="#919391" fill-opacity="0.2"/>
<rect x="-6" y="224" width="490" height="52" fill="#919A94"/>
<path d="M856.72 224C856.998 226.934 857.229 229.888 857.412 232.86C857.41 232.821 857.407 232.782 857.404 232.742C857.422 233.033 857.44 233.325 857.457 233.616C857.448 233.462 857.44 233.307 857.431 233.152C857.764 238.647 857.936 244.205 857.936 249.818C857.936 258.695 857.507 267.434 856.684 276H821.985V250.604C821.943 259.262 821.207 267.746 819.832 276H750.089V251.086C750 259.611 749.016 267.94 747.218 276H484V224H747.297C749.041 231.934 749.999 240.126 750.089 248.509V224H819.894C821.23 232.139 821.944 240.502 821.985 249.032V224H856.72Z" fill="#CDFFDC" fill-opacity="0.67"/>
<mask id="mask0_2002_7" style="mask-type:alpha" maskUnits="userSpaceOnUse" x="481" y="224" width="374" height="52">
<path d="M853.72 224C853.998 226.934 854.229 229.888 854.412 232.86C854.41 232.821 854.407 232.782 854.404 232.742C854.422 233.033 854.44 233.325 854.457 233.616C854.448 233.462 854.44 233.307 854.431 233.152C854.764 238.647 854.936 244.205 854.936 249.818C854.936 258.695 854.507 267.434 853.684 276H818.985V250.604C818.943 259.262 818.207 267.746 816.832 276H747.089V251.086C747 259.611 746.016 267.94 744.218 276H481V224H744.297C746.041 231.934 746.999 240.126 747.089 248.509V224H816.894C818.23 232.139 818.944 240.502 818.985 249.032V224H853.72Z" fill="#D1FDDF"/>
</mask>
<g mask="url(#mask0_2002_7)">
<path d="M436.141 200.5L436.141 225.261L448.521 212.88L436.141 200.5Z" fill="#D1FDDF"/>
<path d="M448.527 212.886V237.646L460.907 225.266L448.527 212.886Z" fill="#D1FDDF"/>
<path d="M473.271 237.63L473.271 262.391L485.652 250.011L473.271 237.63Z" fill="#D1FDDF"/>
<path d="M460.912 225.271L460.912 250.032L473.292 237.651L460.912 225.271Z" fill="#D1FDDF"/>
<path d="M423.761 212.88V237.641L436.142 225.26L423.761 212.88Z" fill="#D1FDDF"/>
<path d="M436.147 225.265L436.147 250.026L448.527 237.646L436.147 225.265Z" fill="#D1FDDF"/>
<path d="M460.892 250.01V274.771L473.272 262.391L460.892 250.01Z" fill="#D1FDDF"/>
<path d="M448.532 237.651V262.412L460.912 250.032L448.532 237.651Z" fill="#D1FDDF"/>
<path d="M411.379 225.262V250.023L423.76 237.642L411.379 225.262Z" fill="#D1FDDF"/>
<path d="M436.15 250.033V274.794L448.531 262.413L436.15 250.033Z" fill="#D1FDDF"/>
<path d="M423.765 237.647L423.765 262.408L436.145 250.028L423.765 237.647Z" fill="#D1FDDF"/>
<path d="M448.509 262.392V287.153L460.89 274.773L448.509 262.392Z" fill="#D1FDDF"/>
<path d="M399 237.641L399 262.402L411.38 250.022L399 237.641Z" fill="#D1FDDF"/>
<path d="M423.771 262.412L423.771 287.173L436.151 274.792L423.771 262.412Z" fill="#D1FDDF"/>
<path d="M411.385 250.027V274.787L423.766 262.407L411.385 250.027Z" fill="#D1FDDF"/>
<path d="M436.13 274.771L436.13 299.532L448.511 287.152L436.13 274.771Z" fill="#D1FDDF"/>
<path d="M523.141 200.5L523.141 225.261L535.521 212.88L523.141 200.5Z" fill="#D1FDDF"/>
<path d="M535.527 212.886V237.646L547.907 225.266L535.527 212.886Z" fill="#D1FDDF"/>
<path d="M560.271 237.63L560.271 262.391L572.652 250.011L560.271 237.63Z" fill="#D1FDDF"/>
<path d="M547.912 225.271L547.912 250.032L560.292 237.651L547.912 225.271Z" fill="#D1FDDF"/>
<path d="M510.761 212.88V237.641L523.142 225.26L510.761 212.88Z" fill="#D1FDDF"/>
<path d="M523.147 225.265L523.147 250.026L535.527 237.646L523.147 225.265Z" fill="#D1FDDF"/>
<path d="M547.892 250.01V274.771L560.272 262.391L547.892 250.01Z" fill="#D1FDDF"/>
<path d="M535.532 237.651V262.412L547.912 250.032L535.532 237.651Z" fill="#D1FDDF"/>
<path d="M498.379 225.262V250.023L510.76 237.642L498.379 225.262Z" fill="#D1FDDF"/>
<path d="M523.15 250.033V274.794L535.531 262.413L523.15 250.033Z" fill="#D1FDDF"/>
<path d="M510.765 237.647L510.765 262.408L523.145 250.028L510.765 237.647Z" fill="#D1FDDF"/>
<path d="M535.509 262.392V287.153L547.89 274.773L535.509 262.392Z" fill="#D1FDDF"/>
<path d="M486 237.641L486 262.402L498.38 250.022L486 237.641Z" fill="#D1FDDF"/>
<path d="M510.771 262.412L510.771 287.173L523.151 274.792L510.771 262.412Z" fill="#D1FDDF"/>
<path d="M498.385 250.027V274.787L510.766 262.407L498.385 250.027Z" fill="#D1FDDF"/>
<path d="M523.13 274.771L523.13 299.532L535.511 287.152L523.13 274.771Z" fill="#D1FDDF"/>
<path d="M610.141 200.5L610.141 225.261L622.521 212.88L610.141 200.5Z" fill="#D1FDDF"/>
<path d="M622.527 212.886V237.646L634.907 225.266L622.527 212.886Z" fill="#D1FDDF"/>
<path d="M647.271 237.63L647.271 262.391L659.652 250.011L647.271 237.63Z" fill="#D1FDDF"/>
<path d="M634.912 225.271L634.912 250.032L647.292 237.651L634.912 225.271Z" fill="#D1FDDF"/>
<path d="M597.761 212.88V237.641L610.142 225.26L597.761 212.88Z" fill="#D1FDDF"/>
<path d="M610.147 225.265L610.147 250.026L622.527 237.646L610.147 225.265Z" fill="#D1FDDF"/>
<path d="M634.892 250.01V274.771L647.272 262.391L634.892 250.01Z" fill="#D1FDDF"/>
<path d="M622.532 237.651V262.412L634.912 250.032L622.532 237.651Z" fill="#D1FDDF"/>
<path d="M585.379 225.262V250.023L597.76 237.642L585.379 225.262Z" fill="#D1FDDF"/>
<path d="M610.15 250.033V274.794L622.531 262.413L610.15 250.033Z" fill="#D1FDDF"/>
<path d="M597.765 237.647L597.765 262.408L610.145 250.028L597.765 237.647Z" fill="#D1FDDF"/>
<path d="M622.509 262.392V287.153L634.89 274.773L622.509 262.392Z" fill="#D1FDDF"/>
<path d="M573 237.641L573 262.402L585.38 250.022L573 237.641Z" fill="#D1FDDF"/>
<path d="M597.771 262.412L597.771 287.173L610.151 274.792L597.771 262.412Z" fill="#D1FDDF"/>
<path d="M585.385 250.027V274.787L597.766 262.407L585.385 250.027Z" fill="#D1FDDF"/>
<path d="M610.13 274.771L610.13 299.532L622.511 287.152L610.13 274.771Z" fill="#D1FDDF"/>
<path d="M697.29 197L697.29 223.503L709.72 210.252L697.29 197Z" fill="#D1FDDF"/>
<path d="M709.726 210.257V236.76L722.156 223.508L709.726 210.257Z" fill="#D1FDDF"/>
<path d="M734.57 236.743L734.57 263.246L747 249.994L734.57 236.743Z" fill="#D1FDDF"/>
<path d="M722.161 223.514L722.161 250.017L734.591 236.765L722.161 223.514Z" fill="#D1FDDF"/>
<path d="M684.861 210.251V236.754L697.291 223.502L684.861 210.251Z" fill="#D1FDDF"/>
<path d="M697.296 223.508L697.296 250.011L709.726 236.759L697.296 223.508Z" fill="#D1FDDF"/>
<path d="M722.14 249.994V276.497L734.571 263.245L722.14 249.994Z" fill="#D1FDDF"/>
<path d="M709.731 236.765V263.268L722.161 250.017L709.731 236.765Z" fill="#D1FDDF"/>
<path d="M672.429 223.504V250.007L684.859 236.756L672.429 223.504Z" fill="#D1FDDF"/>
<path d="M697.299 250.018V276.521L709.73 263.269L697.299 250.018Z" fill="#D1FDDF"/>
<path d="M684.864 236.761L684.864 263.264L697.294 250.013L684.864 236.761Z" fill="#D1FDDF"/>
<path d="M709.708 263.247V289.75L722.139 276.498L709.708 263.247Z" fill="#D1FDDF"/>
<path d="M660 236.754L660 263.257L672.43 250.006L660 236.754Z" fill="#D1FDDF"/>
<path d="M684.87 263.268L684.87 289.771L697.301 276.52L684.87 263.268Z" fill="#D1FDDF"/>
<path d="M672.435 250.011V276.514L684.865 263.263L672.435 250.011Z" fill="#D1FDDF"/>
<path d="M697.28 276.497L697.279 303L709.71 289.748L697.28 276.497Z" fill="#D1FDDF"/>
</g>
<path d="M584.466 295.979C584.22 295.946 583.852 295.671 583.792 295.475C583.727 295.261 583.736 295.219 584.168 293.947C584.375 293.331 584.57 292.749 584.605 292.646C584.635 292.544 584.691 292.385 584.726 292.297C584.76 292.208 584.885 291.845 585.006 291.486C585.128 291.131 585.244 290.796 585.266 290.74C585.313 290.609 585.551 289.934 585.681 289.551C585.737 289.388 585.78 289.244 585.772 289.239C585.733 289.197 567.026 289.221 566.849 289.263C565.907 289.491 562.773 289.44 561.386 289.174C561.031 289.104 555.801 289.057 555.585 289.123C554.405 289.468 550.576 289.458 549.392 289.104C548.644 288.88 527.132 288.713 524.085 288.908C523.394 288.95 522.218 289.006 521.47 289.034C520.723 289.062 519.681 289.104 519.158 289.127C516.967 289.23 509.014 289.323 504.635 289.295C497.724 289.258 496.445 289.179 492.447 288.563C490.852 288.321 487.654 287.724 486.439 287.449C486.227 287.398 485.942 287.338 485.812 287.314C485.57 287.268 484.853 287.1 484.148 286.932C483.936 286.881 483.681 286.82 483.586 286.797C483.491 286.774 483.025 286.648 482.549 286.517C482.074 286.382 481.611 286.256 481.52 286.233C481.369 286.196 481.045 286.093 480.129 285.795C477.017 284.797 475.184 283.791 474.341 282.626C473.611 281.619 472.898 279.918 472.241 277.611C471.895 276.413 471.679 275.499 471.316 273.747C470.819 271.36 470.309 267.832 470.015 264.751C469.863 263.195 469.816 262.64 469.777 261.978C469.755 261.591 469.716 261.009 469.691 260.673C469.63 259.844 469.518 256.856 469.518 256.078V255.444L469.12 255.42C466.293 255.248 466.293 250.764 469.12 250.592L469.518 250.569V249.935C469.518 249.156 469.63 246.169 469.691 245.339C469.716 245.008 469.755 244.421 469.777 244.034C469.894 242.072 470.265 238.656 470.62 236.297C470.819 234.95 471.13 233.165 471.316 232.266C471.679 230.513 471.895 229.6 472.241 228.402C473.161 225.167 474.065 223.373 475.24 222.436C475.997 221.83 478.162 220.847 480.129 220.217C481.045 219.919 481.369 219.817 481.52 219.779C481.611 219.756 482.074 219.63 482.549 219.495C483.025 219.364 483.491 219.239 483.586 219.215C483.681 219.192 483.936 219.131 484.148 219.08C484.853 218.912 485.57 218.745 485.812 218.698C485.942 218.675 486.227 218.614 486.439 218.563C487.654 218.288 490.852 217.691 492.447 217.449C496.445 216.834 497.724 216.754 504.635 216.717C509.014 216.689 516.967 216.782 519.158 216.885C519.681 216.908 520.723 216.95 521.47 216.978C522.218 217.006 523.394 217.062 524.085 217.104C527.132 217.3 548.644 217.132 549.392 216.908C550.576 216.554 554.405 216.545 555.585 216.89C555.801 216.955 561.031 216.908 561.386 216.838C562.773 216.573 565.816 216.521 566.832 216.75C567.022 216.792 585.733 216.82 585.772 216.778C585.776 216.768 585.685 216.479 585.564 216.135C585.443 215.79 585.326 215.459 585.309 215.393C585.287 215.328 585.21 215.109 585.136 214.904C585.063 214.699 584.985 214.48 584.963 214.415C584.946 214.349 584.877 214.149 584.812 213.972C584.751 213.795 584.617 213.413 584.522 213.133C584.427 212.853 584.319 212.546 584.289 212.457C583.632 210.556 583.632 210.542 584.086 210.201C584.812 209.656 586.761 210.276 587.755 211.371C588.486 212.173 589.649 214.377 590.37 216.326L590.53 216.768L593.279 216.782L596.024 216.792L596.136 216.386C596.663 214.508 596.867 214.214 598.181 213.487C599.551 212.732 599.676 212.737 600.368 213.622C601.517 215.09 601.828 215.599 602.045 216.396L602.148 216.768L610.507 216.796C622.125 216.838 622.627 216.866 625.462 217.631C626.404 217.882 627.105 218.045 627.883 218.19C629.499 218.488 630.07 218.619 630.731 218.847C631.543 219.127 632.296 219.5 632.87 219.9C633.104 220.064 633.233 220.12 633.454 220.157C634.625 220.339 635.42 221.052 637.331 223.62C637.789 224.235 638.04 224.589 638.645 225.484C640.59 228.332 641.363 230.094 641.718 232.475C641.848 233.347 641.99 234.619 642.055 235.458C642.077 235.738 642.124 236.306 642.163 236.717C642.28 238.026 642.362 239.075 642.405 239.863C642.431 240.287 642.47 240.883 642.492 241.191C642.513 241.499 642.556 242.221 642.578 242.799C642.604 243.377 642.643 244.141 642.664 244.5C642.686 244.859 642.725 245.521 642.751 245.968C642.777 246.416 642.816 247.026 642.837 247.32C642.859 247.614 642.881 247.986 642.881 248.14C642.881 248.425 642.881 248.425 643.161 248.602C643.996 249.128 644 249.147 644 253.006C644 256.865 643.996 256.884 643.161 257.411C642.881 257.588 642.881 257.588 642.881 257.872C642.881 258.026 642.859 258.399 642.837 258.692C642.816 258.986 642.777 259.597 642.751 260.044C642.725 260.491 642.686 261.153 642.664 261.512C642.643 261.871 642.604 262.635 642.578 263.213C642.556 263.791 642.513 264.514 642.492 264.821C642.47 265.129 642.431 265.725 642.405 266.15C642.362 266.937 642.28 267.986 642.163 269.296C642.124 269.706 642.077 270.274 642.055 270.554C641.895 272.647 641.606 274.506 641.273 275.583C640.892 276.837 639.92 278.659 638.645 280.528C635.978 284.443 634.811 285.641 633.454 285.855C633.233 285.893 633.104 285.949 632.87 286.112C632.296 286.513 631.543 286.886 630.731 287.165C630.07 287.394 629.499 287.524 627.883 287.822C627.105 287.967 626.404 288.13 625.462 288.382C622.627 289.146 622.147 289.174 610.551 289.216L602.148 289.244L602.045 289.617C601.828 290.414 601.517 290.922 600.368 292.39C599.676 293.275 599.551 293.28 598.181 292.525C596.867 291.798 596.663 291.504 596.136 289.626L596.024 289.221L593.279 289.23L590.53 289.244L590.37 289.687C589.592 291.784 588.395 294.012 587.626 294.781C586.817 295.592 585.439 296.114 584.466 295.979Z" fill="#686C69"/>
<path d="M588.767 289.584C588.52 289.554 588.151 289.298 588.091 289.116C588.026 288.916 588.034 288.877 588.468 287.694C588.676 287.122 588.871 286.58 588.906 286.484C588.936 286.389 588.992 286.241 589.027 286.159C589.062 286.077 589.188 285.738 589.309 285.405C589.43 285.075 589.547 284.763 589.569 284.711C589.617 284.59 589.855 283.961 589.985 283.605C590.042 283.454 590.085 283.319 590.076 283.315C590.037 283.276 571.273 283.298 571.095 283.337C570.15 283.549 567.007 283.501 565.615 283.254C565.259 283.189 560.013 283.146 559.796 283.206C558.613 283.527 554.771 283.519 553.583 283.189C552.833 282.981 531.255 282.825 528.198 283.007C527.505 283.046 526.325 283.098 525.575 283.124C524.825 283.15 523.78 283.189 523.256 283.211C521.057 283.306 513.08 283.393 508.688 283.367C501.755 283.332 500.472 283.258 496.461 282.686C494.862 282.461 491.653 281.906 490.435 281.65C490.222 281.602 489.936 281.546 489.806 281.524C489.563 281.481 488.844 281.325 488.137 281.169C487.925 281.121 487.669 281.065 487.573 281.043C487.478 281.021 487.01 280.904 486.533 280.783C486.056 280.657 485.592 280.54 485.501 280.518C485.349 280.484 485.024 280.388 484.105 280.111C480.983 279.183 479.145 278.246 478.299 277.163C477.567 276.226 476.851 274.644 476.192 272.497C475.846 271.383 475.629 270.533 475.265 268.903C474.766 266.683 474.254 263.401 473.96 260.535C473.808 259.087 473.76 258.571 473.721 257.956C473.699 257.596 473.66 257.054 473.634 256.742C473.574 255.97 473.461 253.191 473.461 252.467V251.877L473.062 251.856C470.227 251.695 470.227 247.524 473.062 247.364L473.461 247.342V246.752C473.461 246.028 473.574 243.249 473.634 242.478C473.66 242.17 473.699 241.623 473.721 241.264C473.838 239.438 474.211 236.26 474.567 234.066C474.766 232.813 475.078 231.153 475.265 230.316C475.629 228.686 475.846 227.836 476.192 226.722C477.116 223.713 478.022 222.044 479.201 221.172C479.96 220.609 482.132 219.694 484.105 219.108C485.024 218.831 485.349 218.736 485.501 218.701C485.592 218.679 486.056 218.562 486.533 218.436C487.01 218.315 487.478 218.198 487.573 218.176C487.669 218.155 487.925 218.098 488.137 218.051C488.844 217.895 489.563 217.738 489.806 217.695C489.936 217.673 490.222 217.617 490.435 217.569C491.653 217.314 494.862 216.759 496.461 216.533C500.472 215.961 501.755 215.887 508.688 215.852C513.08 215.826 521.057 215.913 523.256 216.009C523.78 216.03 524.825 216.069 525.575 216.095C526.325 216.121 527.505 216.173 528.198 216.212C531.255 216.394 552.833 216.238 553.583 216.03C554.771 215.701 558.613 215.692 559.796 216.013C560.013 216.074 565.259 216.03 565.615 215.965C567.007 215.718 570.059 215.67 571.078 215.883C571.268 215.922 590.037 215.948 590.076 215.909C590.081 215.9 589.99 215.631 589.868 215.31C589.747 214.99 589.63 214.682 589.612 214.621C589.591 214.56 589.513 214.357 589.439 214.166C589.365 213.975 589.287 213.771 589.266 213.711C589.248 213.65 589.179 213.463 589.114 213.299C589.053 213.134 588.919 212.778 588.823 212.518C588.728 212.258 588.62 211.972 588.589 211.89C587.93 210.121 587.93 210.108 588.385 209.791C589.114 209.284 591.069 209.861 592.066 210.879C592.799 211.625 593.965 213.676 594.69 215.488L594.85 215.9L597.607 215.913L600.361 215.922L600.473 215.545C601.002 213.797 601.206 213.524 602.524 212.848C603.898 212.145 604.024 212.15 604.718 212.974C605.871 214.339 606.183 214.812 606.4 215.553L606.504 215.9L614.889 215.926C626.543 215.965 627.046 215.991 629.89 216.702C630.836 216.936 631.538 217.088 632.318 217.222C633.94 217.5 634.512 217.621 635.176 217.834C635.991 218.094 636.745 218.441 637.322 218.814C637.556 218.965 637.686 219.017 637.907 219.052C639.082 219.221 639.88 219.885 641.796 222.273C642.256 222.846 642.507 223.175 643.114 224.008C645.065 226.657 645.841 228.296 646.197 230.511C646.327 231.322 646.47 232.506 646.535 233.286C646.557 233.546 646.604 234.075 646.643 234.457C646.76 235.675 646.843 236.65 646.886 237.383C646.912 237.778 646.951 238.333 646.973 238.619C646.995 238.905 647.038 239.577 647.06 240.115C647.086 240.652 647.125 241.363 647.146 241.697C647.168 242.031 647.207 242.647 647.233 243.063C647.259 243.479 647.298 244.047 647.32 244.32C647.341 244.593 647.363 244.94 647.363 245.083C647.363 245.348 647.363 245.348 647.645 245.512C648.482 246.002 648.486 246.02 648.486 249.61C648.486 253.2 648.482 253.217 647.645 253.707C647.363 253.872 647.363 253.872 647.363 254.136C647.363 254.279 647.341 254.626 647.32 254.899C647.298 255.172 647.259 255.74 647.233 256.156C647.207 256.573 647.168 257.188 647.146 257.522C647.125 257.856 647.086 258.567 647.06 259.105C647.038 259.642 646.995 260.314 646.973 260.6C646.951 260.887 646.912 261.442 646.886 261.836C646.843 262.569 646.76 263.544 646.643 264.763C646.604 265.144 646.557 265.673 646.535 265.933C646.375 267.88 646.084 269.61 645.75 270.611C645.369 271.778 644.393 273.473 643.114 275.212C640.439 278.853 639.268 279.968 637.907 280.167C637.686 280.202 637.556 280.254 637.322 280.406C636.745 280.779 635.991 281.125 635.176 281.385C634.512 281.598 633.94 281.719 632.318 281.997C631.538 282.131 630.836 282.283 629.89 282.517C627.046 283.228 626.565 283.254 614.933 283.293L606.504 283.319L606.4 283.666C606.183 284.407 605.871 284.88 604.718 286.246C604.024 287.07 603.898 287.074 602.524 286.371C601.206 285.695 601.002 285.422 600.473 283.675L600.361 283.298L597.607 283.306L594.85 283.319L594.69 283.731C593.909 285.682 592.708 287.755 591.936 288.47C591.126 289.224 589.743 289.71 588.767 289.584Z" fill="#F5F1E8"/>
<mask id="mask1_2002_7" style="mask-type:luminance" maskUnits="userSpaceOnUse" x="470" y="209" width="179" height="81">
<path d="M588.767 289.584C588.52 289.554 588.151 289.298 588.091 289.116C588.026 288.916 588.034 288.877 588.468 287.694C588.676 287.122 588.871 286.58 588.906 286.484C588.936 286.389 588.992 286.241 589.027 286.159C589.062 286.077 589.188 285.738 589.309 285.405C589.43 285.075 589.547 284.763 589.569 284.711C589.617 284.59 589.855 283.961 589.985 283.605C590.042 283.454 590.085 283.319 590.076 283.315C590.037 283.276 571.273 283.298 571.095 283.337C570.15 283.549 567.007 283.501 565.615 283.254C565.259 283.189 560.013 283.146 559.796 283.206C558.613 283.527 554.771 283.519 553.583 283.189C552.833 282.981 531.255 282.825 528.198 283.007C527.505 283.046 526.325 283.098 525.575 283.124C524.825 283.15 523.78 283.189 523.256 283.211C521.057 283.306 513.08 283.393 508.688 283.367C501.755 283.332 500.472 283.258 496.461 282.686C494.862 282.461 491.653 281.906 490.435 281.65C490.222 281.602 489.936 281.546 489.806 281.524C489.563 281.481 488.844 281.325 488.137 281.169C487.925 281.121 487.669 281.065 487.573 281.043C487.478 281.021 487.01 280.904 486.533 280.783C486.056 280.657 485.592 280.54 485.501 280.518C485.349 280.484 485.024 280.388 484.105 280.111C480.983 279.183 479.145 278.246 478.299 277.163C477.567 276.226 476.851 274.644 476.192 272.497C475.846 271.383 475.629 270.533 475.265 268.903C474.766 266.683 474.254 263.401 473.96 260.535C473.808 259.087 473.76 258.571 473.721 257.956C473.699 257.596 473.66 257.054 473.634 256.742C473.574 255.97 473.461 253.191 473.461 252.467V251.877L473.062 251.856C470.227 251.695 470.227 247.524 473.062 247.364L473.461 247.342V246.752C473.461 246.028 473.574 243.249 473.634 242.478C473.66 242.17 473.699 241.623 473.721 241.264C473.838 239.438 474.211 236.26 474.567 234.066C474.766 232.813 475.078 231.153 475.265 230.316C475.629 228.686 475.846 227.836 476.192 226.722C477.116 223.713 478.022 222.044 479.201 221.172C479.96 220.609 482.132 219.694 484.105 219.108C485.024 218.831 485.349 218.736 485.501 218.701C485.592 218.679 486.056 218.562 486.533 218.436C487.01 218.315 487.478 218.198 487.573 218.176C487.669 218.155 487.925 218.098 488.137 218.051C488.844 217.895 489.563 217.738 489.806 217.695C489.936 217.673 490.222 217.617 490.435 217.569C491.653 217.314 494.862 216.759 496.461 216.533C500.472 215.961 501.755 215.887 508.688 215.852C513.08 215.826 521.057 215.913 523.256 216.009C523.78 216.03 524.825 216.069 525.575 216.095C526.325 216.121 527.505 216.173 528.198 216.212C531.255 216.394 552.833 216.238 553.583 216.03C554.771 215.701 558.613 215.692 559.796 216.013C560.013 216.074 565.259 216.03 565.615 215.965C567.007 215.718 570.059 215.67 571.078 215.883C571.268 215.922 590.037 215.948 590.076 215.909C590.081 215.9 589.99 215.631 589.868 215.31C589.747 214.99 589.63 214.682 589.612 214.621C589.591 214.56 589.513 214.357 589.439 214.166C589.365 213.975 589.287 213.771 589.266 213.711C589.248 213.65 589.179 213.463 589.114 213.299C589.053 213.134 588.919 212.778 588.823 212.518C588.728 212.258 588.62 211.972 588.589 211.89C587.93 210.121 587.93 210.108 588.385 209.791C589.114 209.284 591.069 209.861 592.066 210.879C592.799 211.625 593.965 213.676 594.69 215.488L594.85 215.9L597.607 215.913L600.361 215.922L600.473 215.545C601.002 213.797 601.206 213.524 602.524 212.848C603.898 212.145 604.024 212.15 604.718 212.974C605.871 214.339 606.183 214.812 606.4 215.553L606.504 215.9L614.889 215.926C626.543 215.965 627.046 215.991 629.89 216.702C630.836 216.936 631.538 217.088 632.318 217.222C633.94 217.5 634.512 217.621 635.176 217.834C635.991 218.094 636.745 218.441 637.322 218.814C637.556 218.965 637.686 219.017 637.907 219.052C639.082 219.221 639.88 219.885 641.796 222.273C642.256 222.846 642.507 223.175 643.114 224.008C645.065 226.657 645.841 228.296 646.197 230.511C646.327 231.322 646.47 232.506 646.535 233.286C646.557 233.546 646.604 234.075 646.643 234.457C646.76 235.675 646.843 236.65 646.886 237.383C646.912 237.778 646.951 238.333 646.973 238.619C646.995 238.905 647.038 239.577 647.06 240.115C647.086 240.652 647.125 241.363 647.146 241.697C647.168 242.031 647.207 242.647 647.233 243.063C647.259 243.479 647.298 244.047 647.32 244.32C647.341 244.593 647.363 244.94 647.363 245.083C647.363 245.348 647.363 245.348 647.645 245.512C648.482 246.002 648.486 246.02 648.486 249.61C648.486 253.2 648.482 253.217 647.645 253.707C647.363 253.872 647.363 253.872 647.363 254.136C647.363 254.279 647.341 254.626 647.32 254.899C647.298 255.172 647.259 255.74 647.233 256.156C647.207 256.573 647.168 257.188 647.146 257.522C647.125 257.856 647.086 258.567 647.06 259.105C647.038 259.642 646.995 260.314 646.973 260.6C646.951 260.887 646.912 261.442 646.886 261.836C646.843 262.569 646.76 263.544 646.643 264.763C646.604 265.144 646.557 265.673 646.535 265.933C646.375 267.88 646.084 269.61 645.75 270.611C645.369 271.778 644.393 273.473 643.114 275.212C640.439 278.853 639.268 279.968 637.907 280.167C637.686 280.202 637.556 280.254 637.322 280.406C636.745 280.779 635.991 281.125 635.176 281.385C634.512 281.598 633.94 281.719 632.318 281.997C631.538 282.131 630.836 282.283 629.89 282.517C627.046 283.228 626.565 283.254 614.933 283.293L606.504 283.319L606.4 283.666C606.183 284.407 605.871 284.88 604.718 286.246C604.024 287.07 603.898 287.074 602.524 286.371C601.206 285.695 601.002 285.422 600.473 283.675L600.361 283.298L597.607 283.306L594.85 283.319L594.69 283.731C593.909 285.682 592.708 287.755 591.936 288.47C591.126 289.224 589.743 289.71 588.767 289.584Z" fill="white"/>
</mask>
<g mask="url(#mask1_2002_7)">
<path fill-rule="evenodd" clip-rule="evenodd" d="M588.767 289.584C588.52 289.554 588.151 289.298 588.091 289.116C588.026 288.917 588.034 288.877 588.468 287.694C588.676 287.122 588.871 286.58 588.906 286.484C588.936 286.389 588.993 286.241 589.027 286.159C589.062 286.077 589.188 285.738 589.309 285.405C589.43 285.075 589.548 284.763 589.569 284.711C589.617 284.59 589.855 283.961 589.985 283.605C590.042 283.454 590.085 283.319 590.076 283.315C590.037 283.276 571.273 283.298 571.095 283.337C570.15 283.549 567.007 283.501 565.615 283.254C565.259 283.189 560.013 283.146 559.796 283.206C558.613 283.527 554.771 283.519 553.583 283.189C552.833 282.981 531.255 282.825 528.198 283.007C527.505 283.046 526.325 283.098 525.575 283.124C524.825 283.15 523.78 283.189 523.256 283.211C521.058 283.306 513.08 283.393 508.688 283.367C501.755 283.332 500.472 283.259 496.461 282.686C494.862 282.461 491.653 281.906 490.435 281.65C490.223 281.602 489.936 281.546 489.806 281.524C489.564 281.481 488.844 281.325 488.137 281.169C487.925 281.121 487.669 281.065 487.573 281.043C487.478 281.021 487.01 280.904 486.533 280.783C486.056 280.657 485.592 280.54 485.501 280.518C485.349 280.484 485.024 280.388 484.105 280.111C480.983 279.183 479.145 278.247 478.3 277.163C477.567 276.226 476.851 274.644 476.192 272.497C475.846 271.383 475.629 270.533 475.265 268.903C474.766 266.683 474.254 263.401 473.96 260.535C473.808 259.087 473.76 258.571 473.721 257.956C473.699 257.596 473.66 257.054 473.634 256.742C473.574 255.97 473.461 253.191 473.461 252.467V251.877L473.062 251.856C470.227 251.695 470.227 247.524 473.062 247.364L473.461 247.342V246.752C473.461 246.028 473.574 243.249 473.634 242.478C473.66 242.17 473.699 241.623 473.721 241.264C473.838 239.438 474.211 236.26 474.567 234.066C474.766 232.813 475.078 231.153 475.265 230.316C475.629 228.686 475.846 227.836 476.192 226.722C477.116 223.713 478.022 222.044 479.201 221.172C479.96 220.609 482.132 219.694 484.105 219.109C485.024 218.831 485.349 218.736 485.501 218.701C485.592 218.679 486.056 218.562 486.533 218.436C487.01 218.315 487.478 218.198 487.573 218.176C487.669 218.155 487.925 218.098 488.137 218.051C488.844 217.895 489.564 217.738 489.806 217.695C489.936 217.673 490.223 217.617 490.435 217.569C491.653 217.314 494.862 216.759 496.461 216.533C500.472 215.961 501.755 215.887 508.688 215.852C513.08 215.826 521.058 215.913 523.256 216.009C523.78 216.03 524.825 216.069 525.575 216.095C526.325 216.121 527.505 216.173 528.198 216.212C531.255 216.394 552.833 216.238 553.583 216.03C554.771 215.701 558.613 215.692 559.796 216.013C560.013 216.074 565.259 216.03 565.615 215.965C567.007 215.718 570.059 215.67 571.078 215.883C571.268 215.922 590.037 215.948 590.076 215.909C590.081 215.9 589.99 215.631 589.868 215.31C589.747 214.99 589.63 214.682 589.613 214.621C589.591 214.56 589.513 214.357 589.439 214.166C589.365 213.975 589.287 213.771 589.266 213.711C589.248 213.65 589.179 213.464 589.114 213.299C589.053 213.134 588.919 212.778 588.823 212.518C588.728 212.258 588.62 211.972 588.589 211.89C587.93 210.121 587.93 210.108 588.386 209.791C589.114 209.284 591.069 209.861 592.067 210.879C592.799 211.625 593.966 213.676 594.69 215.488L594.85 215.9L597.607 215.913L600.361 215.922L600.473 215.545C601.002 213.797 601.206 213.524 602.524 212.848C603.898 212.145 604.024 212.15 604.718 212.974C605.871 214.339 606.183 214.812 606.4 215.553L606.504 215.9L614.889 215.926C626.543 215.965 627.046 215.991 629.891 216.702C630.836 216.936 631.538 217.088 632.318 217.223C633.94 217.5 634.512 217.621 635.176 217.834C635.991 218.094 636.745 218.441 637.322 218.814C637.556 218.965 637.686 219.017 637.907 219.052C639.082 219.221 639.88 219.885 641.796 222.274C642.256 222.846 642.507 223.175 643.114 224.008C645.065 226.657 645.841 228.296 646.197 230.511C646.327 231.322 646.47 232.506 646.535 233.286C646.557 233.546 646.604 234.075 646.643 234.457C646.76 235.675 646.843 236.65 646.886 237.383C646.912 237.778 646.951 238.333 646.973 238.619C646.995 238.905 647.038 239.577 647.06 240.115C647.086 240.652 647.125 241.363 647.146 241.697C647.168 242.031 647.207 242.647 647.233 243.063C647.259 243.479 647.298 244.047 647.32 244.32C647.341 244.593 647.363 244.94 647.363 245.083C647.363 245.348 647.363 245.348 647.645 245.513C648.482 246.002 648.486 246.02 648.486 249.61C648.486 253.2 648.482 253.217 647.645 253.707C647.363 253.872 647.363 253.872 647.363 254.136C647.363 254.279 647.341 254.626 647.32 254.899C647.298 255.172 647.259 255.74 647.233 256.156C647.207 256.573 647.168 257.188 647.146 257.522C647.125 257.856 647.086 258.567 647.06 259.105C647.038 259.642 646.995 260.314 646.973 260.601C646.951 260.887 646.912 261.442 646.886 261.836C646.843 262.569 646.76 263.544 646.643 264.763C646.604 265.144 646.557 265.673 646.535 265.933C646.375 267.88 646.084 269.61 645.75 270.611C645.369 271.778 644.393 273.473 643.114 275.212C640.439 278.854 639.269 279.968 637.907 280.167C637.686 280.202 637.556 280.254 637.322 280.406C636.745 280.779 635.991 281.125 635.176 281.386C634.512 281.598 633.94 281.719 632.318 281.997C631.538 282.131 630.836 282.283 629.891 282.517C627.046 283.228 626.565 283.254 614.933 283.293L606.504 283.319L606.4 283.666C606.183 284.407 605.871 284.88 604.718 286.246C604.024 287.07 603.898 287.074 602.524 286.371C601.206 285.695 601.002 285.422 600.473 283.675L600.361 283.298L597.607 283.306L594.85 283.319L594.69 283.731C593.909 285.682 592.708 287.755 591.936 288.47C591.126 289.224 589.743 289.71 588.767 289.584ZM470.907 269.736C470.912 258.797 470.929 249.944 470.951 250.061C471.111 251.019 472.026 251.795 473.062 251.856L473.461 251.877V252.467C473.461 253.191 473.574 255.97 473.634 256.742C473.66 257.054 473.699 257.596 473.721 257.956C473.838 259.781 474.211 262.959 474.567 265.153C474.766 266.406 475.078 268.066 475.265 268.903C475.629 270.533 475.846 271.383 476.192 272.497C477.116 275.506 478.022 277.176 479.201 278.047C479.96 278.611 482.132 279.526 484.105 280.111C485.024 280.388 485.349 280.484 485.501 280.518C485.592 280.54 486.056 280.657 486.533 280.783C487.01 280.904 487.478 281.021 487.573 281.043C487.669 281.065 487.925 281.121 488.137 281.169C488.844 281.325 489.564 281.481 489.806 281.524C489.936 281.546 490.223 281.602 490.435 281.65C491.653 281.906 494.862 282.461 496.461 282.686C500.472 283.259 501.755 283.332 508.688 283.367C513.08 283.393 521.058 283.306 523.256 283.211C523.78 283.189 524.825 283.15 525.575 283.124C526.325 283.098 527.505 283.046 528.198 283.007C529.889 282.907 539.939 282.912 547.709 283.016C553.215 283.085 553.215 283.085 553.583 283.189C554.771 283.519 558.613 283.527 559.796 283.206C560.013 283.146 565.259 283.189 565.615 283.254C567.007 283.501 570.15 283.549 571.095 283.337C571.273 283.298 590.037 283.276 590.076 283.315C590.085 283.319 590.042 283.454 589.985 283.605C589.855 283.961 589.617 284.59 589.569 284.711C589.548 284.763 589.43 285.075 589.309 285.405C589.188 285.738 589.062 286.077 589.027 286.159C588.993 286.241 588.936 286.389 588.906 286.484C588.871 286.58 588.676 287.122 588.468 287.694C588.034 288.877 588.026 288.917 588.091 289.116C588.151 289.294 588.516 289.55 588.767 289.589C588.862 289.602 562.38 289.619 529.92 289.619L470.903 289.628L470.907 269.736ZM589.396 289.584C590.549 289.484 591.65 288.899 592.357 288.015C593.055 287.139 594.074 285.266 594.69 283.731L594.85 283.319L597.607 283.306L600.361 283.298L600.473 283.675C601.002 285.422 601.206 285.695 602.524 286.371C603.898 287.074 604.024 287.07 604.718 286.246C605.871 284.88 606.183 284.407 606.4 283.666L606.504 283.319L614.933 283.293C626.565 283.254 627.046 283.228 629.891 282.517C630.836 282.283 631.538 282.131 632.318 281.997C633.94 281.719 634.512 281.598 635.176 281.386C635.991 281.125 636.745 280.779 637.322 280.406C637.556 280.254 637.686 280.202 637.907 280.167C639.082 279.998 639.88 279.335 641.796 276.946C642.256 276.374 642.507 276.044 643.114 275.212C645.065 272.563 645.841 270.924 646.197 268.708C646.327 267.897 646.47 266.714 646.535 265.933C646.557 265.673 646.604 265.144 646.643 264.763C646.76 263.544 646.843 262.569 646.886 261.836C646.912 261.442 646.951 260.887 646.973 260.601C646.995 260.314 647.038 259.642 647.06 259.105C647.086 258.567 647.125 257.856 647.146 257.522C647.168 257.188 647.207 256.573 647.233 256.156C647.259 255.74 647.298 255.172 647.32 254.899C647.341 254.626 647.363 254.279 647.363 254.136C647.363 253.872 647.363 253.872 647.645 253.707C648.248 253.356 648.408 253.091 648.447 252.406C648.464 252.146 648.477 260.41 648.482 270.776L648.49 289.628L618.757 289.623C602.407 289.619 589.192 289.602 589.396 289.584ZM589.136 288.825C589.136 288.808 589.266 288.47 589.422 288.071C589.578 287.677 589.795 287.126 589.903 286.853C590.011 286.58 590.319 285.799 590.588 285.118C591.975 281.637 592.019 281.563 592.665 281.563C593.233 281.563 594.421 281.698 594.546 281.776C594.672 281.849 593.801 284.056 593.159 285.292C591.949 287.616 591.282 288.34 590.003 288.717C589.669 288.817 589.136 288.882 589.136 288.825ZM603.127 285.396C602.654 285.249 602.333 284.707 602.437 284.221C602.667 283.124 604.18 283.076 604.484 284.16C604.701 284.941 603.929 285.643 603.127 285.396ZM601.666 284.819C601.54 284.572 601.059 283.115 601.059 282.981C601.059 282.929 601.163 282.916 601.592 282.899C602.082 282.886 602.143 282.873 602.333 282.76C602.537 282.643 602.546 282.639 603.5 282.617C604.93 282.582 605.823 282.73 605.793 282.994C605.745 283.397 605.373 284.338 605.26 284.338C605.247 284.338 605.221 284.251 605.208 284.143C605.078 283.198 604.111 282.508 603.161 282.686C602.186 282.864 601.527 283.835 601.744 284.772C601.804 285.023 601.778 285.04 601.666 284.819ZM566.872 282.665C566.798 282.656 566.547 282.626 566.309 282.599C565.545 282.517 564.648 282.235 564.908 282.166C564.96 282.149 565.398 282.136 565.879 282.131C566.751 282.127 566.751 282.127 566.803 282.296C566.833 282.4 566.911 282.513 566.994 282.578C567.067 282.639 567.102 282.686 567.067 282.682C567.033 282.682 566.946 282.673 566.872 282.665ZM570.51 282.634C570.714 282.504 570.839 282.37 570.891 282.235C570.939 282.097 570.956 282.084 571.121 282.084C571.325 282.084 572.045 282.166 572.14 282.196C572.296 282.253 571.533 282.526 571.013 282.604C570.38 282.695 570.419 282.691 570.51 282.634ZM505.848 282.617C503.212 282.591 500.728 282.461 498.915 282.257C497.597 282.11 496.453 281.945 494.25 281.581C493.626 281.481 493.24 281.412 492.017 281.195C490.73 280.965 488.722 280.549 487.43 280.241C486.858 280.107 486.732 280.063 486.546 279.924C486.273 279.721 486.264 279.721 487.456 279.803C487.998 279.842 488.839 279.89 489.329 279.916C489.819 279.937 490.353 279.968 490.522 279.981C491.237 280.033 493.097 280.089 493.296 280.063C493.483 280.041 493.531 280.015 493.652 279.859C493.786 279.682 493.786 279.682 493.652 279.495C493.583 279.391 493.513 279.309 493.509 279.309C493.5 279.309 493.136 279.252 492.703 279.183C492.265 279.114 491.627 279.014 491.28 278.962C486.325 278.225 483.116 277.375 481.638 276.404C480.571 275.702 479.847 274.687 478.469 271.96C477.831 270.703 477.545 270.022 476.995 268.496C476.765 267.854 476.461 267.056 476.322 266.718C475.919 265.747 475.494 264.442 475.048 262.812C474.757 261.754 474.397 257.834 474.263 254.336C474.133 250.962 474.198 245.062 474.393 242.304C474.601 239.334 474.844 237.158 475.048 236.408C475.494 234.777 475.919 233.472 476.322 232.501C476.461 232.163 476.765 231.365 476.995 230.724C477.545 229.198 477.831 228.517 478.469 227.259C479.847 224.532 480.571 223.518 481.638 222.815C483.116 221.844 486.325 220.995 491.28 220.257C491.627 220.205 492.265 220.106 492.703 220.036C493.136 219.967 493.5 219.911 493.509 219.911C493.513 219.911 493.583 219.828 493.652 219.724C493.786 219.538 493.786 219.538 493.652 219.36C493.531 219.204 493.483 219.178 493.296 219.156C493.097 219.13 491.237 219.187 490.522 219.239C490.353 219.252 489.819 219.282 489.329 219.304C488.839 219.33 487.998 219.377 487.456 219.416C486.264 219.499 486.273 219.499 486.546 219.295C486.836 219.082 488.024 218.796 491.324 218.155C492.204 217.981 493.726 217.721 495.464 217.439C498.33 216.975 500.602 216.75 503.251 216.659C506.455 216.55 517.762 216.576 521.023 216.698L521.782 216.724L521.344 216.971C521.105 217.11 520.875 217.223 520.836 217.223C520.711 217.223 520.346 217.426 520.277 217.535C520.095 217.821 520.147 217.994 520.663 218.783C521.04 219.36 521.37 219.967 521.435 220.205C521.461 220.292 521.448 220.301 521.274 220.301C521.014 220.301 519.406 220.375 517.966 220.453C517.299 220.487 516.002 220.557 515.083 220.604C514.164 220.652 512.889 220.721 512.243 220.756C511.597 220.791 510.691 220.838 510.227 220.864C509.763 220.886 508.835 220.938 508.168 220.973C502.596 221.272 499.423 221.406 496.895 221.45C494.727 221.489 493.873 221.636 493.119 222.113C492.616 222.425 492.72 222.941 493.331 223.158C493.795 223.327 494.12 223.388 496.808 223.813C497.571 223.934 499.466 224.246 501.014 224.506C503.706 224.957 504.162 225.035 505.35 225.243C505.636 225.295 505.987 225.356 506.13 225.378C506.273 225.404 506.75 225.486 507.192 225.569C510.288 226.137 511.099 226.171 519.883 226.124L525.142 226.098L525.276 226.397C526.013 227.988 527.778 229.228 529.564 229.406C532.152 229.661 554.464 229.492 558.092 229.185C559.562 229.063 560.733 228.504 561.414 227.602C561.643 227.294 562.081 226.462 562.172 226.15C562.233 225.946 562.294 225.937 563.529 225.937C565.311 225.937 569.044 225.798 571.901 225.634C575.309 225.434 578.149 225.157 581.071 224.745C584.488 224.264 587.267 223.83 589.417 223.444C589.63 223.405 590.011 223.336 590.263 223.292C593.658 222.698 600.486 221.211 601.757 220.795C602.251 220.63 602.359 220.531 602.359 220.24C602.359 219.872 602.208 219.785 601.124 219.507C600.365 219.312 599.745 219.191 599.168 219.126C598.921 219.1 598.717 219.056 598.717 219.035C598.717 219.013 598.934 218.606 599.194 218.129C599.459 217.652 599.719 217.127 599.771 216.962C599.866 216.659 599.866 216.659 600.027 216.659C600.139 216.659 600.191 216.676 600.191 216.72C600.191 216.754 600.252 216.832 600.326 216.893C600.456 217.006 600.469 217.006 601.137 217.006C601.778 217.006 601.83 217.01 602.017 217.114C602.316 217.27 602.663 217.309 603.812 217.309C605.008 217.309 605.19 217.288 605.936 217.045C606.361 216.906 606.5 216.841 606.556 216.754C606.626 216.646 606.626 216.646 614.651 216.672C626.674 216.715 626.795 216.72 629.956 217.483C630.974 217.73 631.386 217.816 632.232 217.96C636.502 218.697 637.456 219.286 640.196 222.902C643.24 226.917 644.181 228.937 645.057 233.329C645.937 237.73 646.388 240.951 646.496 243.692C646.522 244.312 646.561 245.209 646.583 245.682C646.609 246.154 646.626 246.653 646.622 246.787C646.617 247.03 646.617 247.03 646.557 246.813C646.526 246.696 646.409 246.159 646.297 245.621C645.711 242.755 645.373 241.485 644.714 239.659C643.838 237.218 643.192 236.017 641.254 233.199C640.357 231.899 639.143 230.078 638.692 229.362C638.445 228.968 637.881 228.114 637.443 227.463C637.005 226.809 636.658 226.267 636.671 226.249C636.684 226.236 636.888 226.28 637.122 226.345C637.959 226.574 638.042 226.587 638.25 226.483C638.427 226.397 638.432 226.392 638.432 226.184C638.432 225.985 638.41 225.941 638.185 225.668C637.599 224.953 634.829 222.49 633.381 221.402C631.495 219.984 630.693 219.781 625.663 219.455C625.113 219.421 624.306 219.369 623.864 219.343C622.338 219.243 619.884 219.265 619.377 219.382C619.138 219.438 618.778 219.499 618.575 219.52C617.946 219.577 617.824 219.624 616.298 220.353C615.006 220.973 614.217 221.324 613.307 221.688C612.153 222.148 612.349 222.117 611.594 221.935C609.782 221.489 608.442 221.281 607.389 221.276C606.535 221.276 606.448 221.289 604.701 221.601C603.235 221.866 600.959 222.274 599.845 222.469C599.285 222.568 598.678 222.677 598.501 222.707C598.323 222.742 597.885 222.82 597.525 222.881C597.165 222.941 596.727 223.019 596.55 223.054C596.372 223.089 595.943 223.162 595.596 223.227C588.078 224.545 585.29 225.191 584.102 225.881C583.421 226.275 582.689 227.06 582.498 227.598C582.424 227.814 582.407 227.823 582.047 227.884C581.882 227.91 581.032 228.057 580.161 228.213C578.652 228.478 578.574 228.486 578.483 228.417C577.403 227.563 576.987 227.338 576.328 227.238C575.955 227.181 575.595 227.312 574.668 227.836C573.215 228.656 572.383 229.028 571.377 229.323C569.656 229.818 569.326 229.826 532.707 230.099C518.218 230.208 514.936 230.234 509.815 230.273C506.811 230.294 501.82 230.338 498.725 230.364C495.629 230.39 493.088 230.403 493.08 230.394C493.049 230.364 493.192 229.635 493.283 229.362C493.422 228.937 493.665 228.439 493.977 227.932C494.445 227.173 494.493 226.93 494.246 226.509C493.877 225.881 492.781 225.499 489.438 224.832C485.393 224.025 484.69 224.012 483.958 224.732C482.93 225.738 480.94 228.391 480.068 229.926C478.421 232.813 477.632 235.528 477.021 240.375C476.947 240.934 476.834 241.649 476.76 241.957C476.57 242.803 476.292 244.207 476.236 244.624C476.21 244.827 476.171 245.079 476.149 245.187C475.902 246.51 475.815 249.38 476.01 249.805C476.067 249.922 476.153 250.069 476.21 250.13C476.305 250.234 476.309 250.295 476.379 251.604C476.565 255.042 477.008 259.291 477.432 261.663C478.248 266.206 479.613 269.198 482.54 272.849C483.129 273.581 483.671 274.21 483.958 274.488C484.69 275.207 485.393 275.194 489.438 274.388C492.781 273.72 493.877 273.339 494.246 272.71C494.493 272.289 494.445 272.047 493.977 271.288C493.665 270.781 493.422 270.282 493.283 269.857C493.192 269.584 493.049 268.856 493.08 268.825C493.088 268.817 495.616 268.83 498.703 268.856C506.564 268.925 512.152 268.968 532.707 269.12C569.261 269.393 569.66 269.402 571.377 269.896C572.383 270.191 573.215 270.564 574.668 271.383C575.595 271.908 575.955 272.038 576.328 271.982C576.987 271.882 577.403 271.656 578.483 270.802C578.574 270.733 578.652 270.742 580.161 271.006C581.032 271.162 581.882 271.31 582.047 271.336C582.407 271.396 582.424 271.405 582.498 271.622C582.689 272.159 583.421 272.944 584.102 273.339C585.29 274.028 588.078 274.674 595.596 275.992C595.943 276.057 596.372 276.131 596.55 276.165C596.727 276.2 597.165 276.278 597.525 276.339C597.885 276.4 598.323 276.478 598.501 276.512C598.678 276.543 599.285 276.651 599.845 276.751C600.959 276.946 603.235 277.353 604.701 277.618C606.448 277.93 606.535 277.943 607.389 277.943C608.442 277.939 609.782 277.731 611.594 277.284C612.349 277.102 612.153 277.072 613.307 277.531C614.196 277.887 615.067 278.277 616.342 278.888C617.82 279.595 617.95 279.643 618.575 279.699C618.778 279.721 619.138 279.781 619.377 279.838C619.884 279.955 622.338 279.976 623.864 279.877C624.306 279.851 625.113 279.799 625.663 279.764C630.693 279.439 631.495 279.235 633.381 277.817C634.829 276.729 637.599 274.266 638.185 273.551C638.41 273.278 638.432 273.235 638.432 273.035C638.432 272.827 638.427 272.823 638.25 272.736C638.042 272.632 637.959 272.645 637.122 272.875C636.888 272.94 636.684 272.983 636.671 272.97C636.658 272.953 637.005 272.411 637.443 271.756C637.881 271.106 638.445 270.252 638.692 269.857C639.143 269.142 640.357 267.321 641.254 266.02C643.192 263.202 643.838 262.001 644.714 259.56C645.373 257.735 645.711 256.464 646.297 253.598C646.409 253.061 646.526 252.523 646.557 252.406C646.617 252.189 646.617 252.189 646.622 252.432C646.626 252.567 646.609 253.065 646.583 253.538C646.561 254.01 646.522 254.908 646.496 255.528C646.388 258.268 645.937 261.489 645.057 265.89C644.32 269.584 643.643 271.301 641.887 273.933C640.153 276.53 638.323 278.771 637.348 279.487C636.104 280.401 635.011 280.779 632.232 281.26C631.386 281.403 630.974 281.49 629.956 281.737C626.795 282.5 626.674 282.504 614.651 282.547C606.626 282.573 606.626 282.573 606.556 282.465C606.5 282.378 606.361 282.313 605.936 282.175C605.19 281.932 605.008 281.91 603.812 281.91C602.663 281.91 602.316 281.949 602.017 282.105C601.83 282.209 601.778 282.214 601.137 282.214C600.469 282.214 600.456 282.214 600.326 282.326C600.252 282.387 600.191 282.465 600.191 282.5C600.191 282.543 600.139 282.56 600.027 282.56C599.866 282.56 599.866 282.56 599.771 282.257C599.719 282.092 599.459 281.568 599.194 281.091C598.934 280.614 598.717 280.206 598.717 280.185C598.717 280.163 598.921 280.12 599.168 280.093C599.745 280.028 600.365 279.907 601.124 279.712C602.208 279.434 602.359 279.348 602.359 278.979C602.359 278.689 602.251 278.589 601.757 278.424C600.486 278.008 593.658 276.521 590.263 275.927C590.011 275.884 589.63 275.814 589.417 275.775C588.36 275.589 586.924 275.35 584.496 274.973C583.521 274.821 580.998 274.462 579.944 274.323C575.461 273.742 568.294 273.287 563.529 273.282C562.294 273.282 562.233 273.274 562.172 273.07C562.081 272.758 561.643 271.925 561.414 271.617C560.733 270.716 559.562 270.156 558.092 270.035C554.464 269.727 532.152 269.558 529.564 269.814C527.778 269.991 526.013 271.231 525.276 272.823L525.142 273.122L519.926 273.096C511.125 273.044 510.283 273.083 507.192 273.651C506.75 273.733 506.273 273.816 506.13 273.842C505.987 273.863 505.64 273.924 505.363 273.972C504.196 274.18 503.702 274.262 501.014 274.713C499.466 274.973 497.329 275.324 496.266 275.493C493.574 275.923 493.201 276.014 492.937 276.304C492.529 276.759 492.967 277.197 494.159 277.531C494.732 277.692 495.321 277.739 496.895 277.77C499.345 277.813 503.06 277.969 507.756 278.225C508.198 278.251 509.122 278.299 509.815 278.333C510.509 278.368 511.597 278.429 512.243 278.463C512.889 278.498 514.164 278.567 515.083 278.615C516.002 278.663 517.299 278.732 517.966 278.767C519.406 278.845 521.014 278.919 521.274 278.919C521.448 278.919 521.461 278.927 521.435 279.014C521.37 279.252 521.04 279.859 520.663 280.436C520.147 281.225 520.095 281.399 520.277 281.685C520.346 281.793 520.711 281.997 520.836 281.997C520.875 281.997 521.105 282.11 521.344 282.248L521.782 282.495L520.979 282.526C518.747 282.608 509.932 282.66 505.848 282.617ZM554.268 282.582C553.805 282.504 553.054 282.248 553.115 282.192C553.15 282.157 554.281 282.032 554.347 282.058C554.377 282.071 554.407 282.118 554.407 282.162C554.407 282.27 554.559 282.461 554.728 282.565C554.862 282.647 554.862 282.647 554.732 282.643C554.659 282.639 554.451 282.613 554.268 282.582ZM558.322 282.547C558.387 282.495 558.47 282.374 558.5 282.279C558.561 282.105 558.561 282.105 558.99 282.092C559.549 282.075 560.481 282.127 560.455 282.175C560.343 282.352 559.033 282.647 558.331 282.647C558.201 282.647 558.201 282.647 558.322 282.547ZM573.454 282.53C573.05 282.513 573.05 282.513 573.159 282.348C573.436 281.932 573.137 281.633 572.309 281.498C570.831 281.26 570.232 281.351 570.232 281.828C570.232 282.023 570.124 282.04 568.914 282.04C567.562 282.04 567.588 282.045 567.483 281.797C567.336 281.438 567.236 281.412 565.962 281.416C564.47 281.42 564.128 281.494 563.937 281.849C563.85 282.019 563.846 282.053 563.898 282.179C564.011 282.469 564.011 282.491 563.898 282.461C563.842 282.443 563.612 282.43 563.391 282.43H562.992V281.294V280.163L564.501 280.189C565.329 280.206 571.815 280.232 578.912 280.25C591.824 280.276 591.824 280.276 591.668 280.427C591.503 280.583 591.39 280.805 591.39 280.952C591.39 281 591.355 281.047 591.312 281.06C591.087 281.134 590.835 281.52 590.54 282.244L590.415 282.56L582.134 282.552C577.577 282.547 573.67 282.534 573.454 282.53ZM595.119 282.526C595.119 282.305 595.275 282.079 595.678 281.724C596.142 281.316 596.376 281.013 596.376 280.818C596.376 280.661 596.281 280.432 596.19 280.354C596.051 280.241 596.177 280.219 597.026 280.219C597.885 280.219 597.885 280.219 597.972 280.358C598.236 280.787 599.108 282.417 599.108 282.482C599.108 282.556 598.995 282.56 597.113 282.56C596.016 282.56 595.119 282.543 595.119 282.526ZM522.952 282.201C522.159 281.893 522.089 281.862 521.665 281.611C521.465 281.498 521.231 281.377 521.14 281.346C520.94 281.281 520.927 281.316 521.357 280.67C521.543 280.388 521.764 280.024 521.847 279.859C521.998 279.569 521.998 279.569 523.017 279.591C524.504 279.625 528.354 279.695 531.537 279.742C533.063 279.768 535.309 279.807 536.523 279.829C537.737 279.851 540.121 279.89 541.812 279.916C543.503 279.942 545.974 279.981 547.297 280.002C548.619 280.024 552.521 280.076 555.968 280.115C559.415 280.154 562.237 280.189 562.242 280.189C562.246 280.193 562.255 280.7 562.263 281.316L562.276 282.43H561.786C561.522 282.43 561.301 282.422 561.301 282.413C561.301 282.404 561.331 282.339 561.366 282.274C561.544 281.932 561.314 281.576 560.846 281.472C560.395 281.373 558.335 281.39 558.101 281.494C557.915 281.581 557.789 281.741 557.789 281.901C557.789 282.006 557.373 282.04 556.233 282.036C555.183 282.036 555.144 282.027 555.075 281.78C554.967 281.412 554.88 281.368 554.221 281.368C553.258 281.373 552.4 281.546 552.174 281.78C552.066 281.893 552.057 281.927 552.075 282.123C552.096 282.335 552.096 282.335 551.377 282.318C549.911 282.279 542.861 282.214 537.39 282.188C531.68 282.157 529.746 282.183 527.006 282.322C526.325 282.352 525.272 282.391 524.665 282.409C523.559 282.43 523.559 282.43 522.952 282.201ZM594.937 281.169C594.638 281.013 593.723 280.878 592.83 280.861C592.517 280.857 592.4 280.839 592.431 280.809C592.487 280.753 595.526 280.74 595.578 280.796C595.609 280.826 595.179 281.255 595.119 281.255C595.106 281.255 595.023 281.216 594.937 281.169ZM484.625 279.495C481.686 278.589 479.956 277.813 479.197 277.063C478.013 275.888 476.791 272.632 475.889 268.244C475.768 267.672 475.672 267.16 475.672 267.108C475.676 266.983 475.915 267.577 476.283 268.621C477.307 271.513 478.933 274.67 480.09 276.005C481.174 277.262 483.064 278.082 486.685 278.871C487.127 278.966 487.526 279.053 487.573 279.066C487.682 279.096 486.971 279.066 485.991 278.997C485.093 278.936 484.981 278.962 484.959 279.222C484.942 279.439 484.911 279.569 484.872 279.565C484.855 279.565 484.742 279.53 484.625 279.495ZM567.401 279.495L566.326 279.482L566.174 279.144C565.645 277.991 565.203 276.66 564.709 274.761L564.514 274.006L565.671 274.032C573.727 274.236 579.298 274.787 587.878 276.239C588.724 276.378 589.543 276.517 589.699 276.543C590.063 276.603 590.05 276.59 590.276 277.249C590.532 277.991 590.978 279.257 591.039 279.404C591.087 279.526 591.087 279.526 579.779 279.517C573.562 279.508 567.991 279.5 567.401 279.495ZM591.737 279.382C591.737 279.304 591.676 279.075 591.603 278.871C591.009 277.258 590.87 276.794 590.978 276.794C591.074 276.794 594.13 277.397 595.271 277.64C595.557 277.7 595.995 277.796 596.246 277.848C596.697 277.943 596.697 277.943 597.139 278.702C597.516 279.343 597.573 279.465 597.512 279.491C597.473 279.508 596.155 279.521 594.59 279.521C591.737 279.526 591.737 279.526 591.737 279.382ZM561.032 279.452L560.174 279.439V278.949C560.174 278.194 560.096 276.816 559.978 275.355C559.918 274.622 559.87 274.002 559.87 273.98C559.87 273.928 560.642 273.924 561.258 273.967C561.626 273.998 561.626 273.998 561.678 274.605C561.825 276.313 562.068 278.333 562.19 278.849C562.224 278.997 562.255 279.196 562.255 279.3C562.255 279.482 562.255 279.482 562.073 279.474C561.969 279.465 561.5 279.456 561.032 279.452ZM562.974 279.235C562.957 279.096 562.909 278.801 562.862 278.572C562.727 277.921 562.346 274.553 562.341 274.006C562.341 273.989 562.667 273.98 563.061 273.985L563.781 273.998L563.989 274.826C564.414 276.486 564.826 277.774 565.29 278.884L565.537 279.482H564.271C563.005 279.482 563.005 279.482 562.974 279.235ZM555.903 279.408C555.032 279.4 551.927 279.356 545.519 279.265C543.885 279.239 540.902 279.192 538.886 279.157C536.87 279.122 533.913 279.07 532.317 279.044C530.722 279.018 529.408 278.992 529.408 278.992C529.404 278.988 529.382 278.385 529.352 277.657C529.3 276.291 529.23 275.342 529.104 274.418C529.065 274.128 529.044 273.876 529.052 273.863C529.078 273.842 559.098 273.937 559.129 273.959C559.194 274.015 559.398 276.941 559.424 278.19L559.45 279.439L558.132 279.43C557.407 279.421 556.402 279.413 555.903 279.408ZM598.284 279.27C598.236 279.17 598.076 278.888 597.933 278.65C597.79 278.411 597.681 278.203 597.694 278.19C597.72 278.164 598.102 278.247 599.671 278.615C600.846 278.893 601.102 278.958 601.102 278.979C601.102 279.044 599.32 279.382 598.752 279.426C598.379 279.452 598.379 279.452 598.284 279.27ZM623.626 279.105C627.324 278.437 629.301 277.778 631.126 276.599C632.397 275.78 634.469 273.581 637.14 270.226C637.534 269.727 637.612 269.658 637.799 269.584C638.141 269.458 638.228 269.293 636.858 271.353C635.679 273.126 635.605 273.278 635.774 273.581C635.917 273.824 636.199 273.863 636.719 273.716C637.226 273.573 637.226 273.573 636.489 274.24C634.226 276.304 632.557 277.635 631.668 278.09C630.576 278.645 629.353 278.827 624.696 279.114C623.383 279.196 623.14 279.192 623.626 279.105ZM618.379 278.958C618.067 278.906 617.911 278.841 616.454 278.151C615.084 277.501 614.304 277.154 613.428 276.816C613.146 276.703 612.912 276.608 612.904 276.599C612.895 276.59 612.947 276.469 613.021 276.33C613.55 275.281 614.703 272.242 615.379 270.117C616.667 266.085 617.365 262.296 617.837 256.85C618.627 247.689 617.872 237.708 615.856 230.685C615.119 228.109 613.736 224.311 613.021 222.889C612.947 222.75 612.895 222.629 612.904 222.62C612.912 222.612 613.146 222.516 613.428 222.404C614.308 222.061 615.089 221.719 616.463 221.064C618.119 220.279 618.21 220.244 618.752 220.249C619.897 220.253 623.313 220.73 625.381 221.172C627.905 221.706 630.047 222.603 631.408 223.7C633.376 225.278 637.851 230.78 640.166 234.457C642.217 237.717 643.465 240.284 644.003 242.356C645.369 247.594 645.117 254.362 643.392 258.758C642.607 260.748 640.539 264.355 638.614 267.082C636.411 270.195 632.869 274.349 631.408 275.519C630.047 276.616 627.905 277.514 625.381 278.047C623.821 278.381 621.063 278.797 619.658 278.919C618.77 278.992 618.605 278.997 618.379 278.958ZM524.366 278.914C523.212 278.893 522.259 278.871 522.25 278.862C522.198 278.806 522.371 278.576 522.744 278.199C523.542 277.401 524.89 275.437 525.445 274.262L525.649 273.833L526.967 273.842C527.691 273.846 528.289 273.859 528.298 273.868C528.406 273.972 528.68 277.423 528.697 278.884C528.697 278.975 528.168 278.975 524.366 278.914ZM639.26 278.637C639.295 278.589 639.507 278.325 639.732 278.051C640.704 276.885 642.988 273.694 643.21 273.204C643.218 273.187 643.309 273.104 643.418 273.026C643.526 272.944 643.687 272.81 643.773 272.723C644.046 272.467 643.964 272.636 643.366 273.529C642.451 274.908 641.532 276.131 640.465 277.401C640.183 277.735 639.151 278.793 639.26 278.637ZM520.784 278.194C520.277 278.173 517.086 278.012 515.842 277.943C515.196 277.908 514.281 277.861 513.804 277.835C513.327 277.813 512.412 277.761 511.766 277.726C511.12 277.692 509.837 277.622 508.905 277.575C507.973 277.527 506.668 277.457 506 277.423C505.332 277.388 504.348 277.336 503.81 277.314C503.273 277.288 502.466 277.249 502.011 277.228C500.745 277.158 497.502 277.054 496.678 277.054C495.343 277.05 494.476 276.946 493.969 276.72C493.817 276.651 493.817 276.651 494.055 276.595C494.302 276.534 495.287 276.369 497.242 276.057C499.757 275.654 505.35 274.704 507.582 274.301C510.353 273.802 510.349 273.802 518.439 273.802C524.847 273.802 524.847 273.802 524.821 273.902C524.678 274.475 522.948 277.007 522.185 277.757C521.656 278.277 521.786 278.238 520.784 278.194ZM606.89 277.245C606.816 277.236 606.604 277.206 606.413 277.18C605.941 277.119 605.299 277.007 605.321 276.985C605.329 276.976 605.542 276.998 605.789 277.033C607.527 277.28 608.893 276.894 609.925 275.862C611.291 274.501 612.73 270.317 613.498 265.456C613.771 263.753 614.187 260.34 614.326 258.671C614.352 258.372 614.382 258.073 614.391 257.999C614.421 257.808 614.616 255.372 614.694 254.249C614.902 251.157 614.902 248.062 614.694 244.971C614.616 243.848 614.421 241.411 614.391 241.22C614.382 241.151 614.352 240.847 614.326 240.548C614.187 238.879 613.771 235.467 613.498 233.763C612.73 228.903 611.291 224.719 609.925 223.357C608.893 222.326 607.527 221.94 605.789 222.187C605.234 222.265 605.164 222.243 605.685 222.152C607.107 221.896 607.722 221.905 609.383 222.195C610.09 222.317 611.148 222.547 611.776 222.716C612.192 222.824 612.193 222.824 612.453 223.375C613.038 224.606 613.749 226.453 614.499 228.712C616.112 233.537 616.901 238.185 617.348 245.447C617.456 247.212 617.456 252.007 617.348 253.772C616.901 261.034 616.112 265.682 614.499 270.507C613.749 272.766 613.038 274.613 612.453 275.845C612.193 276.395 612.192 276.395 611.776 276.504C609.938 276.998 607.614 277.349 606.89 277.245ZM605.784 276.317C604.25 276.135 602.528 275.845 597.525 274.93C590.276 273.599 586.088 272.628 584.848 271.982C584.293 271.691 583.152 270.616 583.152 270.382C583.152 270.282 583.287 269.632 583.564 268.361C584.249 265.261 584.583 262.903 584.752 260.028C584.796 259.287 584.731 259.434 585.537 258.259C586.972 256.169 587.566 255.502 588.503 254.899C590.566 253.577 590.488 253.646 591.017 252.588C591.555 251.517 591.542 251.6 591.542 249.61C591.542 247.62 591.555 247.702 591.017 246.631C590.488 245.573 590.566 245.643 588.503 244.32C587.566 243.718 586.972 243.05 585.537 240.96C584.731 239.785 584.796 239.933 584.752 239.191C584.583 236.317 584.249 233.958 583.564 230.858C583.287 229.588 583.152 228.937 583.152 228.838C583.152 228.604 584.293 227.528 584.848 227.238C586.088 226.592 590.276 225.621 597.525 224.29C605.628 222.807 606.964 222.638 607.931 222.967C609.318 223.444 609.955 224.19 610.835 226.366C612.058 229.41 612.739 232.571 613.367 238.207C614.382 247.268 614.382 251.951 613.367 261.012C612.739 266.649 612.058 269.809 610.835 272.853C609.955 275.029 609.322 275.771 607.931 276.252C607.471 276.413 606.751 276.434 605.784 276.317ZM589.786 274.197C585.615 273.352 584.54 272.987 583.738 272.155C583.521 271.925 583.521 271.925 583.911 272.22C584.696 272.818 586.01 273.282 588.334 273.798C588.546 273.846 588.997 273.946 589.331 274.019C589.946 274.154 590.389 274.249 591.13 274.405C591.355 274.453 591.581 274.501 591.629 274.509C591.681 274.522 591.668 274.531 591.585 274.531C591.512 274.531 590.705 274.379 589.786 274.197ZM484.859 274.253C484.612 274.18 484.222 273.781 483.355 272.719C479.813 268.392 478.525 265.205 477.736 258.845C477.45 256.538 477.151 253.143 477.077 251.361C477.047 250.663 477.047 250.663 477.302 250.637C478.026 250.564 478.343 250.234 478.334 249.566C478.33 249.159 478.165 248.899 477.797 248.738C477.584 248.638 477.61 247.741 477.888 245.751C478.013 244.849 478.104 244.264 478.664 240.873C478.881 239.56 479.084 238.315 479.119 238.099C479.292 237.067 479.323 236.685 479.245 236.468C479.123 236.13 478.85 236.035 478.56 236.234C478.473 236.291 478.404 236.33 478.404 236.312C478.404 236.299 478.473 236.004 478.56 235.653C479.366 232.319 480.745 229.692 483.355 226.501C484.725 224.823 484.773 224.797 486.065 224.962C487.734 225.178 492.052 226.054 491.944 226.154C491.926 226.176 491.705 226.28 491.458 226.388C490.79 226.683 489.577 227.316 489.126 227.602C488.727 227.853 488.727 227.853 488.467 227.697C487.361 227.025 487.149 227.09 485.592 228.569C484.157 229.935 482.843 231.305 482.735 231.552C482.566 231.933 482.787 232.25 484.33 233.832L484.738 234.244L484.521 235.176C483.381 240.067 483.108 242.837 483.108 249.61C483.108 256.382 483.381 259.152 484.521 264.043L484.738 264.975L484.33 265.387C482.787 266.97 482.566 267.286 482.735 267.668C482.843 267.915 484.157 269.285 485.592 270.65C487.149 272.129 487.361 272.194 488.467 271.522C488.727 271.366 488.727 271.366 489.126 271.617C489.577 271.903 490.79 272.536 491.458 272.831C491.705 272.94 491.926 273.044 491.944 273.065C492.052 273.165 487.734 274.041 486.065 274.258C485.44 274.336 485.124 274.336 484.859 274.253ZM543.915 273.191C526.481 273.143 525.905 273.135 525.996 272.961C526.659 271.665 528.164 270.672 529.716 270.512C532.343 270.234 555.985 270.46 558.487 270.789C559.861 270.967 560.976 271.838 561.409 273.07C561.47 273.239 561.47 273.239 558.903 273.23C557.49 273.226 550.748 273.209 543.915 273.191ZM492.278 272.424C491.48 272.077 490.348 271.513 489.759 271.171L489.334 270.928L489.568 270.672C489.824 270.399 489.863 270.26 489.741 270.091C489.663 269.974 489.594 269.948 488.753 269.705C487.404 269.315 487.027 269.068 486.555 268.253C485.861 267.056 484.651 262.005 484.213 258.476C483.65 253.937 483.65 245.283 484.213 240.743C484.651 237.214 485.861 232.163 486.555 230.966C487.027 230.151 487.404 229.904 488.753 229.514C489.594 229.271 489.663 229.245 489.741 229.128C489.863 228.959 489.824 228.82 489.568 228.547L489.334 228.291L489.754 228.049C490.634 227.541 492.846 226.501 493.041 226.501C493.119 226.501 493.392 226.644 493.518 226.748C493.734 226.93 493.73 226.965 493.375 227.546C492.841 228.426 492.624 228.946 492.442 229.783C492.325 230.333 492.299 232.766 492.399 234.24C492.52 236.109 492.611 239.724 492.672 245.222C492.746 252.185 492.616 261.706 492.399 264.979C492.299 266.454 492.325 268.886 492.442 269.437C492.624 270.273 492.841 270.794 493.375 271.674C493.765 272.315 493.76 272.372 493.266 272.632C493.041 272.753 493.032 272.749 492.278 272.424ZM487.222 271.132C486.836 270.872 483.784 267.919 483.511 267.546C483.411 267.407 483.385 267.442 484.101 266.67C484.339 266.41 484.625 266.102 484.729 265.985C484.833 265.873 484.929 265.786 484.937 265.795C484.946 265.808 485.02 266.055 485.102 266.35C485.805 268.921 486.477 269.779 488.167 270.278C488.475 270.369 488.722 270.455 488.722 270.468C488.722 270.551 487.569 271.244 487.435 271.244C487.409 271.244 487.313 271.192 487.222 271.132ZM575.673 271.127C575.6 271.093 575.24 270.889 574.871 270.681C572.652 269.428 571.303 268.99 568.81 268.708C568.186 268.639 568.195 268.643 567.939 268.283C567.718 267.971 568.42 266.666 569.066 266.193C569.734 265.704 571.715 264.975 574.113 264.338C574.16 264.325 574.598 264.208 575.088 264.078C578.227 263.237 581.982 262.447 581.982 262.625C581.982 262.647 581.943 262.742 581.891 262.842C581.843 262.937 581.717 263.237 581.618 263.501C581.518 263.766 581.357 264.099 581.266 264.242C581.175 264.386 580.898 264.88 580.651 265.344C580.113 266.35 579.853 266.757 579.398 267.295C578.912 267.88 577.95 268.86 577.282 269.454C576.12 270.494 576.059 270.568 575.843 271.101C575.804 271.192 575.799 271.192 575.673 271.127ZM576.606 271.145C576.606 271.036 576.766 270.872 577.442 270.273C578.665 269.194 579.953 267.828 580.503 267.017C580.651 266.805 580.768 266.644 580.768 266.657C580.768 267.065 579.363 268.981 578.375 269.922C577.664 270.598 576.606 271.331 576.606 271.145ZM644.437 270.776C644.835 269.84 645.291 268.262 645.655 266.549C645.694 266.363 645.733 266.219 645.742 266.228C645.794 266.28 645.416 269.029 645.325 269.272C645.265 269.428 644.454 270.854 644.428 270.854C644.415 270.854 644.419 270.82 644.437 270.776ZM575.916 270.685C576.146 270.455 576.072 270.286 575.6 269.978C572.977 268.253 571.55 267.65 569.374 267.364C569.01 267.316 568.771 267.542 568.893 267.828C568.962 268.001 569.001 268.014 569.729 268.145C571.715 268.496 572.565 268.873 575.24 270.59C575.639 270.846 575.739 270.859 575.916 270.685ZM581.982 270.616C581.709 270.559 581.024 270.434 579.922 270.243C579.636 270.195 579.359 270.143 579.302 270.135C579.211 270.117 579.224 270.091 579.502 269.779C581.032 268.066 581.54 267.087 581.964 265.001C582.238 263.657 582.563 262.907 583.625 261.19C584.007 260.57 584.002 260.57 583.937 261.442C583.768 263.605 583.465 265.5 582.823 268.418C582.719 268.903 582.567 269.61 582.493 269.991C582.415 270.399 582.342 270.681 582.311 270.677C582.285 270.672 582.138 270.646 581.982 270.616ZM562.814 268.669C562.805 268.66 560.122 268.63 556.857 268.604C553.592 268.578 548.749 268.535 546.104 268.513C543.46 268.487 538.482 268.452 535.049 268.426C531.615 268.405 525.02 268.353 520.394 268.318C503.381 268.188 500.732 268.166 497.48 268.145C495.655 268.131 493.903 268.11 493.583 268.097L493.002 268.071L493.028 267.022C493.045 266.449 493.075 265.665 493.101 265.283C493.479 259.209 493.479 240.011 493.101 233.936C493.075 233.555 493.045 232.77 493.028 232.198L493.002 231.149L493.583 231.123C493.903 231.11 495.655 231.088 497.48 231.075C500.715 231.053 502.93 231.036 520.416 230.901C525.055 230.867 531.628 230.815 535.027 230.793C538.426 230.771 543.438 230.732 546.17 230.706C548.901 230.685 553.64 230.646 556.705 230.62C559.77 230.598 562.515 230.563 562.81 230.55C563.3 230.524 563.443 230.55 563.3 230.637C563.243 230.672 563.005 231.292 562.927 231.604C562.58 232.987 562.779 234.444 563.473 235.623C564.613 237.561 566.811 239.447 574.997 245.53C576.345 246.531 577.009 247.099 577.187 247.416C577.69 248.283 577.69 250.936 577.187 251.804C577.009 252.12 576.345 252.688 574.997 253.69C566.811 259.772 564.613 261.658 563.473 263.596C562.779 264.776 562.58 266.232 562.927 267.616C563.005 267.928 563.243 268.548 563.3 268.582C563.404 268.643 563.313 268.686 563.087 268.686C562.948 268.686 562.823 268.678 562.814 268.669ZM566.222 268.487C563.685 268.27 563.915 268.34 563.707 267.741C563.373 266.787 563.399 265.521 563.768 264.615C564.535 262.734 567.132 260.375 574.069 255.268C577.49 252.749 577.75 252.51 578.032 251.647C578.418 250.451 578.318 247.932 577.85 247.138C577.468 246.488 577.135 246.211 574.069 243.952C569.599 240.661 567.349 238.844 565.697 237.192C563.946 235.436 563.417 234.387 563.482 232.787C563.512 232.05 563.729 231.17 563.92 231.014C564.002 230.945 564.739 230.849 565.745 230.771C566.222 230.737 566.764 230.693 566.946 230.68C567.28 230.65 567.28 230.65 567.219 230.849C567.119 231.183 567.206 231.552 567.544 232.224C567.995 233.126 568.459 233.572 569.43 234.058C571.459 235.068 579.857 237.24 582.177 237.353C582.363 237.362 582.402 237.379 582.472 237.492C582.515 237.561 582.771 237.986 583.044 238.432C583.933 239.898 585.524 242.235 586.309 243.236C587.024 244.147 587.375 244.45 588.702 245.296C589.994 246.119 589.977 246.102 590.454 247.069C590.831 247.836 590.84 247.888 590.84 249.61C590.84 251.331 590.831 251.383 590.454 252.15C589.977 253.117 589.994 253.1 588.702 253.924C587.375 254.769 587.024 255.073 586.309 255.983C585.524 256.985 583.933 259.321 583.044 260.787C582.771 261.234 582.515 261.654 582.472 261.728C582.402 261.84 582.363 261.858 582.177 261.867C580.989 261.927 578.44 262.456 575.04 263.358C570.15 264.65 568.645 265.287 567.891 266.389C567.375 267.143 567.098 267.958 567.219 268.361C567.284 268.591 567.332 268.582 566.222 268.487ZM638.766 268.088C638.948 267.832 639.169 267.525 639.256 267.407C639.542 267.017 640.309 265.864 640.799 265.088C641.207 264.442 641.306 264.312 641.467 264.225C641.653 264.121 641.653 264.121 641.558 264.29C641.506 264.381 641.185 264.858 640.851 265.348C640.517 265.838 639.902 266.735 639.49 267.351C638.757 268.426 638.649 268.556 638.449 268.556C638.44 268.556 638.583 268.348 638.766 268.088ZM642.204 262.773C642.204 262.755 642.416 262.348 642.676 261.867C644.033 259.334 644.541 257.982 645.022 255.593C645.247 254.47 645.542 252.12 645.542 251.439C645.542 251.218 645.594 251.205 645.668 251.413C645.698 251.5 645.776 251.6 645.85 251.639C645.937 251.691 645.967 251.738 645.954 251.799C645.945 251.847 645.867 252.198 645.785 252.58C645.703 252.961 645.542 253.711 645.434 254.249C644.922 256.733 644.389 258.537 643.569 260.579C643.101 261.741 642.845 262.205 642.503 262.526C642.338 262.682 642.204 262.79 642.204 262.773ZM518.534 257.756C520.524 257.479 521.335 255.086 519.917 253.663C518.738 252.48 516.744 252.814 516.033 254.314C515.274 255.905 516.306 257.609 518.148 257.8C518.174 257.8 518.348 257.782 518.534 257.756ZM517.654 256.985C516.249 256.464 516.098 254.557 517.411 253.85C518.859 253.07 520.468 254.643 519.74 256.13C519.384 256.863 518.404 257.262 517.654 256.985ZM584.297 253.403C587.354 252.87 588.585 249.189 586.456 246.952C584.431 244.827 580.855 245.682 579.992 248.5C579.164 251.201 581.522 253.885 584.297 253.403ZM647.402 252.965C647.389 252.944 647.393 252.575 647.411 252.146C647.45 251.14 647.45 248.084 647.411 247.073C647.393 246.644 647.393 246.276 647.411 246.258C647.424 246.241 647.493 246.289 647.567 246.371C647.732 246.562 647.753 246.926 647.753 249.61C647.753 252.332 647.736 252.662 647.558 252.853C647.48 252.939 647.411 252.987 647.402 252.965ZM583.027 252.688C581.973 252.467 581.102 251.695 580.707 250.637C580.581 250.299 580.577 250.251 580.577 249.61C580.577 248.86 580.659 248.526 580.989 247.984C581.96 246.371 584.176 245.989 585.65 247.177C587.371 248.56 587.107 251.353 585.156 252.376C584.57 252.684 583.647 252.818 583.027 252.688ZM472.694 251.049C471.384 250.59 471.289 248.808 472.542 248.231C472.741 248.14 472.854 248.118 473.136 248.114H473.483V249.61V251.105L473.201 251.114C473.014 251.123 472.841 251.101 472.694 251.049ZM499.514 250.975C501.734 250.65 502.44 249.371 500.814 248.621C499.999 248.244 499.384 248.157 497.806 248.192C495.343 248.248 494.935 248.348 494.701 248.951C494.484 249.51 494.61 250.364 494.953 250.646C495.222 250.867 495.525 250.919 497.025 251.01C497.745 251.053 499.089 251.036 499.514 250.975ZM497.545 250.321C495.256 250.204 495.313 250.221 495.313 249.61C495.313 249.237 495.378 249.098 495.564 249.046C496.037 248.92 498.803 248.855 499.462 248.955C500.034 249.037 500.736 249.311 500.923 249.519C501.005 249.61 501.005 249.61 500.923 249.701C500.524 250.143 499.119 250.399 497.545 250.321ZM476.843 249.748C476.669 249.597 476.661 249.571 476.626 249.263C476.552 248.638 476.565 248.539 476.717 248.487C476.916 248.417 476.921 248.422 476.951 248.647C477.003 249.016 477.125 249.202 477.389 249.328C477.615 249.436 477.623 249.445 477.623 249.61C477.623 249.965 477.181 250.048 476.843 249.748ZM470.907 229.484L470.903 209.592L529.902 209.596C562.35 209.6 588.828 209.618 588.741 209.631C588.546 209.661 588.16 209.921 588.099 210.06C588.004 210.264 588.056 210.459 588.589 211.89C588.62 211.972 588.728 212.258 588.823 212.518C588.919 212.778 589.053 213.134 589.114 213.299C589.179 213.464 589.248 213.65 589.266 213.711C589.287 213.771 589.365 213.975 589.439 214.166C589.513 214.357 589.591 214.56 589.613 214.621C589.63 214.682 589.747 214.99 589.868 215.31C589.99 215.631 590.081 215.9 590.076 215.909C590.037 215.948 571.268 215.922 571.078 215.883C570.059 215.67 567.007 215.718 565.615 215.965C565.259 216.03 560.013 216.074 559.796 216.013C558.613 215.692 554.771 215.701 553.583 216.03C553.215 216.134 553.215 216.134 547.709 216.204C539.939 216.308 529.889 216.312 528.198 216.212C527.505 216.173 526.325 216.121 525.575 216.095C524.825 216.069 523.78 216.03 523.256 216.009C521.058 215.913 513.08 215.826 508.688 215.852C501.755 215.887 500.472 215.961 496.461 216.533C494.862 216.759 491.653 217.314 490.435 217.569C490.223 217.617 489.936 217.673 489.806 217.695C489.564 217.738 488.844 217.895 488.137 218.051C487.925 218.098 487.669 218.155 487.573 218.176C487.478 218.198 487.01 218.315 486.533 218.436C486.056 218.562 485.592 218.679 485.501 218.701C485.349 218.736 485.024 218.831 484.105 219.109C482.132 219.694 479.96 220.609 479.201 221.172C478.473 221.71 477.979 222.36 477.419 223.509C476.682 225.027 475.963 227.216 475.421 229.622C475.23 230.464 475.2 230.611 475.091 231.162C474.567 233.806 474.233 236.03 473.96 238.684C473.808 240.132 473.76 240.648 473.721 241.264C473.699 241.623 473.66 242.17 473.634 242.478C473.574 243.249 473.461 246.028 473.461 246.752V247.342L473.062 247.364C472.026 247.425 471.111 248.201 470.951 249.159C470.929 249.276 470.912 240.422 470.907 229.484ZM645.542 247.78C645.542 247.099 645.247 244.749 645.022 243.627C644.541 241.238 644.038 239.885 642.672 237.349C642.412 236.863 642.204 236.46 642.212 236.451C642.221 236.442 642.368 236.572 642.542 236.742C642.897 237.088 643.075 237.422 643.569 238.641C644.389 240.67 644.922 242.482 645.434 244.971C645.542 245.508 645.703 246.258 645.785 246.64C645.867 247.021 645.945 247.372 645.954 247.42C645.967 247.481 645.937 247.529 645.85 247.581C645.776 247.62 645.698 247.719 645.668 247.806C645.594 248.014 645.542 248.001 645.542 247.78ZM476.626 247.494C476.626 246.132 477.194 242.976 478.018 239.789C478.304 238.667 478.304 238.697 477.948 240.852C477.792 241.793 477.615 242.868 477.558 243.236C477.497 243.605 477.432 244.017 477.406 244.147C477.272 244.906 476.973 247.151 476.973 247.42C476.973 247.568 476.951 247.607 476.847 247.672C476.652 247.789 476.626 247.767 476.626 247.494ZM648.438 246.8C648.412 246.132 648.252 245.868 647.645 245.513C647.363 245.348 647.363 245.348 647.363 245.083C647.363 244.94 647.341 244.593 647.32 244.32C647.298 244.047 647.259 243.479 647.233 243.063C647.207 242.647 647.168 242.031 647.146 241.697C647.125 241.363 647.086 240.652 647.06 240.115C647.038 239.577 646.995 238.905 646.973 238.619C646.951 238.333 646.912 237.778 646.886 237.383C646.843 236.65 646.76 235.675 646.643 234.457C646.604 234.075 646.557 233.546 646.535 233.286C646.375 231.339 646.084 229.609 645.75 228.608C645.369 227.442 644.393 225.746 643.114 224.008C642.507 223.175 642.256 222.846 641.796 222.274C639.88 219.885 639.082 219.221 637.907 219.052C637.686 219.017 637.556 218.965 637.322 218.814C636.745 218.441 635.991 218.094 635.176 217.834C634.512 217.621 633.94 217.5 632.318 217.223C631.538 217.088 630.836 216.936 629.891 216.702C627.046 215.991 626.543 215.965 614.889 215.926L606.504 215.9L606.4 215.553C606.183 214.812 605.871 214.339 604.718 212.974C604.024 212.15 603.898 212.145 602.524 212.848C601.206 213.524 601.002 213.797 600.473 215.545L600.361 215.922L597.607 215.913L594.85 215.9L594.69 215.488C593.966 213.676 592.799 211.625 592.071 210.884C591.386 210.186 590.38 209.718 589.396 209.635C589.192 209.618 602.407 209.6 618.757 209.596L648.49 209.592V228.43C648.49 238.792 648.482 247.268 648.473 247.268C648.464 247.268 648.447 247.06 648.438 246.8ZM583.625 238.029C582.563 236.312 582.238 235.562 581.964 234.218C581.54 232.133 581.032 231.153 579.502 229.44C579.224 229.128 579.211 229.102 579.302 229.085C579.359 229.076 579.636 229.024 579.922 228.976C581.015 228.786 581.713 228.664 582.021 228.599C582.199 228.565 582.346 228.543 582.355 228.547C582.359 228.556 582.424 228.872 582.498 229.254C582.576 229.635 582.723 230.338 582.827 230.815C583.465 233.72 583.768 235.619 583.937 237.778C584.002 238.649 584.007 238.649 583.625 238.029ZM581.765 236.611C581.318 236.585 579.45 236.217 577.885 235.848C577.091 235.662 575.335 235.215 574.681 235.033C574.416 234.964 574.16 234.89 574.113 234.882C571.88 234.305 569.725 233.516 569.066 233.026C568.42 232.553 567.718 231.248 567.939 230.936C568.195 230.576 568.186 230.581 568.81 230.511C571.29 230.234 572.678 229.783 574.828 228.56C575.899 227.953 575.799 227.979 575.912 228.291C576.025 228.595 576.28 228.872 577.282 229.765C577.945 230.355 578.908 231.335 579.398 231.925C579.853 232.467 580.113 232.87 580.651 233.876C580.898 234.34 581.18 234.843 581.275 234.999C581.375 235.155 581.531 235.484 581.626 235.736C581.722 235.987 581.839 236.278 581.891 236.377C582.012 236.611 582.004 236.629 581.765 236.611ZM641.449 234.986C641.311 234.908 641.185 234.743 640.799 234.131C640.196 233.178 639.581 232.263 638.939 231.374C638.666 230.997 638.449 230.68 638.453 230.672C638.458 230.667 638.523 230.685 638.601 230.711C638.714 230.75 638.87 230.958 639.52 231.916C639.949 232.549 640.574 233.468 640.907 233.958C641.454 234.756 641.666 235.085 641.631 235.085C641.623 235.085 641.54 235.042 641.449 234.986ZM484.729 233.234C484.625 233.117 484.339 232.809 484.101 232.549C483.385 231.777 483.411 231.812 483.511 231.673C483.858 231.188 487.136 228.075 487.378 227.997C487.517 227.953 488.722 228.63 488.722 228.751C488.722 228.764 488.475 228.851 488.167 228.942C486.477 229.44 485.805 230.299 485.102 232.87C485.02 233.165 484.946 233.412 484.937 233.425C484.929 233.433 484.833 233.347 484.729 233.234ZM645.655 232.67C645.343 231.201 644.892 229.579 644.567 228.764C644.484 228.56 644.424 228.382 644.432 228.378C644.45 228.356 645.265 229.792 645.325 229.948C645.416 230.19 645.794 232.939 645.742 232.991C645.733 233 645.694 232.857 645.655 232.67ZM580.573 232.297C580.109 231.578 578.721 230.078 577.646 229.132C576.541 228.157 576.306 227.845 576.944 228.196C578.188 228.877 580.078 230.966 580.677 232.328C580.803 232.623 580.777 232.614 580.573 232.297ZM475.672 232.111C475.672 232.059 475.768 231.547 475.889 230.975C476.791 226.587 478.013 223.331 479.197 222.156C479.882 221.48 481.161 220.869 483.52 220.088C485.054 219.581 484.916 219.594 484.95 219.924C484.985 220.266 485.046 220.283 485.991 220.223C486.971 220.153 487.682 220.123 487.573 220.153C487.526 220.166 487.127 220.253 486.685 220.348C483.064 221.138 481.174 221.957 480.09 223.214C478.933 224.55 477.307 227.706 476.283 230.598C475.915 231.643 475.676 232.237 475.672 232.111ZM570.154 231.721C571.958 231.387 573.211 230.815 575.6 229.241C576.072 228.933 576.146 228.764 575.916 228.534C575.739 228.361 575.639 228.374 575.24 228.63C572.56 230.351 571.719 230.724 569.738 231.075C568.971 231.209 568.988 231.205 568.906 231.361C568.828 231.521 568.862 231.678 569.014 231.795C569.144 231.899 569.248 231.894 570.154 231.721ZM637.781 229.631C637.617 229.566 637.517 229.471 637.14 228.994C634.469 225.638 632.397 223.44 631.126 222.62C629.301 221.441 627.324 220.782 623.626 220.114C623.118 220.023 623.387 220.023 624.996 220.127C629.505 220.409 630.641 220.583 631.725 221.159C632.618 221.628 634.283 222.963 636.489 224.979C637.226 225.647 637.226 225.647 636.719 225.504C636.199 225.356 635.917 225.395 635.774 225.638C635.605 225.941 635.679 226.093 636.858 227.866C638.25 229.956 638.154 229.774 637.781 229.631ZM531.32 228.794C529.542 228.742 528.966 228.656 528.289 228.348C527.353 227.919 526.399 227.051 525.996 226.258C525.909 226.089 526.668 226.076 541.162 226.046C546.551 226.033 553.328 226.011 556.215 225.998C561.474 225.972 561.474 225.972 561.414 226.145C560.976 227.385 559.866 228.252 558.487 228.43C556.523 228.686 536.596 228.955 531.32 228.794ZM583.738 227.064C584.284 226.492 584.765 226.254 586.226 225.833C587.189 225.551 591.342 224.671 591.62 224.684C591.728 224.693 591.78 224.675 591.13 224.814C590.389 224.97 589.946 225.066 589.331 225.2C588.997 225.274 588.546 225.373 588.334 225.421C586.01 225.937 584.696 226.401 583.911 226.999C583.521 227.294 583.521 227.294 583.738 227.064ZM643.825 226.54C643.782 226.488 643.626 226.358 643.483 226.249C643.34 226.137 643.218 226.033 643.21 226.015C643.006 225.551 640.704 222.339 639.732 221.168C639.143 220.457 639.138 220.435 639.693 220.995C640.725 222.035 642.108 223.804 643.366 225.69C643.869 226.444 643.981 226.631 643.925 226.631C643.916 226.631 643.873 226.587 643.825 226.54ZM511.086 225.369C509.989 225.313 509.273 225.222 507.582 224.918C505.354 224.515 499.778 223.57 497.242 223.162C496.622 223.063 495.811 222.937 495.443 222.876C494.354 222.703 493.83 222.59 493.877 222.542C494.086 222.334 495.347 222.165 496.722 222.165C498.031 222.165 501.235 222.039 505.133 221.84C505.826 221.805 506.789 221.753 507.279 221.732C508.133 221.688 509.156 221.636 511.745 221.493C512.399 221.458 513.501 221.398 514.194 221.363C514.888 221.328 515.811 221.281 516.254 221.255C517.325 221.194 520.234 221.051 521.049 221.012C521.704 220.986 521.704 220.986 522.18 221.454C522.948 222.213 524.678 224.745 524.821 225.317C524.847 225.417 524.847 225.417 518.287 225.408C514.675 225.408 511.437 225.391 511.086 225.369ZM525.45 224.962C524.895 223.787 523.546 221.818 522.744 221.021C522.371 220.648 522.198 220.414 522.25 220.362C522.276 220.335 528.654 220.24 528.675 220.266C528.779 220.366 528.415 225.235 528.298 225.352C528.289 225.36 527.691 225.373 526.971 225.382L525.653 225.395L525.45 224.962ZM529.044 225.278C529.044 225.222 529.061 225.066 529.087 224.936C529.178 224.433 529.304 222.833 529.352 221.567C529.382 220.834 529.404 220.231 529.408 220.227C529.408 220.227 530.722 220.201 532.317 220.175C533.913 220.149 536.861 220.097 538.864 220.062C540.867 220.028 543.902 219.98 545.606 219.954C547.31 219.928 549.985 219.893 551.546 219.867C553.107 219.846 555.526 219.815 556.918 219.798L559.45 219.768L559.424 221.042C559.411 221.745 559.38 222.529 559.354 222.794C559.332 223.058 559.28 223.67 559.241 224.16C559.202 224.649 559.163 225.1 559.15 225.161C559.129 225.274 559.129 225.274 549.755 225.3C544.6 225.317 537.832 225.343 534.715 225.36C529.044 225.387 529.044 225.387 529.044 225.278ZM559.87 225.239C559.87 225.217 559.918 224.597 559.978 223.865C560.096 222.404 560.174 221.025 560.174 220.266V219.781H560.95C561.375 219.781 561.843 219.768 561.99 219.755C562.255 219.724 562.255 219.724 562.255 219.915C562.255 220.019 562.224 220.223 562.19 220.37C562.068 220.886 561.825 222.907 561.678 224.615C561.626 225.222 561.626 225.222 561.258 225.252C560.642 225.295 559.87 225.291 559.87 225.239ZM562.341 225.213C562.346 224.667 562.727 221.298 562.862 220.648C562.909 220.418 562.957 220.123 562.974 219.984C563.005 219.737 563.005 219.737 564.271 219.737H565.537L565.29 220.335C564.826 221.445 564.414 222.733 563.989 224.394L563.781 225.222L563.061 225.235C562.667 225.239 562.341 225.23 562.341 225.213ZM564.709 224.459C565.199 222.564 565.645 221.229 566.17 220.08L566.322 219.75L567.921 219.724C568.797 219.707 574.368 219.694 580.3 219.694C591.087 219.694 591.087 219.694 591.039 219.815C590.978 219.963 590.532 221.229 590.276 221.97C590.05 222.629 590.063 222.616 589.699 222.677C589.543 222.703 588.724 222.841 587.878 222.98C579.298 224.433 573.727 224.983 565.671 225.187L564.514 225.213L564.709 224.459ZM591.173 221.567C591.334 221.099 591.529 220.548 591.603 220.348C591.676 220.145 591.737 219.915 591.737 219.837C591.737 219.694 591.737 219.694 594.59 219.698C596.155 219.698 597.473 219.711 597.512 219.729C597.573 219.755 597.516 219.876 597.139 220.518C596.697 221.276 596.697 221.276 596.246 221.372C595.995 221.424 595.557 221.519 595.271 221.58C594.13 221.823 591.074 222.425 590.978 222.425C590.874 222.425 590.879 222.412 591.173 221.567ZM597.677 221.016C597.677 221.008 597.794 220.804 597.933 220.565C598.076 220.327 598.236 220.049 598.284 219.95C598.379 219.768 598.379 219.768 598.752 219.794C599.32 219.837 601.102 220.175 601.102 220.24C601.102 220.266 599.849 220.574 598.357 220.908C597.785 221.038 597.677 221.055 597.677 221.016ZM521.847 219.36C521.764 219.195 521.543 218.831 521.357 218.549C520.927 217.903 520.94 217.938 521.14 217.873C521.231 217.843 521.461 217.725 521.656 217.613C522.089 217.357 522.28 217.27 523.017 216.997C523.672 216.754 523.962 216.75 527.006 216.897C529.75 217.036 531.68 217.062 537.39 217.032C542.861 217.006 549.911 216.941 551.377 216.902C552.096 216.884 552.096 216.884 552.075 217.097C552.057 217.292 552.066 217.327 552.174 217.439C552.4 217.673 553.258 217.847 554.221 217.851C554.88 217.851 554.967 217.808 555.075 217.439C555.144 217.192 555.183 217.183 556.233 217.183C557.373 217.179 557.789 217.214 557.789 217.318C557.789 217.478 557.915 217.639 558.101 217.725C558.335 217.829 560.395 217.847 560.846 217.747C561.314 217.643 561.544 217.288 561.366 216.945C561.331 216.88 561.301 216.815 561.301 216.806C561.301 216.798 561.522 216.789 561.786 216.789H562.276L562.263 217.903C562.255 218.519 562.246 219.026 562.242 219.03C562.237 219.03 559.415 219.065 555.968 219.104C552.521 219.143 548.619 219.195 547.297 219.217C545.974 219.239 543.503 219.278 541.812 219.304C540.121 219.33 537.737 219.369 536.523 219.39C535.309 219.412 533.063 219.451 531.537 219.477C528.354 219.525 524.504 219.594 523.017 219.629C521.998 219.65 521.998 219.65 521.847 219.36ZM562.992 217.925V216.789H563.391C563.612 216.789 563.842 216.776 563.898 216.759C564.011 216.728 564.011 216.75 563.898 217.04C563.846 217.166 563.85 217.201 563.937 217.37C564.128 217.725 564.47 217.799 565.962 217.803C567.236 217.808 567.336 217.782 567.483 217.422C567.588 217.175 567.562 217.179 568.914 217.179C570.124 217.179 570.232 217.196 570.232 217.392C570.232 217.869 570.831 217.96 572.309 217.721C573.133 217.587 573.436 217.288 573.163 216.876C573.059 216.715 573.059 216.715 573.644 216.689C573.97 216.672 577.872 216.659 582.316 216.659H590.397L590.506 216.91C590.566 217.045 590.657 217.257 590.709 217.374C590.857 217.725 591.074 218.025 591.238 218.116C591.347 218.172 591.39 218.224 591.39 218.302C591.39 218.441 591.577 218.753 591.72 218.861C591.837 218.944 591.707 218.944 578.921 218.97C571.819 218.987 565.329 219.013 564.501 219.03L562.992 219.056V217.925ZM596.159 218.983C596.159 218.974 596.211 218.874 596.272 218.766C596.502 218.354 596.393 218.12 595.691 217.5C595.297 217.153 595.132 216.923 595.123 216.711C595.119 216.672 595.544 216.659 597.113 216.659C598.995 216.659 599.108 216.663 599.108 216.737C599.108 216.802 598.236 218.432 597.972 218.861C597.885 219 597.885 219 597.022 219C596.55 219 596.159 218.991 596.159 218.983ZM592.756 218.436C592.591 218.419 592.513 218.406 592.587 218.402C593.714 218.337 594.599 218.211 594.919 218.068C595.149 217.968 595.149 217.968 595.375 218.194L595.6 218.423L595.175 218.449C594.668 218.484 593.181 218.476 592.756 218.436ZM592.179 217.526C591.902 217.327 591.698 216.884 590.588 214.101C590.319 213.42 590.011 212.64 589.903 212.367C589.795 212.093 589.578 211.543 589.422 211.148C589.266 210.749 589.136 210.411 589.136 210.394C589.136 210.338 589.669 210.403 590.003 210.502C591.282 210.879 591.949 211.604 593.159 213.927C593.801 215.163 594.672 217.37 594.546 217.444C594.421 217.522 593.233 217.656 592.665 217.656C592.392 217.656 592.335 217.643 592.179 217.526ZM553.648 217.114C553.41 217.079 553.185 217.053 553.15 217.049C552.885 217.036 553.744 216.724 554.307 216.633C554.832 216.55 554.897 216.55 554.732 216.655C554.555 216.763 554.451 216.884 554.412 217.032C554.373 217.188 554.273 217.196 553.648 217.114ZM558.556 217.101C558.548 217.084 558.526 217.014 558.509 216.945C558.491 216.876 558.418 216.763 558.344 216.694C558.214 216.572 558.214 216.572 558.335 216.572C559.033 216.576 560.343 216.867 560.451 217.045C560.464 217.062 560.295 217.092 560.078 217.11C559.541 217.144 558.578 217.144 558.556 217.101ZM570.861 216.949C570.809 216.845 570.705 216.724 570.614 216.663C570.523 216.607 570.453 216.555 570.462 216.546C570.497 216.516 571.39 216.681 571.663 216.772C572.313 216.988 572.313 217.019 571.685 217.088C571.004 217.17 570.961 217.162 570.861 216.949ZM564.908 217.053C564.648 216.984 565.537 216.707 566.309 216.62C567.219 216.516 567.15 216.511 566.994 216.642C566.911 216.702 566.833 216.819 566.803 216.923C566.751 217.092 566.751 217.092 565.879 217.088C565.398 217.084 564.96 217.071 564.908 217.053ZM602.771 216.576C602.563 216.555 602.416 216.516 602.299 216.442C602.147 216.351 602.064 216.334 601.592 216.321C601.163 216.303 601.059 216.29 601.059 216.238C601.059 216.169 601.119 215.961 601.388 215.154C601.64 214.387 601.861 213.949 601.744 214.448C601.527 215.393 602.195 216.368 603.179 216.537C604.128 216.698 605.078 216.017 605.208 215.076C605.221 214.968 605.247 214.881 605.26 214.881C605.373 214.881 605.745 215.822 605.793 216.225C605.828 216.524 604.258 216.707 602.771 216.576ZM603.239 215.831C603.001 215.787 602.741 215.61 602.598 215.393C601.904 214.348 603.317 213.19 604.202 214.079C604.935 214.812 604.267 216.03 603.239 215.831Z" fill="#1A1A1A" fill-opacity="0.71"/>
</g>
</g>
<defs>
<clipPath id="clip0_2002_7">
<rect width="1012" height="500" fill="white"/>
</clipPath>
</defs>
</svg>
