<svg width="46" height="46" viewBox="0 0 46 46" fill="none" xmlns="http://www.w3.org/2000/svg">
<g clip-path="url(#clip0_2021_80)">
<rect width="46" height="46" fill="#FFDEC6"/>
<path d="M3.83333 3.83333H42.1667V42.1667H3.83333V3.83333Z" fill="#DDBFAA"/>
<path d="M33.7812 23.7188L33.9106 20.9444L25.875 20.8438V23.7188L27.3125 30.1875V33.0625L28.75 33.7812C30.1875 34.5 33.0625 34.5 33.0625 34.5L31.625 30.1875L33.7812 23.7188Z" fill="#525252"/>
<path d="M33.7812 23.7188L33.9106 20.9444L25.875 20.8438V23.7188L27.3125 30.1875V33.0625C27.3125 33.0625 28.1501 33.5967 28.75 33.7812C29.8231 34.1114 31.625 33.7812 31.625 33.7812V30.1875L33.7812 23.7188Z" fill="#6E726E"/>
<ellipse cx="29.9" cy="20.9875" rx="4.025" ry="0.8625" fill="#AB9D95"/>
<path d="M31.625 30.1875V33.7812C31.625 33.7812 34.5 35.9375 38.0938 33.7812C38.9616 33.2606 35.9375 32.3438 35.9375 32.3438L35.2188 28.0312L33.7812 23.7188L31.625 30.1875Z" fill="#807575" fill-opacity="0.3"/>
<path d="M31.625 30.1875V33.7812C31.625 33.7812 33.4414 34.9677 34.5 34.5C35.4257 34.091 35.9375 32.3438 35.9375 32.3438L35.2188 28.0312L33.7812 23.7188L31.625 30.1875Z" fill="#DECCCC"/>
<path d="M32.9979 32.085C32.9979 32.085 33.1561 32.1492 33.1917 32.2202C33.2516 32.3401 33.2888 32.3475 33.3166 32.4121L33.384 32.5946V32.5974C33.4705 32.8898 33.5789 33.1996 33.697 33.4551L33.8402 33.7204C33.8569 33.7505 33.8702 33.7745 33.8795 33.7906C33.889 33.8071 33.8936 33.8131 33.8936 33.8131C33.9373 33.8791 33.9188 33.9684 33.8528 34.0124C33.7868 34.0561 33.696 34.0783 33.6521 34.0124C33.6362 33.9882 33.5659 33.821 33.4429 33.5885L33.4401 33.5829C33.3131 33.3094 33.2813 33.0507 33.1917 32.748C33.1566 32.6369 33.1797 32.5779 33.0625 32.3437C33.027 32.2728 32.9979 32.085 32.9979 32.085Z" fill="#B09A9A"/>
<path d="M33.3891 29.3059C33.4641 29.2804 33.6357 29.7366 33.6615 29.8115C33.7358 30.0277 33.7609 30.1257 33.837 30.3759C33.9136 30.6278 34.0418 31.0333 34.1514 31.4329C34.346 32.1485 34.4951 32.6814 34.5964 33.0487C34.647 33.2319 34.6865 33.3748 34.713 33.4783C34.7262 33.5299 34.7365 33.5734 34.7438 33.6074C34.7504 33.6378 34.7569 33.6719 34.7579 33.6987C34.7604 33.7778 34.698 33.8446 34.6189 33.8475C34.5396 33.8503 34.4365 33.9268 34.4336 33.8475C34.4336 33.8475 34.3622 33.6953 34.3563 33.6678C34.35 33.639 34.3691 33.5285 34.3563 33.4783C34.3306 33.3778 34.3704 33.309 34.3199 33.1259C34.2189 32.7599 33.9761 32.3413 33.7813 31.625C33.673 31.2305 33.6395 30.7141 33.5618 30.4587C33.4837 30.202 33.4613 30.114 33.3892 29.9042C33.3637 29.8292 33.3142 29.3317 33.3891 29.3059Z" fill="#B09A9A"/>
<path d="M35.1455 32.9867C35.1455 32.9592 35.1135 32.862 35.0543 32.4841C34.9955 32.1092 34.9775 31.4648 34.7749 30.3658L34.6514 29.8927C34.5409 29.4944 34.4699 29.3076 34.4296 29.2104L34.4268 29.2034C34.3989 29.1237 34.3798 29.0381 34.3159 28.7851C34.2965 28.7081 34.2389 28.2922 34.3159 28.2727C34.3929 28.2533 34.5744 28.6379 34.5938 28.7149C34.6607 28.9797 34.6755 29.0443 34.6977 29.108C34.7438 29.2198 34.8176 29.4179 34.928 29.8155L35.0543 30.2956L35.0557 30.304C35.2595 31.4093 35.3696 32.0551 35.4291 32.435C35.4878 32.8096 35.4992 32.9334 35.4993 32.9867C35.4993 33.0661 35.4341 33.1313 35.3547 33.1313C35.2755 33.1311 35.1455 33.066 35.1455 32.9867Z" fill="#B09A9A"/>
<path d="M17.9688 25.1563C17.9688 25.7839 18.6875 26.5938 18.6875 26.5938V28.75H23L23.7188 25.1563L23 23.7188L24.4375 22.2813L25.875 15.0938L25.1562 12.2188L25.875 10.7813C25.875 10.7813 26.2828 10.5515 25.1562 10.0625C24.0297 9.57354 21.1728 8.81118 18.6875 9.34375C18.0278 9.48512 17.1251 9.82686 16.7301 9.98268C16.6221 10.0253 16.5754 10.1508 16.6273 10.2547L17.25 11.5C17.25 11.5 15.8125 12.2188 15.0938 13.6563C14.375 15.0938 15.8125 20.8438 17.25 22.2813C18.6875 23.7188 18.6875 23.7188 18.6875 23.7188C18.6875 23.7188 17.9688 24.5286 17.9688 25.1563Z" fill="#5563A3"/>
<path d="M18.6875 10.7812C18.0883 10.6314 17.2789 10.3421 16.842 10.18C16.8078 10.1672 16.8209 10.1169 16.8569 10.1235C17.6952 10.2775 19.9733 10.6776 21.5625 10.7812C23.2431 10.8909 25.875 10.7812 25.875 10.7812C25.875 10.7812 25.1562 11.5 23.7188 11.5C22.2812 11.5 21.5625 11.5 18.6875 10.7812Z" fill="#98A1C9"/>
<path d="M15.0938 37.375C15.0938 37.375 13.5336 36.7554 12.9375 35.9375C12.4147 35.2202 12.2188 34.6689 12.2188 33.7812C12.2188 30.9062 12.65 27.7438 12.65 27.7438L22.2813 27.3125V35.9375L21.4375 37.2032C21.0666 37.7595 20.4421 38.0938 19.7734 38.0938H16.5312L15.0938 37.375Z" fill="#473F37"/>
<path d="M14.9185 37.3004C14.4941 37.1124 13.4113 36.5876 12.9375 35.9375C12.4147 35.2202 12.2188 34.6689 12.2188 33.7812C12.2188 30.9062 12.65 27.7438 12.65 27.7438L22.2813 27.3125V35.9375L20.6289 37.0391C20.3003 37.2581 19.9143 37.375 19.5195 37.375H16.5313H15.2851C15.1587 37.375 15.0341 37.3516 14.9185 37.3004Z" fill="#B09476"/>
<ellipse cx="17.6813" cy="27.7438" rx="5.03125" ry="1.4375" fill="#E5D8CA"/>
<path d="M21.5625 25.875V35.9375C21.5625 35.9375 22.2899 37.3075 23 37.6625C24.0042 38.1646 24.8708 38.1646 25.875 37.6625C26.8792 37.1604 27.3125 35.9375 27.3125 35.9375V23L25.875 18.6875V10.7812C25.875 10.7812 25.2179 10.701 24.7969 10.7094C24.3758 10.7178 23.7188 10.8244 23.7188 10.8244L23.2875 18.6875L22.2812 21.5625L21.5625 25.875Z" fill="#504A4A"/>
<path d="M21.5625 25.875V35.9375C21.5625 35.9375 22.2899 37.02 23 37.375C24.0042 37.8771 24.8708 37.8771 25.875 37.375C26.5851 37.02 27.3125 35.9375 27.3125 35.9375V23L25.875 18.6875V10.7812C25.875 10.7812 25.2179 10.701 24.7969 10.7094C24.3758 10.7178 23.7188 10.8244 23.7188 10.8244L23.2875 18.6875L22.2812 21.5625L21.5625 25.875Z" fill="#EDE6E6"/>
<path d="M24.7969 10.7094C24.3758 10.7178 23.7188 10.8244 23.7188 10.8244C23.7188 10.8244 24.3653 11.0761 24.7969 11.0684C25.2325 11.0607 25.875 10.7812 25.875 10.7812C25.875 10.7812 25.2179 10.701 24.7969 10.7094Z" fill="#DFD2D2"/>
</g>
<defs>
<clipPath id="clip0_2021_80">
<rect width="46" height="46" fill="white"/>
</clipPath>
</defs>
</svg>
