<svg width="46" height="46" viewBox="0 0 46 46" fill="none" xmlns="http://www.w3.org/2000/svg">
<g clip-path="url(#clip0_2019_2)">
<rect width="46" height="46" fill="#839689"/>
<rect x="3.83334" y="3.83333" width="38.3333" height="38.3333" fill="#9DBDA7"/>
<mask id="mask0_2019_2" style="mask-type:alpha" maskUnits="userSpaceOnUse" x="3" y="3" width="40" height="40">
<rect x="3.83812" y="3.83812" width="38.3333" height="38.3333" fill="#9DBDA7"/>
</mask>
<g mask="url(#mask0_2019_2)">
<path d="M17.5 19C15.5833 18.5208 12.5063 15.8125 10.7812 12.9375C9.05625 10.0625 10.0625 7.1875 7.1875 5.75C4.3125 4.3125 1 5.5 1 5.5" stroke="#69767C"/>
</g>
<path d="M11.5288 25.5688L11.5003 19.4519C11.5001 19.4127 11.5229 19.377 11.5585 19.3606L13.685 18.3813L21.9261 15.2116C22.6063 14.95 23.3749 15.079 23.9324 15.5484L36.685 26.2875V29.8813L24.4663 35.6313L11.5288 25.5688Z" fill="#5D6264"/>
<path d="M11.5 25.2812L11.243 19.0723C11.2412 19.0292 11.2673 18.9897 11.3078 18.9746L13.6562 18.0938L21.8974 14.9241C22.5776 14.6625 23.3462 14.7915 23.9036 15.2609L36.6562 26V29.5938L24.4375 35.3438L11.5 25.2812Z" fill="#949EA3"/>
<path d="M36.6562 29.5938L24.4375 35.3438V31.0312L36.6562 26V29.5938Z" fill="#7B878D"/>
<path d="M12.416 18.2676L15.0938 17.375L20.826 15.2906C21.8869 14.9048 22.4174 14.7119 22.9458 14.8056C23.4742 14.8993 23.906 15.2629 24.7695 15.9901L36.6562 26L24.9015 30.8402C24.6759 30.9331 24.5631 30.9795 24.4497 30.9601C24.3363 30.9407 24.2453 30.8593 24.0635 30.6966L12.0654 19.9615C11.4943 19.4505 11.2088 19.195 11.2671 18.9131C11.3255 18.6311 11.689 18.5099 12.416 18.2676Z" fill="#EEEFDE"/>
<path d="M12.416 18.2676L15.0938 17.375L17.938 16.3407C20.2556 15.498 21.4144 15.0766 22.254 15.6306C23.0936 16.1846 23.162 17.4158 23.2988 19.878L23.7188 27.4375L24.4375 31.0312L12.0654 19.9615C11.4943 19.4505 11.2088 19.195 11.2671 18.9131C11.3255 18.6311 11.689 18.5099 12.416 18.2676Z" fill="#D0D0C4"/>
<path d="M33.0625 23.125L23.7188 27.4375L14.375 19.5312L12.2188 18.3525L21.9068 14.8906C22.5828 14.6491 23.3364 14.7883 23.8814 15.2555L33.0625 23.125Z" fill="#FFFFF4"/>
<path d="M15.9605 18.7544L14.375 18.0938L21.6827 15.4364C22.0479 15.3036 22.4569 15.3944 22.7316 15.6691L23.7188 16.6562L25.1562 18.0938L18.6875 20.9688L16.2161 18.9092C16.1391 18.8451 16.053 18.7929 15.9605 18.7544Z" fill="#839689"/>
</g>
<defs>
<clipPath id="clip0_2019_2">
<rect width="46" height="46" fill="white"/>
</clipPath>
</defs>
</svg>
