<svg width="46" height="46" viewBox="0 0 46 46" fill="none" xmlns="http://www.w3.org/2000/svg">
<g clip-path="url(#clip0_2021_196)">
<rect width="46" height="46" fill="#D7D4BF"/>
<rect x="3.83334" y="3.83333" width="38.3333" height="38.3333" fill="#8D8B80"/>
<path d="M23 10.0625C30.9391 10.0625 37.375 15.533 37.375 22.2812C37.375 29.0295 30.9391 34.5 23 34.5C20.0164 34.5 17.2454 33.727 14.9482 32.4043C14.3607 32.6268 13.5775 32.892 12.9375 32.9883C11.8335 33.1543 10.0625 32.9883 10.0625 32.9883C10.0802 32.9779 11.3178 32.2547 11.7871 31.5879C12.0238 31.2516 12.1995 30.7345 12.291 30.4316C10.0116 28.2693 8.625 25.4131 8.625 22.2812C8.625 15.533 15.0609 10.0625 23 10.0625Z" fill="#F1F1F1"/>
<path d="M13.4906 20.0306C13.7043 19.9239 15.3068 18.4431 16.5638 17.7916C17.4759 17.3188 18.5604 19.1887 19.5614 19.2628C20.8407 19.3574 21.6535 17.6436 21.9899 17.489C22.7136 17.1564 23.5076 18.2681 24.2727 18.7594C24.7764 19.0829 25.3871 19.1206 25.9655 19.0264C27.0065 18.8569 27.9759 18.3408 29.0304 18.3633C29.2875 18.3688 29.551 18.3811 29.8149 18.3937C30.3058 18.4171 30.7873 18.3412 31.2676 18.2373" stroke="#757145" stroke-width="0.6" stroke-linecap="round"/>
<path d="M14.4357 23.2426C14.634 23.1574 15.6399 22.9845 16.528 23.2878C16.9594 23.4351 17.2786 23.7321 17.6683 23.7072C18.4959 23.6543 19.0305 22.8458 19.3365 22.5954C19.4844 22.4744 19.6794 22.4531 19.9114 22.619C20.5175 23.0524 20.8767 23.6708 21.2578 23.8689C21.4596 23.9738 21.7293 23.9712 21.9734 23.9249C23.3891 23.6567 24.3687 22.0626 24.719 22.0251C24.9006 22.0311 25.0899 22.088 25.3061 22.1173C25.5224 22.1465 25.7597 22.1465 26.2095 22.2543" stroke="#757145" stroke-width="0.6" stroke-linecap="round"/>
<path d="M14.9209 27.1539C15.1772 27.1539 15.8301 27.1043 16.1677 27.1122C16.5549 27.1212 16.8195 27.636 17.1785 27.8443C17.3482 27.9428 17.5325 27.948 17.72 27.8715C18.0303 27.7449 18.3 27.3626 18.5685 26.9444C18.7698 26.6309 19.0605 26.2439 19.3807 26.4344C19.5368 26.5273 19.6739 26.6646 20.1788 27.1519" stroke="#757145" stroke-width="0.6" stroke-linecap="round"/>
</g>
<defs>
<clipPath id="clip0_2021_196">
<rect width="46" height="46" fill="white"/>
</clipPath>
</defs>
</svg>
